<svg xmlns="http://www.w3.org/2000/svg" width="18.683" height="19.991" viewBox="0 0 18.683 19.991">
  <path id="Trazado_166" data-name="Trazado 166" d="M0,6.07A6.281,6.281,0,0,1,2.16,1.34C2.7.82,3.45-.11,4.28.01,5.15.1,5.76,1.06,6.2,1.71c.73,1.17,1.94,2.86.82,4.16-.53.62-1.35.95-1.83,1.6A2.322,2.322,0,0,0,5.3,9.75a13.644,13.644,0,0,0,3.43,4.09,3.085,3.085,0,0,0,2.2.94c.85-.14,1.51-1.06,2.13-1.58,1.56-1.28,3.32.47,4.48,1.51a2.609,2.609,0,0,1,1.14,1.92c-.02.81-1.09,1.46-1.65,1.93a6.384,6.384,0,0,1-5.44,1.28,12.189,12.189,0,0,1-5.44-3.1A25.123,25.123,0,0,1,2,11.82,12.88,12.88,0,0,1,.63,9.16,14.011,14.011,0,0,1,0,6.07C.02,5.03.07,6.63,0,6.07Z" transform="translate(0 0.001)" fill="#e91e5d" fill-rule="evenodd"/>
</svg>
