<svg id="Grupo_520" data-name="Grupo 520" xmlns="http://www.w3.org/2000/svg" width="20" height="20" viewBox="0 0 20 20">
  <path id="Trazado_167" data-name="Trazado 167" d="M20,9.74a9.782,9.782,0,0,1-9.82,9.74,9.886,9.886,0,0,1-4.75-1.21L0,20l1.77-5.23A9.684,9.684,0,0,1,.36,9.74,9.82,9.82,0,0,1,20,9.74ZM10.18,1.55A8.226,8.226,0,0,0,1.93,9.74a8.089,8.089,0,0,0,1.57,4.8L2.47,17.58l3.17-1.01A8.211,8.211,0,1,0,10.18,1.55Zm4.96,10.44c-.06-.1-.22-.16-.46-.28s-1.42-.7-1.64-.78-.38-.12-.54.12-.62.78-.76.94-.28.18-.52.06a6.631,6.631,0,0,1-1.94-1.18A7,7,0,0,1,7.94,9.22c-.14-.24-.01-.37.1-.49s.24-.28.36-.42a1.635,1.635,0,0,0,.24-.4.441.441,0,0,0-.02-.42c-.06-.12-.54-1.29-.74-1.77s-.4-.4-.54-.4-.3-.02-.46-.02a.882.882,0,0,0-.64.3,2.619,2.619,0,0,0-.85,1.99,4.616,4.616,0,0,0,.98,2.47,9.9,9.9,0,0,0,4.11,3.61c2.45.96,2.45.64,2.89.6a2.442,2.442,0,0,0,1.62-1.13A1.987,1.987,0,0,0,15.14,11.99Z" fill="#e91e5d"/>
</svg>
