<svg id="btn_linkedin" xmlns="http://www.w3.org/2000/svg" width="25" height="25" viewBox="0 0 25 25">
  <g id="post-linkedin_2_">
    <path id="Trazado_14" data-name="Trazado 14" d="M22.5,0H2.5A2.508,2.508,0,0,0,0,2.5v20A2.508,2.508,0,0,0,2.5,25h20A2.508,2.508,0,0,0,25,22.5V2.5A2.514,2.514,0,0,0,22.5,0ZM7.5,21.248H3.748V10H7.5V21.248ZM5.626,7.872a2.25,2.25,0,1,1,2.25-2.25A2.24,2.24,0,0,1,5.626,7.872ZM21.248,21.248H17.5V14.623a1.874,1.874,0,1,0-3.748,0v6.625H10V10h3.748v1.5A4.034,4.034,0,0,1,16.87,9.75a4.428,4.428,0,0,1,4.375,4.375v7.123Z" fill="#fff"/>
  </g>
</svg>
