<svg id="btn_facebook" xmlns="http://www.w3.org/2000/svg" width="25" height="25" viewBox="0 0 25 25">
  <path id="btn_facebook-2" data-name="btn_facebook" d="M21.633,0H3.367A3.368,3.368,0,0,0,0,3.367V21.625A3.37,3.37,0,0,0,3.367,25h9.008l.017-8.933H10.067a.548.548,0,0,1-.55-.542l-.008-2.883a.549.549,0,0,1,.55-.55h2.317V9.308c0-3.225,1.975-4.983,4.85-4.983h2.367a.549.549,0,0,1,.55.55V7.3a.549.549,0,0,1-.55.55h-1.45c-1.567,0-1.867.742-1.867,1.833v2.408h3.442a.543.543,0,0,1,.542.608l-.342,2.883a.549.549,0,0,1-.542.483H16.292L16.275,25h5.358A3.368,3.368,0,0,0,25,21.633V3.367A3.368,3.368,0,0,0,21.633,0Z" fill="#fff"/>
</svg>
