<svg xmlns="http://www.w3.org/2000/svg" width="262.01" height="297.14" viewBox="0 0 262.01 297.14">
  <g id="Grupo_691" data-name="Grupo 691" transform="translate(0.01)">
    <g id="Grupo_689" data-name="Grupo 689">
      <g id="XMLID_1_">
        <g id="Grupo_687" data-name="Grupo 687">
          <path id="Trazado_606" data-name="Trazado 606" d="M207.05,227.49v5.09s-5.09,25.44-25.44,25.44v35.62H84.92V252.93c0-15.27-10.18-15.27-10.18-15.27H44.21c-15.26,0-15.27-15.26-15.27-15.26V203.42c-4.83-4.27-10.58-6.46-15.27-6.46-10.18,0-10.18-10.18-10.18-10.18l25.44-46.1v-9.87a71.253,71.253,0,0,1,71.24-71.24H130.7c39.34,0,76.33,31.91,76.33,71.24v96.68Z" fill="#fff"/>
        </g>
        <g id="Grupo_688" data-name="Grupo 688">
          <path id="Trazado_607" data-name="Trazado 607" d="M207.05,227.49v5.09s-5.09,25.44-25.44,25.44v35.62H84.92V252.93c0-15.27-10.18-15.27-10.18-15.27H44.21c-15.26,0-15.27-15.26-15.27-15.26V203.42c-4.83-4.27-10.58-6.46-15.27-6.46-10.18,0-10.18-10.18-10.18-10.18l25.44-46.1v-9.87a71.253,71.253,0,0,1,71.24-71.24H130.7c39.34,0,76.33,31.91,76.33,71.24v96.68Z" fill="none" stroke="#4d4e4e" stroke-linecap="round" stroke-linejoin="round" stroke-miterlimit="10" stroke-width="7"/>
        </g>
      </g>
    </g>
    <g id="Grupo_690" data-name="Grupo 690">
      <path id="Trazado_608" data-name="Trazado 608" d="M158.39,159.93v6.81h26.15v-6.81a58.845,58.845,0,1,0-26.15,0Z" fill="#e91e5d" stroke="#4d4d4d" stroke-linecap="round" stroke-linejoin="round" stroke-miterlimit="10" stroke-width="7"/>
      <path id="Trazado_609" data-name="Trazado 609" d="M164.12,121.21c1.84,0,1.84,1.22,3.67,1.22s1.84-1.22,3.67-1.22,1.84,1.22,3.68,1.22,1.84-1.22,3.68-1.22" fill="none" stroke="#4d4d4d" stroke-linecap="round" stroke-linejoin="round" stroke-miterlimit="10" stroke-width="7"/>
      <path id="Trazado_610" data-name="Trazado 610" d="M182.4,63.37a29.418,29.418,0,0,1,29.42,29.42" fill="none" stroke="#4d4d4d" stroke-linecap="round" stroke-linejoin="round" stroke-miterlimit="10" stroke-width="7"/>
      <path id="Trazado_611" data-name="Trazado 611" d="M162.35,197.5h18.23a7.629,7.629,0,0,0,7.63-7.63v-15.5a7.629,7.629,0,0,0-7.63-7.63H162.35a7.629,7.629,0,0,0-7.63,7.63v15.5A7.622,7.622,0,0,0,162.35,197.5Z" fill="#fff" stroke="#4d4d4d" stroke-linecap="round" stroke-linejoin="round" stroke-miterlimit="10" stroke-width="7"/>
      <line id="Línea_77" data-name="Línea 77" y1="38.94" transform="translate(158.4 121.82)" fill="none" stroke="#4d4d4d" stroke-linecap="round" stroke-linejoin="round" stroke-miterlimit="10" stroke-width="7"/>
      <line id="Línea_78" data-name="Línea 78" y1="38.94" transform="translate(184.54 121.82)" fill="none" stroke="#4d4d4d" stroke-linecap="round" stroke-linejoin="round" stroke-miterlimit="10" stroke-width="7"/>
      <line id="Línea_79" data-name="Línea 79" x2="33.51" transform="translate(154.71 182.12)" fill="none" stroke="#4d4d4d" stroke-linecap="round" stroke-linejoin="round" stroke-miterlimit="10" stroke-width="7"/>
    </g>
    <line id="Línea_80" data-name="Línea 80" y1="20.71" transform="translate(188.22 3.5)" fill="none" stroke="#4d4d4d" stroke-linecap="round" stroke-linejoin="round" stroke-miterlimit="10" stroke-width="7"/>
    <line id="Línea_81" data-name="Línea 81" x2="20.71" transform="translate(237.79 62.36)" fill="none" stroke="#4d4d4d" stroke-linecap="round" stroke-linejoin="round" stroke-miterlimit="10" stroke-width="7"/>
    <line id="Línea_82" data-name="Línea 82" y1="23.89" x2="17.92" transform="translate(223.53 7.36)" fill="none" stroke="#4d4d4d" stroke-linecap="round" stroke-linejoin="round" stroke-miterlimit="10" stroke-width="7"/>
  </g>
</svg>
