<svg xmlns="http://www.w3.org/2000/svg" xmlns:xlink="http://www.w3.org/1999/xlink" width="186.69" height="335.947" viewBox="0 0 186.69 335.947">
  <defs>
    <clipPath id="clip-path">
      <rect id="Rectángulo_407" data-name="Rectángulo 407" width="186.69" height="335.947" transform="translate(-61 -57)" fill="#4778dc"/>
    </clipPath>
  </defs>
  <g id="rayas_02" transform="translate(-665.713 -586.91)">
    <g id="Enmascarar_grupo_445" data-name="Enmascarar grupo 445" transform="translate(726.713 643.91)" clip-path="url(#clip-path)">
      <g id="Grupo_393" data-name="Grupo 393" transform="translate(-389.954 -324.816)">
        <rect id="Rectángulo_355" data-name="Rectángulo 355" width="763.754" height="2.522" transform="matrix(0.707, -0.707, 0.707, 0.707, 0, 540.05)" fill="#4778dc"/>
      </g>
      <g id="Grupo_394" data-name="Grupo 394" transform="translate(-382.715 -317.578)">
        <rect id="Rectángulo_356" data-name="Rectángulo 356" width="763.754" height="2.522" transform="matrix(0.707, -0.707, 0.707, 0.707, 0, 540.05)" fill="#4778dc"/>
      </g>
      <g id="Grupo_395" data-name="Grupo 395" transform="translate(-375.475 -310.34)">
        <rect id="Rectángulo_357" data-name="Rectángulo 357" width="763.754" height="2.522" transform="matrix(0.707, -0.707, 0.707, 0.707, 0, 540.05)" fill="#4778dc"/>
      </g>
      <g id="Grupo_396" data-name="Grupo 396" transform="translate(-368.235 -303.102)">
        <rect id="Rectángulo_358" data-name="Rectángulo 358" width="763.754" height="2.522" transform="matrix(0.707, -0.707, 0.707, 0.707, 0, 540.05)" fill="#4778dc"/>
      </g>
      <g id="Grupo_397" data-name="Grupo 397" transform="translate(-360.999 -295.86)">
        <rect id="Rectángulo_359" data-name="Rectángulo 359" width="763.754" height="2.522" transform="matrix(0.707, -0.707, 0.707, 0.707, 0, 540.05)" fill="#4778dc"/>
      </g>
      <g id="Grupo_398" data-name="Grupo 398" transform="translate(-353.759 -288.622)">
        <rect id="Rectángulo_360" data-name="Rectángulo 360" width="763.754" height="2.522" transform="matrix(0.707, -0.707, 0.707, 0.707, 0, 540.05)" fill="#4778dc"/>
      </g>
      <g id="Grupo_399" data-name="Grupo 399" transform="translate(-346.523 -281.388)">
        <rect id="Rectángulo_361" data-name="Rectángulo 361" width="763.754" height="2.522" transform="matrix(0.707, -0.707, 0.707, 0.707, 0, 540.05)" fill="#4778dc"/>
      </g>
      <g id="Grupo_400" data-name="Grupo 400" transform="translate(-339.283 -274.15)">
        <rect id="Rectángulo_362" data-name="Rectángulo 362" width="763.754" height="2.522" transform="matrix(0.707, -0.707, 0.707, 0.707, 0, 540.05)" fill="#4778dc"/>
      </g>
      <g id="Grupo_401" data-name="Grupo 401" transform="translate(-332.044 -266.912)">
        <rect id="Rectángulo_363" data-name="Rectángulo 363" width="763.754" height="2.522" transform="matrix(0.707, -0.707, 0.707, 0.707, 0, 540.05)" fill="#4778dc"/>
      </g>
      <g id="Grupo_402" data-name="Grupo 402" transform="translate(-324.804 -259.674)">
        <rect id="Rectángulo_364" data-name="Rectángulo 364" width="763.754" height="2.522" transform="matrix(0.707, -0.707, 0.707, 0.707, 0, 540.05)" fill="#4778dc"/>
      </g>
      <g id="Grupo_403" data-name="Grupo 403" transform="translate(-317.564 -252.436)">
        <rect id="Rectángulo_365" data-name="Rectángulo 365" width="763.754" height="2.522" transform="matrix(0.707, -0.707, 0.707, 0.707, 0, 540.05)" fill="#4778dc"/>
      </g>
      <g id="Grupo_404" data-name="Grupo 404" transform="translate(-310.328 -245.194)">
        <rect id="Rectángulo_366" data-name="Rectángulo 366" width="763.754" height="2.522" transform="matrix(0.707, -0.707, 0.707, 0.707, 0, 540.05)" fill="#4778dc"/>
      </g>
      <g id="Grupo_405" data-name="Grupo 405" transform="translate(-303.088 -237.956)">
        <rect id="Rectángulo_367" data-name="Rectángulo 367" width="763.754" height="2.522" transform="matrix(0.707, -0.707, 0.707, 0.707, 0, 540.05)" fill="#4778dc"/>
      </g>
      <g id="Grupo_406" data-name="Grupo 406" transform="translate(-295.852 -230.722)">
        <rect id="Rectángulo_368" data-name="Rectángulo 368" width="763.754" height="2.522" transform="matrix(0.707, -0.707, 0.707, 0.707, 0, 540.05)" fill="#4778dc"/>
      </g>
      <g id="Grupo_407" data-name="Grupo 407" transform="translate(-288.612 -223.484)">
        <rect id="Rectángulo_369" data-name="Rectángulo 369" width="763.754" height="2.522" transform="matrix(0.707, -0.707, 0.707, 0.707, 0, 540.05)" fill="#4778dc"/>
      </g>
      <g id="Grupo_408" data-name="Grupo 408" transform="translate(-281.373 -216.246)">
        <rect id="Rectángulo_370" data-name="Rectángulo 370" width="763.754" height="2.522" transform="matrix(0.707, -0.707, 0.707, 0.707, 0, 540.05)" fill="#4778dc"/>
      </g>
      <g id="Grupo_409" data-name="Grupo 409" transform="translate(-274.133 -209.008)">
        <rect id="Rectángulo_371" data-name="Rectángulo 371" width="763.754" height="2.522" transform="matrix(0.707, -0.707, 0.707, 0.707, 0, 540.05)" fill="#4778dc"/>
      </g>
      <g id="Grupo_410" data-name="Grupo 410" transform="translate(-266.897 -201.766)">
        <rect id="Rectángulo_372" data-name="Rectángulo 372" width="763.754" height="2.522" transform="matrix(0.707, -0.707, 0.707, 0.707, 0, 540.05)" fill="#4778dc"/>
      </g>
      <g id="Grupo_411" data-name="Grupo 411" transform="translate(-259.657 -194.528)">
        <rect id="Rectángulo_373" data-name="Rectángulo 373" width="763.754" height="2.522" transform="matrix(0.707, -0.707, 0.707, 0.707, 0, 540.05)" fill="#4778dc"/>
      </g>
      <g id="Grupo_412" data-name="Grupo 412" transform="translate(-252.421 -187.294)">
        <rect id="Rectángulo_374" data-name="Rectángulo 374" width="763.754" height="2.522" transform="matrix(0.707, -0.707, 0.707, 0.707, 0, 540.05)" fill="#4778dc"/>
      </g>
      <g id="Grupo_413" data-name="Grupo 413" transform="translate(-245.181 -180.056)">
        <rect id="Rectángulo_375" data-name="Rectángulo 375" width="763.754" height="2.522" transform="matrix(0.707, -0.707, 0.707, 0.707, 0, 540.05)" fill="#4778dc"/>
      </g>
      <g id="Grupo_414" data-name="Grupo 414" transform="translate(-237.942 -172.818)">
        <rect id="Rectángulo_376" data-name="Rectángulo 376" width="763.754" height="2.522" transform="matrix(0.707, -0.707, 0.707, 0.707, 0, 540.05)" fill="#4778dc"/>
      </g>
      <g id="Grupo_415" data-name="Grupo 415" transform="translate(-230.702 -165.58)">
        <rect id="Rectángulo_377" data-name="Rectángulo 377" width="763.754" height="2.522" transform="matrix(0.707, -0.707, 0.707, 0.707, 0, 540.05)" fill="#4778dc"/>
      </g>
      <g id="Grupo_416" data-name="Grupo 416" transform="translate(-223.462 -158.342)">
        <rect id="Rectángulo_378" data-name="Rectángulo 378" width="763.754" height="2.522" transform="matrix(0.707, -0.707, 0.707, 0.707, 0, 540.05)" fill="#4778dc"/>
      </g>
      <g id="Grupo_417" data-name="Grupo 417" transform="translate(-216.226 -151.1)">
        <rect id="Rectángulo_379" data-name="Rectángulo 379" width="763.754" height="2.522" transform="matrix(0.707, -0.707, 0.707, 0.707, 0, 540.05)" fill="#4778dc"/>
      </g>
      <g id="Grupo_418" data-name="Grupo 418" transform="translate(-208.986 -143.862)">
        <rect id="Rectángulo_380" data-name="Rectángulo 380" width="763.754" height="2.522" transform="matrix(0.707, -0.707, 0.707, 0.707, 0, 540.05)" fill="#4778dc"/>
      </g>
      <g id="Grupo_419" data-name="Grupo 419" transform="translate(-201.75 -136.628)">
        <rect id="Rectángulo_381" data-name="Rectángulo 381" width="763.754" height="2.522" transform="matrix(0.707, -0.707, 0.707, 0.707, 0, 540.05)" fill="#4778dc"/>
      </g>
      <g id="Grupo_420" data-name="Grupo 420" transform="translate(-194.51 -129.39)">
        <rect id="Rectángulo_382" data-name="Rectángulo 382" width="763.754" height="2.522" transform="matrix(0.707, -0.707, 0.707, 0.707, 0, 540.05)" fill="#4778dc"/>
      </g>
      <g id="Grupo_421" data-name="Grupo 421" transform="translate(-187.271 -122.152)">
        <rect id="Rectángulo_383" data-name="Rectángulo 383" width="763.754" height="2.522" transform="matrix(0.707, -0.707, 0.707, 0.707, 0, 540.05)" fill="#4778dc"/>
      </g>
      <g id="Grupo_422" data-name="Grupo 422" transform="translate(-180.031 -114.914)">
        <rect id="Rectángulo_384" data-name="Rectángulo 384" width="763.754" height="2.522" transform="matrix(0.707, -0.707, 0.707, 0.707, 0, 540.05)" fill="#4778dc"/>
      </g>
      <g id="Grupo_423" data-name="Grupo 423" transform="translate(-172.795 -107.672)">
        <rect id="Rectángulo_385" data-name="Rectángulo 385" width="763.754" height="2.522" transform="matrix(0.707, -0.707, 0.707, 0.707, 0, 540.05)" fill="#4778dc"/>
      </g>
      <g id="Grupo_424" data-name="Grupo 424" transform="translate(-165.555 -100.434)">
        <rect id="Rectángulo_386" data-name="Rectángulo 386" width="763.754" height="2.522" transform="matrix(0.707, -0.707, 0.707, 0.707, 0, 540.05)" fill="#4778dc"/>
      </g>
      <g id="Grupo_425" data-name="Grupo 425" transform="translate(-158.319 -93.2)">
        <rect id="Rectángulo_387" data-name="Rectángulo 387" width="763.754" height="2.522" transform="matrix(0.707, -0.707, 0.707, 0.707, 0, 540.05)" fill="#4778dc"/>
      </g>
      <g id="Grupo_426" data-name="Grupo 426" transform="translate(-151.079 -85.962)">
        <rect id="Rectángulo_388" data-name="Rectángulo 388" width="763.754" height="2.522" transform="matrix(0.707, -0.707, 0.707, 0.707, 0, 540.05)" fill="#4778dc"/>
      </g>
      <g id="Grupo_427" data-name="Grupo 427" transform="translate(-143.839 -78.724)">
        <rect id="Rectángulo_389" data-name="Rectángulo 389" width="763.754" height="2.522" transform="matrix(0.707, -0.707, 0.707, 0.707, 0, 540.05)" fill="#4778dc"/>
      </g>
      <g id="Grupo_428" data-name="Grupo 428" transform="translate(-136.6 -71.486)">
        <rect id="Rectángulo_390" data-name="Rectángulo 390" width="763.754" height="2.522" transform="matrix(0.707, -0.707, 0.707, 0.707, 0, 540.05)" fill="#4778dc"/>
      </g>
      <g id="Grupo_429" data-name="Grupo 429" transform="translate(-129.364 -64.244)">
        <rect id="Rectángulo_391" data-name="Rectángulo 391" width="763.754" height="2.522" transform="matrix(0.707, -0.707, 0.707, 0.707, 0, 540.05)" fill="#4778dc"/>
      </g>
      <g id="Grupo_430" data-name="Grupo 430" transform="translate(-122.124 -57.006)">
        <rect id="Rectángulo_392" data-name="Rectángulo 392" width="763.754" height="2.522" transform="matrix(0.707, -0.707, 0.707, 0.707, 0, 540.05)" fill="#4778dc"/>
      </g>
      <g id="Grupo_431" data-name="Grupo 431" transform="translate(-114.884 -49.768)">
        <rect id="Rectángulo_393" data-name="Rectángulo 393" width="763.754" height="2.522" transform="matrix(0.707, -0.707, 0.707, 0.707, 0, 540.05)" fill="#4778dc"/>
      </g>
      <g id="Grupo_432" data-name="Grupo 432" transform="translate(-107.648 -42.533)">
        <rect id="Rectángulo_394" data-name="Rectángulo 394" width="763.754" height="2.522" transform="matrix(0.707, -0.707, 0.707, 0.707, 0, 540.05)" fill="#4778dc"/>
      </g>
      <g id="Grupo_433" data-name="Grupo 433" transform="translate(-100.408 -35.296)">
        <rect id="Rectángulo_395" data-name="Rectángulo 395" width="763.754" height="2.522" transform="matrix(0.707, -0.707, 0.707, 0.707, 0, 540.05)" fill="#4778dc"/>
      </g>
      <g id="Grupo_434" data-name="Grupo 434" transform="translate(-93.169 -28.058)">
        <rect id="Rectángulo_396" data-name="Rectángulo 396" width="763.754" height="2.522" transform="matrix(0.707, -0.707, 0.707, 0.707, 0, 540.05)" fill="#4778dc"/>
      </g>
      <g id="Grupo_435" data-name="Grupo 435" transform="translate(-85.929 -20.819)">
        <rect id="Rectángulo_397" data-name="Rectángulo 397" width="763.754" height="2.522" transform="matrix(0.707, -0.707, 0.707, 0.707, 0, 540.05)" fill="#4778dc"/>
      </g>
      <g id="Grupo_436" data-name="Grupo 436" transform="translate(-78.693 -13.578)">
        <rect id="Rectángulo_398" data-name="Rectángulo 398" width="763.754" height="2.522" transform="matrix(0.707, -0.707, 0.707, 0.707, 0, 540.05)" fill="#4778dc"/>
      </g>
      <g id="Grupo_437" data-name="Grupo 437" transform="translate(-71.453 -6.34)">
        <rect id="Rectángulo_399" data-name="Rectángulo 399" width="763.754" height="2.522" transform="matrix(0.707, -0.707, 0.707, 0.707, 0, 540.05)" fill="#4778dc"/>
      </g>
      <g id="Grupo_438" data-name="Grupo 438" transform="translate(-64.217 0.895)">
        <rect id="Rectángulo_400" data-name="Rectángulo 400" width="763.754" height="2.522" transform="matrix(0.707, -0.707, 0.707, 0.707, 0, 540.05)" fill="#4778dc"/>
      </g>
      <g id="Grupo_439" data-name="Grupo 439" transform="translate(-56.977 8.132)">
        <rect id="Rectángulo_401" data-name="Rectángulo 401" width="763.754" height="2.522" transform="matrix(0.707, -0.707, 0.707, 0.707, 0, 540.05)" fill="#4778dc"/>
      </g>
      <g id="Grupo_440" data-name="Grupo 440" transform="translate(-49.737 15.371)">
        <rect id="Rectángulo_402" data-name="Rectángulo 402" width="763.754" height="2.522" transform="matrix(0.707, -0.707, 0.707, 0.707, 0, 540.05)" fill="#4778dc"/>
      </g>
      <g id="Grupo_441" data-name="Grupo 441" transform="translate(-42.498 22.609)">
        <rect id="Rectángulo_403" data-name="Rectángulo 403" width="763.754" height="2.522" transform="matrix(0.707, -0.707, 0.707, 0.707, 0, 540.05)" fill="#4778dc"/>
      </g>
      <g id="Grupo_442" data-name="Grupo 442" transform="translate(-35.261 29.85)">
        <rect id="Rectángulo_404" data-name="Rectángulo 404" width="763.754" height="2.522" transform="matrix(0.707, -0.707, 0.707, 0.707, 0, 540.05)" fill="#4778dc"/>
      </g>
      <g id="Grupo_443" data-name="Grupo 443" transform="translate(-28.022 37.088)">
        <rect id="Rectángulo_405" data-name="Rectángulo 405" width="763.754" height="2.522" transform="matrix(0.707, -0.707, 0.707, 0.707, 0, 540.05)" fill="#4778dc"/>
      </g>
      <g id="Grupo_444" data-name="Grupo 444" transform="translate(-20.782 44.326)">
        <rect id="Rectángulo_406" data-name="Rectángulo 406" width="763.754" height="2.522" transform="matrix(0.707, -0.707, 0.707, 0.707, 0, 540.05)" fill="#4778dc"/>
      </g>
    </g>
  </g>
</svg>
