<svg xmlns="http://www.w3.org/2000/svg" xmlns:xlink="http://www.w3.org/1999/xlink" width="137.007" height="752.341" viewBox="0 0 137.007 752.341">
  <defs>
    <clipPath id="clip-path">
      <rect id="Rectángulo_407" data-name="Rectángulo 407" width="137.007" height="752.34" transform="translate(783.01 643.91)" fill="#4778dc"/>
    </clipPath>
  </defs>
  <g id="rayas_01" transform="translate(-736.713 -643.91)">
    <g id="Grupo_445" data-name="Grupo 445" transform="translate(-46.297)" clip-path="url(#clip-path)">
      <g id="Grupo_393" data-name="Grupo 393" transform="translate(-127.071 -105.821)">
        <rect id="Rectángulo_355" data-name="Rectángulo 355" width="1762.874" height="5.822" transform="matrix(0.707, -0.707, 0.707, 0.707, 0, 1246.528)" fill="#4778dc"/>
      </g>
      <g id="Grupo_394" data-name="Grupo 394" transform="translate(-110.361 -89.114)">
        <rect id="Rectángulo_356" data-name="Rectángulo 356" width="1762.874" height="5.822" transform="matrix(0.707, -0.707, 0.707, 0.707, 0, 1246.528)" fill="#4778dc"/>
      </g>
      <g id="Grupo_395" data-name="Grupo 395" transform="translate(-93.65 -72.408)">
        <rect id="Rectángulo_357" data-name="Rectángulo 357" width="1762.874" height="5.822" transform="matrix(0.707, -0.707, 0.707, 0.707, 0, 1246.528)" fill="#4778dc"/>
      </g>
      <g id="Grupo_396" data-name="Grupo 396" transform="translate(-76.94 -55.701)">
        <rect id="Rectángulo_358" data-name="Rectángulo 358" width="1762.874" height="5.822" transform="matrix(0.707, -0.707, 0.707, 0.707, 0, 1246.528)" fill="#4778dc"/>
      </g>
      <g id="Grupo_397" data-name="Grupo 397" transform="translate(-60.237 -38.986)">
        <rect id="Rectángulo_359" data-name="Rectángulo 359" width="1762.874" height="5.822" transform="matrix(0.707, -0.707, 0.707, 0.707, 0, 1246.528)" fill="#4778dc"/>
      </g>
      <g id="Grupo_398" data-name="Grupo 398" transform="translate(-43.527 -22.28)">
        <rect id="Rectángulo_360" data-name="Rectángulo 360" width="1762.874" height="5.822" transform="matrix(0.707, -0.707, 0.707, 0.707, 0, 1246.528)" fill="#4778dc"/>
      </g>
      <g id="Grupo_399" data-name="Grupo 399" transform="translate(-26.824 -5.581)">
        <rect id="Rectángulo_361" data-name="Rectángulo 361" width="1762.874" height="5.822" transform="matrix(0.707, -0.707, 0.707, 0.707, 0, 1246.528)" fill="#4778dc"/>
      </g>
      <g id="Grupo_400" data-name="Grupo 400" transform="translate(-10.114 11.125)">
        <rect id="Rectángulo_362" data-name="Rectángulo 362" width="1762.874" height="5.822" transform="matrix(0.707, -0.707, 0.707, 0.707, 0, 1246.528)" fill="#4778dc"/>
      </g>
      <g id="Grupo_401" data-name="Grupo 401" transform="translate(6.597 27.832)">
        <rect id="Rectángulo_363" data-name="Rectángulo 363" width="1762.874" height="5.822" transform="matrix(0.707, -0.707, 0.707, 0.707, 0, 1246.528)" fill="#4778dc"/>
      </g>
      <g id="Grupo_402" data-name="Grupo 402" transform="translate(23.307 44.538)">
        <rect id="Rectángulo_364" data-name="Rectángulo 364" width="1762.874" height="5.822" transform="matrix(0.707, -0.707, 0.707, 0.707, 0, 1246.528)" fill="#4778dc"/>
      </g>
      <g id="Grupo_403" data-name="Grupo 403" transform="translate(40.018 61.245)">
        <rect id="Rectángulo_365" data-name="Rectángulo 365" width="1762.874" height="5.822" transform="matrix(0.707, -0.707, 0.707, 0.707, 0, 1246.528)" fill="#4778dc"/>
      </g>
      <g id="Grupo_404" data-name="Grupo 404" transform="translate(56.72 77.96)">
        <rect id="Rectángulo_366" data-name="Rectángulo 366" width="1762.874" height="5.822" transform="matrix(0.707, -0.707, 0.707, 0.707, 0, 1246.528)" fill="#4778dc"/>
      </g>
      <g id="Grupo_405" data-name="Grupo 405" transform="translate(73.43 94.666)">
        <rect id="Rectángulo_367" data-name="Rectángulo 367" width="1762.874" height="5.822" transform="matrix(0.707, -0.707, 0.707, 0.707, 0, 1246.528)" fill="#4778dc"/>
      </g>
      <g id="Grupo_406" data-name="Grupo 406" transform="translate(90.133 111.365)">
        <rect id="Rectángulo_368" data-name="Rectángulo 368" width="1762.874" height="5.822" transform="matrix(0.707, -0.707, 0.707, 0.707, 0, 1246.528)" fill="#4778dc"/>
      </g>
      <g id="Grupo_407" data-name="Grupo 407" transform="translate(106.843 128.071)">
        <rect id="Rectángulo_369" data-name="Rectángulo 369" width="1762.874" height="5.822" transform="matrix(0.707, -0.707, 0.707, 0.707, 0, 1246.528)" fill="#4778dc"/>
      </g>
      <g id="Grupo_408" data-name="Grupo 408" transform="translate(123.554 144.778)">
        <rect id="Rectángulo_370" data-name="Rectángulo 370" width="1762.874" height="5.822" transform="matrix(0.707, -0.707, 0.707, 0.707, 0, 1246.528)" fill="#4778dc"/>
      </g>
      <g id="Grupo_409" data-name="Grupo 409" transform="translate(140.264 161.484)">
        <rect id="Rectángulo_371" data-name="Rectángulo 371" width="1762.874" height="5.822" transform="matrix(0.707, -0.707, 0.707, 0.707, 0, 1246.528)" fill="#4778dc"/>
      </g>
      <g id="Grupo_410" data-name="Grupo 410" transform="translate(156.967 178.199)">
        <rect id="Rectángulo_372" data-name="Rectángulo 372" width="1762.874" height="5.822" transform="matrix(0.707, -0.707, 0.707, 0.707, 0, 1246.528)" fill="#4778dc"/>
      </g>
      <g id="Grupo_411" data-name="Grupo 411" transform="translate(173.677 194.906)">
        <rect id="Rectángulo_373" data-name="Rectángulo 373" width="1762.874" height="5.822" transform="matrix(0.707, -0.707, 0.707, 0.707, 0, 1246.528)" fill="#4778dc"/>
      </g>
      <g id="Grupo_412" data-name="Grupo 412" transform="translate(190.379 211.604)">
        <rect id="Rectángulo_374" data-name="Rectángulo 374" width="1762.874" height="5.822" transform="matrix(0.707, -0.707, 0.707, 0.707, 0, 1246.528)" fill="#4778dc"/>
      </g>
      <g id="Grupo_413" data-name="Grupo 413" transform="translate(207.09 228.311)">
        <rect id="Rectángulo_375" data-name="Rectángulo 375" width="1762.874" height="5.822" transform="matrix(0.707, -0.707, 0.707, 0.707, 0, 1246.528)" fill="#4778dc"/>
      </g>
      <g id="Grupo_414" data-name="Grupo 414" transform="translate(223.8 245.017)">
        <rect id="Rectángulo_376" data-name="Rectángulo 376" width="1762.874" height="5.822" transform="matrix(0.707, -0.707, 0.707, 0.707, 0, 1246.528)" fill="#4778dc"/>
      </g>
      <g id="Grupo_415" data-name="Grupo 415" transform="translate(240.511 261.724)">
        <rect id="Rectángulo_377" data-name="Rectángulo 377" width="1762.874" height="5.822" transform="matrix(0.707, -0.707, 0.707, 0.707, 0, 1246.528)" fill="#4778dc"/>
      </g>
      <g id="Grupo_416" data-name="Grupo 416" transform="translate(257.221 278.43)">
        <rect id="Rectángulo_378" data-name="Rectángulo 378" width="1762.874" height="5.822" transform="matrix(0.707, -0.707, 0.707, 0.707, 0, 1246.528)" fill="#4778dc"/>
      </g>
      <g id="Grupo_417" data-name="Grupo 417" transform="translate(273.924 295.145)">
        <rect id="Rectángulo_379" data-name="Rectángulo 379" width="1762.874" height="5.822" transform="matrix(0.707, -0.707, 0.707, 0.707, 0, 1246.528)" fill="#4778dc"/>
      </g>
      <g id="Grupo_418" data-name="Grupo 418" transform="translate(290.634 311.852)">
        <rect id="Rectángulo_380" data-name="Rectángulo 380" width="1762.874" height="5.822" transform="matrix(0.707, -0.707, 0.707, 0.707, 0, 1246.528)" fill="#4778dc"/>
      </g>
      <g id="Grupo_419" data-name="Grupo 419" transform="translate(307.336 328.55)">
        <rect id="Rectángulo_381" data-name="Rectángulo 381" width="1762.874" height="5.822" transform="matrix(0.707, -0.707, 0.707, 0.707, 0, 1246.528)" fill="#4778dc"/>
      </g>
      <g id="Grupo_420" data-name="Grupo 420" transform="translate(324.047 345.256)">
        <rect id="Rectángulo_382" data-name="Rectángulo 382" width="1762.874" height="5.822" transform="matrix(0.707, -0.707, 0.707, 0.707, 0, 1246.528)" fill="#4778dc"/>
      </g>
      <g id="Grupo_421" data-name="Grupo 421" transform="translate(340.757 361.963)">
        <rect id="Rectángulo_383" data-name="Rectángulo 383" width="1762.874" height="5.822" transform="matrix(0.707, -0.707, 0.707, 0.707, 0, 1246.528)" fill="#4778dc"/>
      </g>
      <g id="Grupo_422" data-name="Grupo 422" transform="translate(357.468 378.67)">
        <rect id="Rectángulo_384" data-name="Rectángulo 384" width="1762.874" height="5.822" transform="matrix(0.707, -0.707, 0.707, 0.707, 0, 1246.528)" fill="#4778dc"/>
      </g>
      <g id="Grupo_423" data-name="Grupo 423" transform="translate(374.17 395.384)">
        <rect id="Rectángulo_385" data-name="Rectángulo 385" width="1762.874" height="5.822" transform="matrix(0.707, -0.707, 0.707, 0.707, 0, 1246.528)" fill="#4778dc"/>
      </g>
      <g id="Grupo_424" data-name="Grupo 424" transform="translate(390.881 412.091)">
        <rect id="Rectángulo_386" data-name="Rectángulo 386" width="1762.874" height="5.822" transform="matrix(0.707, -0.707, 0.707, 0.707, 0, 1246.528)" fill="#4778dc"/>
      </g>
      <g id="Grupo_425" data-name="Grupo 425" transform="translate(407.583 428.789)">
        <rect id="Rectángulo_387" data-name="Rectángulo 387" width="1762.874" height="5.822" transform="matrix(0.707, -0.707, 0.707, 0.707, 0, 1246.528)" fill="#4778dc"/>
      </g>
      <g id="Grupo_426" data-name="Grupo 426" transform="translate(424.293 445.496)">
        <rect id="Rectángulo_388" data-name="Rectángulo 388" width="1762.874" height="5.822" transform="matrix(0.707, -0.707, 0.707, 0.707, 0, 1246.528)" fill="#4778dc"/>
      </g>
      <g id="Grupo_427" data-name="Grupo 427" transform="translate(441.004 462.203)">
        <rect id="Rectángulo_389" data-name="Rectángulo 389" width="1762.874" height="5.822" transform="matrix(0.707, -0.707, 0.707, 0.707, 0, 1246.528)" fill="#4778dc"/>
      </g>
      <g id="Grupo_428" data-name="Grupo 428" transform="translate(457.715 478.909)">
        <rect id="Rectángulo_390" data-name="Rectángulo 390" width="1762.874" height="5.822" transform="matrix(0.707, -0.707, 0.707, 0.707, 0, 1246.528)" fill="#4778dc"/>
      </g>
      <g id="Grupo_429" data-name="Grupo 429" transform="translate(474.417 495.624)">
        <rect id="Rectángulo_391" data-name="Rectángulo 391" width="1762.874" height="5.822" transform="matrix(0.707, -0.707, 0.707, 0.707, 0, 1246.528)" fill="#4778dc"/>
      </g>
      <g id="Grupo_430" data-name="Grupo 430" transform="translate(491.127 512.33)">
        <rect id="Rectángulo_392" data-name="Rectángulo 392" width="1762.874" height="5.822" transform="matrix(0.707, -0.707, 0.707, 0.707, 0, 1246.528)" fill="#4778dc"/>
      </g>
      <g id="Grupo_431" data-name="Grupo 431" transform="translate(507.838 529.037)">
        <rect id="Rectángulo_393" data-name="Rectángulo 393" width="1762.874" height="5.822" transform="matrix(0.707, -0.707, 0.707, 0.707, 0, 1246.528)" fill="#4778dc"/>
      </g>
      <g id="Grupo_432" data-name="Grupo 432" transform="translate(524.54 545.736)">
        <rect id="Rectángulo_394" data-name="Rectángulo 394" width="1762.874" height="5.822" transform="matrix(0.707, -0.707, 0.707, 0.707, 0, 1246.528)" fill="#4778dc"/>
      </g>
      <g id="Grupo_433" data-name="Grupo 433" transform="translate(541.251 562.442)">
        <rect id="Rectángulo_395" data-name="Rectángulo 395" width="1762.874" height="5.822" transform="matrix(0.707, -0.707, 0.707, 0.707, 0, 1246.528)" fill="#4778dc"/>
      </g>
      <g id="Grupo_434" data-name="Grupo 434" transform="translate(557.961 579.149)">
        <rect id="Rectángulo_396" data-name="Rectángulo 396" width="1762.874" height="5.822" transform="matrix(0.707, -0.707, 0.707, 0.707, 0, 1246.528)" fill="#4778dc"/>
      </g>
      <g id="Grupo_435" data-name="Grupo 435" transform="translate(574.672 595.855)">
        <rect id="Rectángulo_397" data-name="Rectángulo 397" width="1762.874" height="5.822" transform="matrix(0.707, -0.707, 0.707, 0.707, 0, 1246.528)" fill="#4778dc"/>
      </g>
      <g id="Grupo_436" data-name="Grupo 436" transform="translate(591.374 612.57)">
        <rect id="Rectángulo_398" data-name="Rectángulo 398" width="1762.874" height="5.822" transform="matrix(0.707, -0.707, 0.707, 0.707, 0, 1246.528)" fill="#4778dc"/>
      </g>
      <g id="Grupo_437" data-name="Grupo 437" transform="translate(608.085 629.277)">
        <rect id="Rectángulo_399" data-name="Rectángulo 399" width="1762.874" height="5.822" transform="matrix(0.707, -0.707, 0.707, 0.707, 0, 1246.528)" fill="#4778dc"/>
      </g>
      <g id="Grupo_438" data-name="Grupo 438" transform="translate(624.787 645.975)">
        <rect id="Rectángulo_400" data-name="Rectángulo 400" width="1762.874" height="5.822" transform="matrix(0.707, -0.707, 0.707, 0.707, 0, 1246.528)" fill="#4778dc"/>
      </g>
      <g id="Grupo_439" data-name="Grupo 439" transform="translate(641.497 662.681)">
        <rect id="Rectángulo_401" data-name="Rectángulo 401" width="1762.874" height="5.822" transform="matrix(0.707, -0.707, 0.707, 0.707, 0, 1246.528)" fill="#4778dc"/>
      </g>
      <g id="Grupo_440" data-name="Grupo 440" transform="translate(658.208 679.388)">
        <rect id="Rectángulo_402" data-name="Rectángulo 402" width="1762.874" height="5.822" transform="matrix(0.707, -0.707, 0.707, 0.707, 0, 1246.528)" fill="#4778dc"/>
      </g>
      <g id="Grupo_441" data-name="Grupo 441" transform="translate(674.918 696.095)">
        <rect id="Rectángulo_403" data-name="Rectángulo 403" width="1762.874" height="5.822" transform="matrix(0.707, -0.707, 0.707, 0.707, 0, 1246.528)" fill="#4778dc"/>
      </g>
      <g id="Grupo_442" data-name="Grupo 442" transform="translate(691.621 712.809)">
        <rect id="Rectángulo_404" data-name="Rectángulo 404" width="1762.874" height="5.822" transform="matrix(0.707, -0.707, 0.707, 0.707, 0, 1246.528)" fill="#4778dc"/>
      </g>
      <g id="Grupo_443" data-name="Grupo 443" transform="translate(708.331 729.516)">
        <rect id="Rectángulo_405" data-name="Rectángulo 405" width="1762.874" height="5.822" transform="matrix(0.707, -0.707, 0.707, 0.707, 0, 1246.528)" fill="#4778dc"/>
      </g>
      <g id="Grupo_444" data-name="Grupo 444" transform="translate(725.042 746.222)">
        <rect id="Rectángulo_406" data-name="Rectángulo 406" width="1762.874" height="5.822" transform="matrix(0.707, -0.707, 0.707, 0.707, 0, 1246.528)" fill="#4778dc"/>
      </g>
    </g>
  </g>
</svg>
