<svg xmlns="http://www.w3.org/2000/svg" xmlns:xlink="http://www.w3.org/1999/xlink" width="1920" height="499.154" viewBox="0 0 1920 499.154">
  <defs>
    <clipPath id="clip-path">
      <rect id="Rectángulo_407" data-name="Rectángulo 407" width="127.26" height="187.489" transform="translate(0 15)" fill="#fc8422"/>
    </clipPath>
  </defs>
  <g id="XQ_LEXLOGOS_" data-name="XQ LEXLOGOS?" transform="translate(0 -3518.846)">
    <path id="base" d="M0,0H1920V498H0Z" transform="translate(0 3520)" fill="#fafafa"/>
    <g id="ic_globotxt" transform="translate(941.535 3518.85)">
      <g id="XMLID_1_">
        <g id="Grupo_51" data-name="Grupo 51">
          <path id="Trazado_78" data-name="Trazado 78" d="M35.77,4.62V23.08a3.455,3.455,0,0,1-3.46,3.46H23.08l-4.62,4.62-4.62-4.62H4.62a3.455,3.455,0,0,1-3.46-3.46V4.62A3.455,3.455,0,0,1,4.62,1.16h27.7A3.446,3.446,0,0,1,35.77,4.62Z" fill="#fc8422"/>
        </g>
        <g id="Grupo_52" data-name="Grupo 52">
          <path id="Trazado_79" data-name="Trazado 79" d="M32.31,1.15a3.455,3.455,0,0,1,3.46,3.46V23.07a3.455,3.455,0,0,1-3.46,3.46H23.08l-4.62,4.62-4.62-4.62H4.62a3.455,3.455,0,0,1-3.46-3.46V4.62A3.455,3.455,0,0,1,4.62,1.16H32.31Z" fill="none" stroke="#4d4e4e" stroke-linecap="round" stroke-linejoin="round" stroke-miterlimit="10" stroke-width="2.308"/>
        </g>
      </g>
      <line id="Línea_13" data-name="Línea 13" x2="13.84" transform="translate(8.08 8.08)" fill="none" stroke="#4d4e4e" stroke-linecap="round" stroke-linejoin="round" stroke-miterlimit="10" stroke-width="2.308"/>
      <line id="Línea_14" data-name="Línea 14" x2="13.84" transform="translate(8.08 13.85)" fill="none" stroke="#4d4e4e" stroke-linecap="round" stroke-linejoin="round" stroke-miterlimit="10" stroke-width="2.308"/>
      <line id="Línea_15" data-name="Línea 15" x2="20.77" transform="translate(8.08 19.62)" fill="none" stroke="#4d4e4e" stroke-linecap="round" stroke-linejoin="round" stroke-miterlimit="10" stroke-width="2.308"/>
    </g>
    <text id="Traducimos_de_cualquier_idioma_a_todas_las_variantes_del_español." data-name="Traducimos de cualquier idioma a todas las variantes del español." transform="translate(137 3829)" fill="#4d4d4d" font-size="15" font-family="OpenSans-Light, Open Sans" font-weight="300"><tspan x="6.057" y="16">Traducimos de cualquier idioma a </tspan><tspan x="15.037" y="36">todas las variantes del español.</tspan></text>
    <g id="ic_dif_01" transform="translate(205.33 3710.33)">
      <g id="Grupo_450" data-name="Grupo 450">
        <g id="XMLID_2_">
          <g id="Grupo_448" data-name="Grupo 448">
            <path id="Trazado_99" data-name="Trazado 99" d="M52.01,6.7V33.55a5.021,5.021,0,0,1-5.03,5.03H33.55l-6.71,6.71-6.71-6.71H6.7a5.021,5.021,0,0,1-5.03-5.03V6.7A5.021,5.021,0,0,1,6.7,1.67H46.98A5.021,5.021,0,0,1,52.01,6.7Z" fill="#fc8422"/>
          </g>
          <g id="Grupo_449" data-name="Grupo 449">
            <path id="Trazado_100" data-name="Trazado 100" d="M46.98,1.67A5.021,5.021,0,0,1,52.01,6.7V33.55a5.021,5.021,0,0,1-5.03,5.03H33.55l-6.71,6.71-6.71-6.71H6.7a5.021,5.021,0,0,1-5.03-5.03V6.7A5.021,5.021,0,0,1,6.7,1.67H46.98Z" fill="none" stroke="#4d4d4d" stroke-linecap="round" stroke-linejoin="round" stroke-miterlimit="10" stroke-width="3.333"/>
          </g>
        </g>
        <line id="Línea_16" data-name="Línea 16" x2="20.14" transform="translate(11.74 11.74)" fill="none" stroke="#4d4d4d" stroke-linecap="round" stroke-linejoin="round" stroke-miterlimit="10" stroke-width="3.333"/>
        <line id="Línea_17" data-name="Línea 17" x2="20.14" transform="translate(11.74 20.13)" fill="none" stroke="#4d4d4d" stroke-linecap="round" stroke-linejoin="round" stroke-miterlimit="10" stroke-width="3.333"/>
        <line id="Línea_18" data-name="Línea 18" x2="30.2" transform="translate(11.74 28.52)" fill="none" stroke="#4d4d4d" stroke-linecap="round" stroke-linejoin="round" stroke-miterlimit="10" stroke-width="3.333"/>
      </g>
      <g id="Grupo_453" data-name="Grupo 453">
        <g id="XMLID_1_2" data-name="XMLID_1_">
          <g id="Grupo_451" data-name="Grupo 451">
            <path id="Trazado_101" data-name="Trazado 101" d="M101.67,56.35V83.2a5.021,5.021,0,0,1-5.03,5.03H83.21L76.5,94.94l-6.71-6.71H56.35a5.021,5.021,0,0,1-5.03-5.03V56.35a5.021,5.021,0,0,1,5.03-5.03H96.63A5.03,5.03,0,0,1,101.67,56.35Z" fill="#fc8422"/>
          </g>
          <g id="Grupo_452" data-name="Grupo 452">
            <path id="Trazado_102" data-name="Trazado 102" d="M96.63,51.32a5.021,5.021,0,0,1,5.03,5.03V83.2a5.021,5.021,0,0,1-5.03,5.03H83.21L76.5,94.94l-6.71-6.71H56.35a5.021,5.021,0,0,1-5.03-5.03V56.35a5.021,5.021,0,0,1,5.03-5.03H96.63Z" fill="none" stroke="#4d4d4d" stroke-linecap="round" stroke-linejoin="round" stroke-miterlimit="10" stroke-width="3.333"/>
          </g>
        </g>
        <line id="Línea_19" data-name="Línea 19" x2="20.14" transform="translate(61.39 61.39)" fill="none" stroke="#4d4d4d" stroke-linecap="round" stroke-linejoin="round" stroke-miterlimit="10" stroke-width="3.333"/>
        <line id="Línea_20" data-name="Línea 20" x2="20.14" transform="translate(61.39 69.78)" fill="none" stroke="#4d4d4d" stroke-linecap="round" stroke-linejoin="round" stroke-miterlimit="10" stroke-width="3.333"/>
        <line id="Línea_21" data-name="Línea 21" x2="30.21" transform="translate(61.39 78.17)" fill="none" stroke="#4d4d4d" stroke-linecap="round" stroke-linejoin="round" stroke-miterlimit="10" stroke-width="3.333"/>
      </g>
      <g id="Grupo_454" data-name="Grupo 454">
        <path id="Trazado_103" data-name="Trazado 103" d="M70.48,11.74l-5.04,5.03,5.04,5.04" fill="none" stroke="#4d4d4d" stroke-linecap="round" stroke-linejoin="round" stroke-miterlimit="10" stroke-width="3.333"/>
        <path id="Trazado_104" data-name="Trazado 104" d="M65.44,16.77H78.87s5.03,0,5.03,5.03V35.23" fill="none" stroke="#4d4d4d" stroke-linecap="round" stroke-linejoin="round" stroke-miterlimit="10" stroke-width="3.333"/>
      </g>
      <g id="Grupo_455" data-name="Grupo 455">
        <path id="Trazado_105" data-name="Trazado 105" d="M30.2,88.94l5.03-5.04L30.2,78.87" fill="none" stroke="#4d4d4d" stroke-linecap="round" stroke-linejoin="round" stroke-miterlimit="10" stroke-width="3.333"/>
        <path id="Trazado_106" data-name="Trazado 106" d="M35.23,83.9H21.81s-5.03,0-5.03-5.03V68.8" fill="none" stroke="#4d4d4d" stroke-linecap="round" stroke-linejoin="round" stroke-miterlimit="10" stroke-width="3.333"/>
      </g>
    </g>
    <text id="Tenemos_un_trato_personalizado_con_nuestros_clientes_y_los_acompañamos_en_cada_etapa_de_su_desarrollo_profesional." data-name="Tenemos un trato personalizado con nuestros clientes y los acompañamos en cada etapa de su desarrollo profesional." transform="translate(418 3829)" fill="#4d4d4d" font-size="15" font-family="OpenSans-Light, Open Sans" font-weight="300"><tspan x="10.437" y="16">Tenemos un trato personalizado </tspan><tspan x="31.406" y="36">con nuestros clientes y los </tspan><tspan x="0.311" y="56">acompañamos en cada etapa de su </tspan><tspan x="44.385" y="76">desarrollo profesional.</tspan></text>
    <g id="Grupo_704" data-name="Grupo 704" transform="translate(485.334 3712.333)">
      <g id="Grupo_698" data-name="Grupo 698">
        <path id="Trazado_623" data-name="Trazado 623" d="M78.87,2.5a25.593,25.593,0,0,1,25.18,26.01c-.52,31.99-52.23,63.16-52.23,63.16S1.15,58.84,1.67,26.85a25.6,25.6,0,1,1,51.19.83A25.593,25.593,0,0,1,78.87,2.5Z" fill="#fc8422"/>
      </g>
      <g id="Grupo_702" data-name="Grupo 702">
        <g id="XMLID_2_2" data-name="XMLID_2_">
          <g id="Grupo_699" data-name="Grupo 699">
            <path id="Trazado_624" data-name="Trazado 624" d="M51.82,91.67,27.05,71.92l.46-28.28A11.149,11.149,0,0,1,38.84,32.67l5.57.09,8.23,8.5,8.5-8.23,5.57.09A11.149,11.149,0,0,1,77.68,44.45l-.09,5.57-.36,22.53Z" fill="#fff"/>
          </g>
        </g>
        <g id="Grupo_701" data-name="Grupo 701">
          <g id="XMLID_1_3" data-name="XMLID_1_">
            <g id="Grupo_700" data-name="Grupo 700">
              <path id="Trazado_625" data-name="Trazado 625" d="M27.07,70.98l.44-27.34A11.149,11.149,0,0,1,38.84,32.67l5.57.09,8.23,8.5,8.5-8.23,5.57.09A11.149,11.149,0,0,1,77.68,44.45l-.44,27.34" fill="none" stroke="#4d4d4d" stroke-linecap="round" stroke-linejoin="round" stroke-miterlimit="10" stroke-width="3.33"/>
              <path id="Trazado_626" data-name="Trazado 626" d="M38.57,49.39l-.2,12.36-.3,18.31" fill="none" stroke="#4d4d4d" stroke-linecap="round" stroke-linejoin="round" stroke-miterlimit="10" stroke-width="3.33"/>
              <path id="Trazado_627" data-name="Trazado 627" d="M65.94,80.51l.3-18.31.2-12.36" fill="none" stroke="#4d4d4d" stroke-linecap="round" stroke-linejoin="round" stroke-miterlimit="10" stroke-width="3.33"/>
            </g>
          </g>
        </g>
      </g>
      <g id="Grupo_703" data-name="Grupo 703">
        <path id="Trazado_628" data-name="Trazado 628" d="M78.87,2.5a25.593,25.593,0,0,1,25.18,26.01c-.52,31.99-52.23,63.16-52.23,63.16S1.15,58.84,1.67,26.85a25.6,25.6,0,1,1,51.19.83A25.593,25.593,0,0,1,78.87,2.5Z" fill="none" stroke="#4d4d4d" stroke-linecap="round" stroke-linejoin="round" stroke-miterlimit="10" stroke-width="3.33"/>
      </g>
      <circle id="Elipse_46" data-name="Elipse 46" cx="11.15" cy="11.15" r="11.15" transform="translate(41.88 6.11)" stroke-width="3.33" stroke="#4d4d4d" stroke-linecap="round" stroke-linejoin="round" stroke-miterlimit="10" fill="#fff"/>
    </g>
    <text id="Evaluamos_cada_proyecto_en_detalle_para_asignarlo_al_traductor_especializado." data-name="Evaluamos cada proyecto en detalle para asignarlo al traductor especializado." transform="translate(699 3829)" fill="#4d4d4d" font-size="15" font-family="OpenSans-Light, Open Sans" font-weight="300"><tspan x="23.679" y="16">Evaluamos cada proyecto en </tspan><tspan x="6.464" y="36">detalle para asignarlo al traductor </tspan><tspan x="73.114" y="56">especializado.</tspan></text>
    <g id="ic_dif_03" transform="translate(772.33 3711.34)">
      <g id="Grupo_473" data-name="Grupo 473">
        <path id="Trazado_115" data-name="Trazado 115" d="M23.59,35.54v7.97A2,2,0,0,1,21.6,45.5H13.63a2,2,0,0,1-1.99-1.99V35.54a2,2,0,0,1,1.99-1.99H21.6A2,2,0,0,1,23.59,35.54Z" fill="#f1f2f2"/>
        <path id="Trazado_116" data-name="Trazado 116" d="M23.59,13.62v7.97a2,2,0,0,1-1.99,1.99H13.63a2,2,0,0,1-1.99-1.99V13.62a2,2,0,0,1,1.99-1.99H21.6A2,2,0,0,1,23.59,13.62Z" fill="#f1f2f2"/>
        <path id="Trazado_117" data-name="Trazado 117" d="M89.35,45.51V49.5a2,2,0,0,1-1.99,1.99H79.39V43.52h7.97A1.989,1.989,0,0,1,89.35,45.51Z" fill="#d0d7df"/>
        <path id="Trazado_118" data-name="Trazado 118" d="M79.38,43.51v7.98H39.53L31.56,47.5l7.97-3.99H79.38Z" fill="#fc8422"/>
        <path id="Trazado_119" data-name="Trazado 119" d="M19.6,61.45H69.42a15.94,15.94,0,1,1,0,31.88H17.61a15.941,15.941,0,0,0,1.97-31.76Z" fill="#a4b0c0"/>
        <path id="Trazado_120" data-name="Trazado 120" d="M19.58,61.57A15.941,15.941,0,1,1,1.67,77.39V5.65s0-3.99,3.99-3.99h55.8s3.99,0,3.99,3.99V43.51H39.53L31.56,47.5l7.97,3.99H65.44v9.96H19.6Zm4.01-18.06V35.54a2,2,0,0,0-1.99-1.99H13.63a2,2,0,0,0-1.99,1.99v7.97a2,2,0,0,0,1.99,1.99H21.6A1.989,1.989,0,0,0,23.59,43.51Zm0-21.92V13.62a2,2,0,0,0-1.99-1.99H13.63a2,2,0,0,0-1.99,1.99v7.97a2,2,0,0,0,1.99,1.99H21.6A1.989,1.989,0,0,0,23.59,21.59Z" fill="#d0d7df"/>
      </g>
      <g id="Grupo_474" data-name="Grupo 474">
        <path id="Trazado_121" data-name="Trazado 121" d="M17.61,61.45A15.94,15.94,0,1,1,1.67,77.39V5.65s0-3.99,3.99-3.99h55.8s3.99,0,3.99,3.99V35.54" fill="none" stroke="#474c54" stroke-linecap="round" stroke-linejoin="round" stroke-miterlimit="10" stroke-width="3.333"/>
        <path id="Trazado_122" data-name="Trazado 122" d="M19.6,61.45H69.42a15.94,15.94,0,1,1,0,31.88H17.61" fill="none" stroke="#474c54" stroke-linecap="round" stroke-linejoin="round" stroke-miterlimit="10" stroke-width="3.333"/>
        <path id="Trazado_123" data-name="Trazado 123" d="M65.43,51.49H39.53L31.56,47.5l7.97-3.99H87.36a2,2,0,0,1,1.99,1.99v3.99a2,2,0,0,1-1.99,1.99H65.43Z" fill="#fc8422" stroke="#474c54" stroke-linecap="round" stroke-linejoin="round" stroke-miterlimit="10" stroke-width="3.333"/>
        <line id="Línea_24" data-name="Línea 24" y1="7.98" transform="translate(79.38 43.51)" fill="none" stroke="#474c54" stroke-linecap="round" stroke-linejoin="round" stroke-miterlimit="10" stroke-width="3.333"/>
        <path id="Trazado_124" data-name="Trazado 124" d="M11.63,21.59a2,2,0,0,0,1.99,1.99h7.97a2,2,0,0,0,1.99-1.99V13.62a2,2,0,0,0-1.99-1.99H13.62a2,2,0,0,0-1.99,1.99v7.97Z" fill="none" stroke="#474c54" stroke-linecap="round" stroke-linejoin="round" stroke-miterlimit="10" stroke-width="3.333"/>
        <path id="Trazado_125" data-name="Trazado 125" d="M11.63,43.51a2,2,0,0,0,1.99,1.99h7.97a2,2,0,0,0,1.99-1.99V35.54a2,2,0,0,0-1.99-1.99H13.62a2,2,0,0,0-1.99,1.99v7.97Z" fill="none" stroke="#474c54" stroke-linecap="round" stroke-linejoin="round" stroke-miterlimit="10" stroke-width="3.333"/>
        <line id="Línea_25" data-name="Línea 25" x2="3.98" transform="translate(31.56 13.62)" fill="none" stroke="#474c54" stroke-linecap="round" stroke-linejoin="round" stroke-miterlimit="10" stroke-width="3.333"/>
        <line id="Línea_26" data-name="Línea 26" x2="3.99" transform="translate(43.51 13.62)" fill="none" stroke="#474c54" stroke-linecap="round" stroke-linejoin="round" stroke-miterlimit="10" stroke-width="3.333"/>
        <line id="Línea_27" data-name="Línea 27" x2="3.98" transform="translate(31.56 33.55)" fill="none" stroke="#474c54" stroke-linecap="round" stroke-linejoin="round" stroke-miterlimit="10" stroke-width="3.333"/>
        <line id="Línea_28" data-name="Línea 28" x2="3.99" transform="translate(43.51 33.55)" fill="none" stroke="#474c54" stroke-linecap="round" stroke-linejoin="round" stroke-miterlimit="10" stroke-width="3.333"/>
        <line id="Línea_29" data-name="Línea 29" x2="23.91" transform="translate(31.56 21.59)" fill="none" stroke="#474c54" stroke-linecap="round" stroke-linejoin="round" stroke-miterlimit="10" stroke-width="3.333"/>
      </g>
    </g>
    <text id="Ofrecemos_calidad_a_tarifas_altamente_competitivas." data-name="Ofrecemos calidad a tarifas altamente competitivas." transform="translate(980 3829)" fill="#4d4d4d" font-size="15" font-family="OpenSans-Light, Open Sans" font-weight="300"><tspan x="28.334" y="16">Ofrecemos calidad a tarifas </tspan><tspan x="39.84" y="36">altamente competitivas.</tspan></text>
    <g id="ic_dif_04" transform="translate(1043.33 3712.33)">
      <g id="Grupo_485" data-name="Grupo 485">
        <g id="Grupo_475" data-name="Grupo 475">
          <path id="Trazado_126" data-name="Trazado 126" d="M79.46,36.56H66.77a6.342,6.342,0,0,1-6.34-6.34V17.53Z" fill="#d0d7df"/>
          <path id="Trazado_127" data-name="Trazado 127" d="M79.46,36.56V84.14a6.342,6.342,0,0,1-6.34,6.34H19.2c-6.34,0-6.34-6.34-6.34-6.34V23.87a6.342,6.342,0,0,1,6.34-6.34H60.43V30.22a6.342,6.342,0,0,0,6.34,6.34H79.46Z" fill="#a4b0c0"/>
        </g>
        <g id="Grupo_484" data-name="Grupo 484">
          <g id="Grupo_483" data-name="Grupo 483">
            <g id="Grupo_482" data-name="Grupo 482">
              <g id="Grupo_481" data-name="Grupo 481">
                <g id="Grupo_480" data-name="Grupo 480">
                  <g id="Grupo_479" data-name="Grupo 479">
                    <g id="Grupo_478" data-name="Grupo 478">
                      <g id="Grupo_477" data-name="Grupo 477">
                        <g id="Grupo_476" data-name="Grupo 476">
                          <path id="Trazado_128" data-name="Trazado 128" d="M60.43,17.53V30.22a6.342,6.342,0,0,0,6.34,6.34h3.17" fill="none" stroke="#474c54" stroke-linecap="round" stroke-linejoin="round" stroke-miterlimit="10" stroke-width="3.333"/>
                          <path id="Trazado_129" data-name="Trazado 129" d="M73.12,90.48a6.342,6.342,0,0,0,6.34-6.34V36.56L60.43,17.53H19.2a6.342,6.342,0,0,0-6.34,6.34V84.13s0,6.34,6.34,6.34H73.12Z" fill="none" stroke="#474c54" stroke-linecap="round" stroke-linejoin="round" stroke-miterlimit="10" stroke-width="3.333"/>
                        </g>
                      </g>
                    </g>
                  </g>
                </g>
              </g>
            </g>
          </g>
        </g>
      </g>
      <g id="Grupo_491" data-name="Grupo 491">
        <g id="Grupo_490" data-name="Grupo 490">
          <g id="Grupo_489" data-name="Grupo 489">
            <g id="Grupo_488" data-name="Grupo 488">
              <g id="XMLID_3_">
                <g id="Grupo_486" data-name="Grupo 486">
                  <circle id="Elipse_16" data-name="Elipse 16" cx="20.62" cy="20.62" r="20.62" transform="translate(22.21 41.31)" fill="#fc8422"/>
                </g>
                <g id="Grupo_487" data-name="Grupo 487">
                  <circle id="Elipse_17" data-name="Elipse 17" cx="20.62" cy="20.62" r="20.62" transform="translate(22.21 41.31)" stroke-width="3.333" stroke="#4d4d4d" stroke-linecap="round" stroke-linejoin="round" stroke-miterlimit="10" fill="none"/>
                </g>
              </g>
            </g>
            <path id="Trazado_130" data-name="Trazado 130" d="M49.17,57.17V55.58A3.171,3.171,0,0,0,46,52.41H39.66a3.171,3.171,0,0,0-3.17,3.17v3.17a3.171,3.171,0,0,0,3.17,3.17h3.17" fill="none" stroke="#4d4d4d" stroke-linecap="round" stroke-linejoin="round" stroke-miterlimit="10" stroke-width="3.333"/>
            <path id="Trazado_131" data-name="Trazado 131" d="M36.48,66.69v1.59a3.171,3.171,0,0,0,3.17,3.17H46a3.171,3.171,0,0,0,3.17-3.17V65.1A3.171,3.171,0,0,0,46,61.93H42.83" fill="none" stroke="#4d4d4d" stroke-linecap="round" stroke-linejoin="round" stroke-miterlimit="10" stroke-width="3.333"/>
            <line id="Línea_30" data-name="Línea 30" y1="3.18" transform="translate(42.83 49.24)" fill="none" stroke="#4d4d4d" stroke-linecap="round" stroke-linejoin="round" stroke-miterlimit="10" stroke-width="3.333"/>
            <line id="Línea_31" data-name="Línea 31" y1="3.17" transform="translate(42.83 71.45)" fill="none" stroke="#4d4d4d" stroke-linecap="round" stroke-linejoin="round" stroke-miterlimit="10" stroke-width="3.333"/>
          </g>
        </g>
      </g>
      <g id="Grupo_495" data-name="Grupo 495">
        <g id="Grupo_494" data-name="Grupo 494">
          <g id="XMLID_2_3" data-name="XMLID_2_">
            <g id="Grupo_492" data-name="Grupo 492">
              <circle id="Elipse_18" data-name="Elipse 18" cx="15.86" cy="15.86" r="15.86" transform="translate(1.67 1.67)" fill="#f1f2f2"/>
            </g>
            <g id="Grupo_493" data-name="Grupo 493">
              <circle id="Elipse_19" data-name="Elipse 19" cx="15.86" cy="15.86" r="15.86" transform="translate(1.67 1.67)" stroke-width="3.333" stroke="#474c54" stroke-linecap="round" stroke-linejoin="round" stroke-miterlimit="10" fill="none"/>
            </g>
          </g>
          <path id="Trazado_132" data-name="Trazado 132" d="M11.18,20.7l3.17,3.17,11.11-11.1" fill="none" stroke="#474c54" stroke-linecap="round" stroke-linejoin="round" stroke-miterlimit="10" stroke-width="3.333"/>
        </g>
      </g>
      <g id="Grupo_498" data-name="Grupo 498">
        <g id="XMLID_1_4" data-name="XMLID_1_">
          <g id="Grupo_496" data-name="Grupo 496">
            <path id="Trazado_133" data-name="Trazado 133" d="M101.67,77.79v7.93c0,2.63-4.96,4.76-11.1,4.76s-11.1-2.13-11.1-4.76V77.79c0,2.63,4.96,4.76,11.1,4.76S101.67,80.42,101.67,77.79Z" fill="#fc8422"/>
            <path id="Trazado_134" data-name="Trazado 134" d="M79.46,69.86v7.93c0,2.63-4.96,4.76-11.1,4.76s-11.1-2.13-11.1-4.76V69.86c0,2.63,4.96,4.76,11.1,4.76S79.46,72.49,79.46,69.86Z" fill="#fc8422"/>
            <ellipse id="Elipse_20" data-name="Elipse 20" cx="11.1" cy="4.76" rx="11.1" ry="4.76" transform="translate(79.47 65.1)" fill="#fc8422"/>
            <path id="Trazado_135" data-name="Trazado 135" d="M68.36,58.76c6.14,0,11.1-2.13,11.1-4.76v7.93c0,2.63-4.96,4.76-11.1,4.76s-11.1-2.13-11.1-4.76V54C57.26,56.63,62.23,58.76,68.36,58.76Z" fill="#fc8422"/>
            <ellipse id="Elipse_21" data-name="Elipse 21" cx="11.1" cy="4.76" rx="11.1" ry="4.76" transform="translate(57.26 49.24)" fill="#fc8422"/>
            <path id="Trazado_136" data-name="Trazado 136" d="M79.46,61.93v7.93c0,2.63-4.96,4.76-11.1,4.76s-11.1-2.13-11.1-4.76V61.93c0,2.63,4.96,4.76,11.1,4.76S79.46,64.56,79.46,61.93Z" fill="#fc8422"/>
            <path id="Trazado_137" data-name="Trazado 137" d="M90.57,74.62c6.14,0,11.1-2.13,11.1-4.76v7.93c0,2.63-4.96,4.76-11.1,4.76s-11.1-2.13-11.1-4.76V69.86C79.46,72.49,84.43,74.62,90.57,74.62Z" fill="#fc8422"/>
            <path id="Trazado_138" data-name="Trazado 138" d="M79.46,77.79v7.93c0,2.63-4.96,4.76-11.1,4.76s-11.1-2.13-11.1-4.76V77.79c0,2.63,4.96,4.76,11.1,4.76S79.46,80.42,79.46,77.79Z" fill="#fc8422"/>
          </g>
          <g id="Grupo_497" data-name="Grupo 497">
            <ellipse id="Elipse_22" data-name="Elipse 22" cx="11.1" cy="4.76" rx="11.1" ry="4.76" transform="translate(57.26 49.24)" fill="none" stroke="#474c54" stroke-linecap="round" stroke-linejoin="round" stroke-miterlimit="10" stroke-width="3.333"/>
            <path id="Trazado_139" data-name="Trazado 139" d="M79.46,69.86c0,2.63-4.96,4.76-11.1,4.76s-11.1-2.13-11.1-4.76" fill="none" stroke="#474c54" stroke-linecap="round" stroke-linejoin="round" stroke-miterlimit="10" stroke-width="3.333"/>
            <path id="Trazado_140" data-name="Trazado 140" d="M79.46,77.79c0,2.63-4.96,4.76-11.1,4.76s-11.1-2.13-11.1-4.76" fill="none" stroke="#474c54" stroke-linecap="round" stroke-linejoin="round" stroke-miterlimit="10" stroke-width="3.333"/>
            <path id="Trazado_141" data-name="Trazado 141" d="M79.46,69.86V54" fill="none" stroke="#474c54" stroke-linecap="round" stroke-linejoin="round" stroke-miterlimit="10" stroke-width="3.333"/>
            <path id="Trazado_142" data-name="Trazado 142" d="M57.26,54V85.72c0,2.63,4.96,4.76,11.1,4.76s11.1-2.13,11.1-4.76" fill="none" stroke="#474c54" stroke-linecap="round" stroke-linejoin="round" stroke-miterlimit="10" stroke-width="3.333"/>
            <path id="Trazado_143" data-name="Trazado 143" d="M79.46,61.93c0,2.63-4.96,4.76-11.1,4.76s-11.1-2.13-11.1-4.76" fill="none" stroke="#474c54" stroke-linecap="round" stroke-linejoin="round" stroke-miterlimit="10" stroke-width="3.333"/>
            <ellipse id="Elipse_23" data-name="Elipse 23" cx="11.1" cy="4.76" rx="11.1" ry="4.76" transform="translate(79.47 65.1)" fill="none" stroke="#474c54" stroke-linecap="round" stroke-linejoin="round" stroke-miterlimit="10" stroke-width="3.333"/>
            <path id="Trazado_144" data-name="Trazado 144" d="M79.46,69.86V85.72c0,2.63,4.96,4.76,11.1,4.76s11.1-2.13,11.1-4.76V69.86" fill="none" stroke="#474c54" stroke-linecap="round" stroke-linejoin="round" stroke-miterlimit="10" stroke-width="3.333"/>
            <path id="Trazado_145" data-name="Trazado 145" d="M101.67,77.79c0,2.63-4.96,4.76-11.1,4.76s-11.1-2.13-11.1-4.76" fill="none" stroke="#474c54" stroke-linecap="round" stroke-linejoin="round" stroke-miterlimit="10" stroke-width="3.333"/>
          </g>
        </g>
      </g>
    </g>
    <text id="Todos_nuestros_lingüistas_traducen_únicamente_a_su_idioma_nativo." data-name="Todos nuestros lingüistas traducen únicamente a su idioma nativo." transform="translate(1261 3829)" fill="#4d4d4d" font-size="15" font-family="OpenSans-Light, Open Sans" font-weight="300"><tspan x="1.978" y="16">Todos nuestros lingüistas traducen </tspan><tspan x="15.377" y="36">únicamente a su idioma nativo.</tspan></text>
    <g id="ic_dif_05" transform="translate(1327.33 3707.33)">
      <g id="Grupo_502" data-name="Grupo 502">
        <g id="Grupo_500" data-name="Grupo 500">
          <path id="Trazado_146" data-name="Trazado 146" d="M42.54,18.4V44.69c0,4.78-4.81,4.78-4.81,4.78H30.52V35.12H20.9V49.46H13.69c-4.81,0-4.81-4.78-4.81-4.78V18.4L25.71,1.67Z" fill="#f1f2f2"/>
        </g>
        <g id="Grupo_501" data-name="Grupo 501">
          <path id="Trazado_147" data-name="Trazado 147" d="M1.67,25.56,25.71,1.67,49.76,25.56" fill="none" stroke="#474c54" stroke-linecap="round" stroke-linejoin="round" stroke-miterlimit="10" stroke-width="3.333"/>
          <path id="Trazado_148" data-name="Trazado 148" d="M8.88,18.4V44.69s0,4.78,4.81,4.78H20.9V35.12h9.62V49.46h7.21s4.81,0,4.81-4.78V18.39" fill="none" stroke="#474c54" stroke-linecap="round" stroke-linejoin="round" stroke-miterlimit="10" stroke-width="3.333"/>
          <line id="Línea_32" data-name="Línea 32" x2="4.81" transform="translate(23.31 23.18)" fill="none" stroke="#474c54" stroke-linecap="round" stroke-linejoin="round" stroke-miterlimit="10" stroke-width="3.333"/>
        </g>
      </g>
      <g id="XMLID_2_4" data-name="XMLID_2_">
        <g id="Grupo_503" data-name="Grupo 503">
          <path id="Trazado_149" data-name="Trazado 149" d="M49.79,84.91V86.2s1.3,6.45,6.49,6.45v9.02H80.92V91.35c0-3.87,2.59-3.87,2.59-3.87h7.78c3.89,0,3.89-3.87,3.89-3.87V78.8a6.21,6.21,0,0,1,3.89-1.64,2.53,2.53,0,0,0,2.59-2.58L95.17,62.9V60.4A18.111,18.111,0,0,0,77.01,42.35H69.23c-10.03,0-19.46,8.08-19.46,18.05V84.91Z" fill="#f1f1f1"/>
        </g>
        <g id="Grupo_504" data-name="Grupo 504">
          <path id="Trazado_150" data-name="Trazado 150" d="M49.79,84.91V86.2s1.3,6.45,6.49,6.45v9.02H80.92V91.35c0-3.87,2.59-3.87,2.59-3.87h7.78c3.89,0,3.89-3.87,3.89-3.87V78.8a6.21,6.21,0,0,1,3.89-1.64,2.53,2.53,0,0,0,2.59-2.58L95.17,62.9V60.4A18.111,18.111,0,0,0,77.01,42.35H69.23c-10.03,0-19.46,8.08-19.46,18.05V84.91Z" fill="none" stroke="#474c54" stroke-linecap="round" stroke-linejoin="round" stroke-miterlimit="10" stroke-width="3.333"/>
        </g>
      </g>
      <g id="XMLID_1_5" data-name="XMLID_1_">
        <g id="Grupo_505" data-name="Grupo 505">
          <ellipse id="Elipse_24" data-name="Elipse 24" cx="4.96" cy="4.93" rx="4.96" ry="4.93" transform="translate(49.49 60.28)" fill="#f1f2f2"/>
          <path id="Trazado_151" data-name="Trazado 151" d="M73.06,63.97v2.47a2.484,2.484,0,0,1-2.48,2.47H66.29a13.01,13.01,0,0,1-.84,2l3.04,3.02a2.457,2.457,0,0,1,0,3.49l-1.75,1.74a2.5,2.5,0,0,1-3.51,0l-3.04-3.02a13.12,13.12,0,0,1-2.01.84v4.27a2.484,2.484,0,0,1-2.48,2.47H53.22a2.484,2.484,0,0,1-2.48-2.47V76.98a13.553,13.553,0,0,1-2.01-.84l-3.04,3.02a2.5,2.5,0,0,1-3.51,0l-1.75-1.74a2.457,2.457,0,0,1,0-3.49l3.04-3.02a13.009,13.009,0,0,1-.84-2H38.34a2.484,2.484,0,0,1-2.48-2.47V63.97a2.484,2.484,0,0,1,2.48-2.47h4.29a13.009,13.009,0,0,1,.84-2l-3.04-3.02a2.457,2.457,0,0,1,0-3.49l1.75-1.74a2.5,2.5,0,0,1,3.51,0l3.04,3.02a13.121,13.121,0,0,1,2.01-.84V49.16a2.484,2.484,0,0,1,2.48-2.47H55.7a2.484,2.484,0,0,1,2.48,2.47v4.27a13.552,13.552,0,0,1,2.01.84l3.04-3.02a2.5,2.5,0,0,1,3.51,0L68.48,53a2.457,2.457,0,0,1,0,3.49l-3.04,3.02a13.009,13.009,0,0,1,.84,2h4.29A2.484,2.484,0,0,1,73.06,63.97ZM59.41,65.21a4.96,4.96,0,1,0-4.96,4.93A4.946,4.946,0,0,0,59.41,65.21Z" fill="#fc8422"/>
        </g>
        <g id="Grupo_506" data-name="Grupo 506">
          <path id="Trazado_152" data-name="Trazado 152" d="M70.58,61.51H66.29a13.01,13.01,0,0,0-.84-2l3.04-3.02a2.457,2.457,0,0,0,0-3.49l-1.75-1.74a2.5,2.5,0,0,0-3.51,0l-3.04,3.02a13.121,13.121,0,0,0-2.01-.84V49.17A2.484,2.484,0,0,0,55.7,46.7H53.22a2.484,2.484,0,0,0-2.48,2.47v4.27a13.552,13.552,0,0,0-2.01.84l-3.04-3.02a2.5,2.5,0,0,0-3.51,0L40.42,53a2.457,2.457,0,0,0,0,3.49l3.04,3.02a13.009,13.009,0,0,0-.84,2H38.33a2.484,2.484,0,0,0-2.48,2.47v2.47a2.484,2.484,0,0,0,2.48,2.47h4.29a13.009,13.009,0,0,0,.84,2l-3.04,3.02a2.457,2.457,0,0,0,0,3.49l1.75,1.74a2.5,2.5,0,0,0,3.51,0l3.04-3.02a13.12,13.12,0,0,0,2.01.84v4.27a2.484,2.484,0,0,0,2.48,2.47h2.48a2.484,2.484,0,0,0,2.48-2.47V76.99a13.553,13.553,0,0,0,2.01-.84l3.04,3.02a2.5,2.5,0,0,0,3.51,0l1.75-1.74a2.457,2.457,0,0,0,0-3.49l-3.04-3.02a13.008,13.008,0,0,0,.84-2h4.29a2.484,2.484,0,0,0,2.48-2.47V63.98A2.469,2.469,0,0,0,70.58,61.51Z" fill="none" stroke="#474c54" stroke-linecap="round" stroke-linejoin="round" stroke-miterlimit="10" stroke-width="3.333"/>
          <ellipse id="Elipse_25" data-name="Elipse 25" cx="4.96" cy="4.93" rx="4.96" ry="4.93" transform="translate(49.49 60.28)" fill="none" stroke="#474c54" stroke-linecap="round" stroke-linejoin="round" stroke-miterlimit="10" stroke-width="3.333"/>
        </g>
      </g>
      <g id="Grupo_507" data-name="Grupo 507">
        <path id="Trazado_153" data-name="Trazado 153" d="M71.63,24.64l7.93,7.88,7.92-7.88" fill="none" stroke="#474c54" stroke-linecap="round" stroke-linejoin="round" stroke-miterlimit="10" stroke-width="3.333"/>
        <path id="Trazado_154" data-name="Trazado 154" d="M79.56,32.52V14.79s0-5.91-5.95-5.91H57.75" fill="none" stroke="#474c54" stroke-linecap="round" stroke-linejoin="round" stroke-miterlimit="10" stroke-width="3.333"/>
      </g>
      <g id="Grupo_508" data-name="Grupo 508">
        <path id="Trazado_155" data-name="Trazado 155" d="M24.54,80.55l-7.93-7.88L8.69,80.55" fill="none" stroke="#474c54" stroke-linecap="round" stroke-linejoin="round" stroke-miterlimit="10" stroke-width="3.333"/>
        <path id="Trazado_156" data-name="Trazado 156" d="M16.61,72.67V90.4s0,5.91,5.95,5.91H38.42" fill="none" stroke="#474c54" stroke-linecap="round" stroke-linejoin="round" stroke-miterlimit="10" stroke-width="3.333"/>
      </g>
    </g>
    <text id="Los_proyectos_son_revisados_por_un_segundo_traductor_y_pasan_por_un_proceso_de_control_de_calidad_antes_de_cada_entrega." data-name="Los proyectos son revisados por un segundo traductor y pasan por un proceso de control de calidad antes de cada entrega." transform="translate(1542 3829)" fill="#4d4d4d" font-size="15" font-family="OpenSans-Light, Open Sans" font-weight="300"><tspan x="0.293" y="16">Los proyectos son revisados por un </tspan><tspan x="4.944" y="36">segundo traductor y pasan por un </tspan><tspan x="19.969" y="56">proceso de control de calidad </tspan><tspan x="43.315" y="76">antes de cada entrega.</tspan></text>
    <g id="ic_dif_06" transform="translate(1610.33 3708.33)">
      <g id="Grupo_512" data-name="Grupo 512" transform="translate(0 10)">
        <g id="XMLID_1_6" data-name="XMLID_1_">
          <g id="Grupo_510" data-name="Grupo 510">
            <circle id="Elipse_26" data-name="Elipse 26" cx="5.88" cy="5.88" r="5.88" transform="translate(73.72 61.16)" fill="#f1f2f2"/>
            <path id="Trazado_157" data-name="Trazado 157" d="M101.67,65.57v2.94a2.945,2.945,0,0,1-2.94,2.94H93.64a14.613,14.613,0,0,1-1,2.38l3.6,3.6a2.939,2.939,0,0,1,0,4.16l-2.07,2.07a2.939,2.939,0,0,1-4.16,0l-3.6-3.6a14.614,14.614,0,0,1-2.38,1v5.09a2.945,2.945,0,0,1-2.94,2.94H78.15a2.945,2.945,0,0,1-2.94-2.94V81.06a14.613,14.613,0,0,1-2.38-1l-3.6,3.6a2.939,2.939,0,0,1-4.16,0L63,81.59a2.939,2.939,0,0,1,0-4.16l3.6-3.6a14.614,14.614,0,0,1-1-2.38H60.51a2.945,2.945,0,0,1-2.94-2.94V65.57a2.945,2.945,0,0,1,2.94-2.94H65.6a14.614,14.614,0,0,1,1-2.38L63,56.65a2.939,2.939,0,0,1,0-4.16l2.07-2.07a2.939,2.939,0,0,1,4.16,0l3.6,3.6a14.613,14.613,0,0,1,2.38-1V47.93a2.945,2.945,0,0,1,2.94-2.94h2.94a2.945,2.945,0,0,1,2.94,2.94V53a14.613,14.613,0,0,1,2.38,1l3.6-3.6a2.939,2.939,0,0,1,4.16,0l2.07,2.07a2.939,2.939,0,0,1,0,4.16l-3.6,3.6a14.614,14.614,0,0,1,1,2.38h5.09A2.975,2.975,0,0,1,101.67,65.57ZM85.49,67.04a5.88,5.88,0,1,0-5.88,5.88A5.877,5.877,0,0,0,85.49,67.04Z" fill="#fc8422"/>
          </g>
          <g id="Grupo_511" data-name="Grupo 511">
            <path id="Trazado_158" data-name="Trazado 158" d="M98.72,62.62H93.63a14.614,14.614,0,0,0-1-2.38l3.6-3.6a2.939,2.939,0,0,0,0-4.16l-2.07-2.07a2.939,2.939,0,0,0-4.16,0L86.4,54a14.613,14.613,0,0,0-2.38-1V47.91a2.945,2.945,0,0,0-2.94-2.94H78.14a2.945,2.945,0,0,0-2.94,2.94V53a14.613,14.613,0,0,0-2.38,1l-3.6-3.6a2.939,2.939,0,0,0-4.16,0l-2.07,2.07a2.939,2.939,0,0,0,0,4.16l3.6,3.6a14.614,14.614,0,0,0-1,2.38H60.5a2.945,2.945,0,0,0-2.94,2.94v2.94a2.945,2.945,0,0,0,2.94,2.94h5.09a14.613,14.613,0,0,0,1,2.38l-3.6,3.6a2.939,2.939,0,0,0,0,4.16l2.07,2.07a2.939,2.939,0,0,0,4.16,0l3.6-3.6a14.614,14.614,0,0,0,2.38,1v5.09a2.945,2.945,0,0,0,2.94,2.94h2.94a2.945,2.945,0,0,0,2.94-2.94V81.04a14.613,14.613,0,0,0,2.38-1l3.6,3.6a2.939,2.939,0,0,0,4.16,0l2.07-2.07a2.939,2.939,0,0,0,0-4.16l-3.6-3.6a14.614,14.614,0,0,0,1-2.38h5.09a2.945,2.945,0,0,0,2.94-2.94V65.55A2.943,2.943,0,0,0,98.72,62.62Z" fill="none" stroke="#474c54" stroke-linecap="round" stroke-linejoin="round" stroke-miterlimit="10" stroke-width="3.333"/>
            <circle id="Elipse_27" data-name="Elipse 27" cx="5.88" cy="5.88" r="5.88" transform="translate(73.72 61.16)" stroke-width="3.333" stroke="#474c54" stroke-linecap="round" stroke-linejoin="round" stroke-miterlimit="10" fill="none"/>
          </g>
        </g>
      </g>
      <g id="Grupo_514" data-name="Grupo 514">
        <g id="Grupo_513" data-name="Grupo 513">
          <path id="Trazado_159" data-name="Trazado 159" d="M42.61,15.84v7.87a1.538,1.538,0,0,0-1.57-1.57H12.7a1.538,1.538,0,0,0-1.57,1.57V39.46a3.085,3.085,0,0,1-3.15,3.15H6.39a4.716,4.716,0,0,1-4.72-4.72V6.39A4.716,4.716,0,0,1,6.39,1.67H17.41a4.716,4.716,0,0,1,4.72,4.72v4.72H37.88A4.72,4.72,0,0,1,42.61,15.84Z" fill="#f1f1f1"/>
          <path id="Trazado_160" data-name="Trazado 160" d="M42.61,23.71V37.88a4.716,4.716,0,0,1-4.72,4.72H7.97a3.085,3.085,0,0,0,3.15-3.15V23.7a1.538,1.538,0,0,1,1.57-1.57H41.03A1.556,1.556,0,0,1,42.61,23.71Z" fill="#f1f1f1"/>
        </g>
        <path id="Trazado_161" data-name="Trazado 161" d="M42.61,15.84a4.716,4.716,0,0,0-4.72-4.72H22.14V6.39a4.716,4.716,0,0,0-4.72-4.72H6.39A4.716,4.716,0,0,0,1.67,6.39V37.88A4.716,4.716,0,0,0,6.39,42.6H37.88a4.716,4.716,0,0,0,4.72-4.72V23.71a1.538,1.538,0,0,0-1.57-1.57H12.69a1.538,1.538,0,0,0-1.57,1.57V39.46a3.085,3.085,0,0,1-3.15,3.15" fill="none" stroke="#474c54" stroke-linecap="round" stroke-linejoin="round" stroke-miterlimit="10" stroke-width="3.333"/>
      </g>
      <path id="Trazado_162" data-name="Trazado 162" d="M73.92,28.43l6.3,6.3,6.3-6.3" fill="none" stroke="#474c54" stroke-linecap="round" stroke-linejoin="round" stroke-miterlimit="10" stroke-width="3.333"/>
      <path id="Trazado_163" data-name="Trazado 163" d="M80.22,34.73V20.56s0-4.72-4.72-4.72H55.63" fill="none" stroke="#474c54" stroke-linecap="round" stroke-linejoin="round" stroke-miterlimit="10" stroke-width="3.333"/>
      <path id="Trazado_164" data-name="Trazado 164" d="M26.68,61.5l-6.3-6.3-6.3,6.3" transform="translate(0 10)" fill="none" stroke="#474c54" stroke-linecap="round" stroke-linejoin="round" stroke-miterlimit="10" stroke-width="3.333"/>
      <path id="Trazado_165" data-name="Trazado 165" d="M20.38,55.2V69.37s0,4.72,4.72,4.72H48.13" transform="translate(0 10)" fill="none" stroke="#474c54" stroke-linecap="round" stroke-linejoin="round" stroke-miterlimit="10" stroke-width="3.333"/>
    </g>
    <g id="rayas_01" transform="translate(914.91 2854.885) rotate(90)">
      <g id="Grupo_445" data-name="Grupo 445" transform="translate(668.713 643.91)" clip-path="url(#clip-path)">
        <g id="Grupo_393" data-name="Grupo 393" transform="translate(-199.752 -201.787)">
          <rect id="Rectángulo_355" data-name="Rectángulo 355" width="474.47" height="1.567" transform="matrix(0.707, -0.707, 0.707, 0.707, 0, 335.498)" fill="#fc8422"/>
        </g>
        <g id="Grupo_394" data-name="Grupo 394" transform="translate(-195.254 -197.29)">
          <rect id="Rectángulo_356" data-name="Rectángulo 356" width="474.47" height="1.567" transform="matrix(0.707, -0.707, 0.707, 0.707, 0, 335.498)" fill="#fc8422"/>
        </g>
        <g id="Grupo_395" data-name="Grupo 395" transform="translate(-190.757 -192.794)">
          <rect id="Rectángulo_357" data-name="Rectángulo 357" width="474.47" height="1.567" transform="matrix(0.707, -0.707, 0.707, 0.707, 0, 335.498)" fill="#fc8422"/>
        </g>
        <g id="Grupo_396" data-name="Grupo 396" transform="translate(-186.259 -188.297)">
          <rect id="Rectángulo_358" data-name="Rectángulo 358" width="474.47" height="1.567" transform="matrix(0.707, -0.707, 0.707, 0.707, 0, 335.498)" fill="#fc8422"/>
        </g>
        <g id="Grupo_397" data-name="Grupo 397" transform="translate(-181.764 -183.799)">
          <rect id="Rectángulo_359" data-name="Rectángulo 359" width="474.47" height="1.567" transform="matrix(0.707, -0.707, 0.707, 0.707, 0, 335.498)" fill="#fc8422"/>
        </g>
        <g id="Grupo_398" data-name="Grupo 398" transform="translate(-177.266 -179.302)">
          <rect id="Rectángulo_360" data-name="Rectángulo 360" width="474.47" height="1.567" transform="matrix(0.707, -0.707, 0.707, 0.707, 0, 335.498)" fill="#fc8422"/>
        </g>
        <g id="Grupo_399" data-name="Grupo 399" transform="translate(-172.771 -174.808)">
          <rect id="Rectángulo_361" data-name="Rectángulo 361" width="474.47" height="1.567" transform="matrix(0.707, -0.707, 0.707, 0.707, 0, 335.498)" fill="#fc8422"/>
        </g>
        <g id="Grupo_400" data-name="Grupo 400" transform="translate(-168.274 -170.311)">
          <rect id="Rectángulo_362" data-name="Rectángulo 362" width="474.47" height="1.567" transform="matrix(0.707, -0.707, 0.707, 0.707, 0, 335.498)" fill="#fc8422"/>
        </g>
        <g id="Grupo_401" data-name="Grupo 401" transform="translate(-163.776 -165.815)">
          <rect id="Rectángulo_363" data-name="Rectángulo 363" width="474.47" height="1.567" transform="matrix(0.707, -0.707, 0.707, 0.707, 0, 335.498)" fill="#fc8422"/>
        </g>
        <g id="Grupo_402" data-name="Grupo 402" transform="translate(-159.278 -161.318)">
          <rect id="Rectángulo_364" data-name="Rectángulo 364" width="474.47" height="1.567" transform="matrix(0.707, -0.707, 0.707, 0.707, 0, 335.498)" fill="#fc8422"/>
        </g>
        <g id="Grupo_403" data-name="Grupo 403" transform="translate(-154.781 -156.822)">
          <rect id="Rectángulo_365" data-name="Rectángulo 365" width="474.47" height="1.567" transform="matrix(0.707, -0.707, 0.707, 0.707, 0, 335.498)" fill="#fc8422"/>
        </g>
        <g id="Grupo_404" data-name="Grupo 404" transform="translate(-150.285 -152.323)">
          <rect id="Rectángulo_366" data-name="Rectángulo 366" width="474.47" height="1.567" transform="matrix(0.707, -0.707, 0.707, 0.707, 0, 335.498)" fill="#fc8422"/>
        </g>
        <g id="Grupo_405" data-name="Grupo 405" transform="translate(-145.788 -147.827)">
          <rect id="Rectángulo_367" data-name="Rectángulo 367" width="474.47" height="1.567" transform="matrix(0.707, -0.707, 0.707, 0.707, 0, 335.498)" fill="#fc8422"/>
        </g>
        <g id="Grupo_406" data-name="Grupo 406" transform="translate(-141.293 -143.332)">
          <rect id="Rectángulo_368" data-name="Rectángulo 368" width="474.47" height="1.567" transform="matrix(0.707, -0.707, 0.707, 0.707, 0, 335.498)" fill="#fc8422"/>
        </g>
        <g id="Grupo_407" data-name="Grupo 407" transform="translate(-136.795 -138.836)">
          <rect id="Rectángulo_369" data-name="Rectángulo 369" width="474.47" height="1.567" transform="matrix(0.707, -0.707, 0.707, 0.707, 0, 335.498)" fill="#fc8422"/>
        </g>
        <g id="Grupo_408" data-name="Grupo 408" transform="translate(-132.297 -134.339)">
          <rect id="Rectángulo_370" data-name="Rectángulo 370" width="474.47" height="1.567" transform="matrix(0.707, -0.707, 0.707, 0.707, 0, 335.498)" fill="#fc8422"/>
        </g>
        <g id="Grupo_409" data-name="Grupo 409" transform="translate(-127.8 -129.843)">
          <rect id="Rectángulo_371" data-name="Rectángulo 371" width="474.47" height="1.567" transform="matrix(0.707, -0.707, 0.707, 0.707, 0, 335.498)" fill="#fc8422"/>
        </g>
        <g id="Grupo_410" data-name="Grupo 410" transform="translate(-123.305 -125.344)">
          <rect id="Rectángulo_372" data-name="Rectángulo 372" width="474.47" height="1.567" transform="matrix(0.707, -0.707, 0.707, 0.707, 0, 335.498)" fill="#fc8422"/>
        </g>
        <g id="Grupo_411" data-name="Grupo 411" transform="translate(-118.807 -120.848)">
          <rect id="Rectángulo_373" data-name="Rectángulo 373" width="474.47" height="1.567" transform="matrix(0.707, -0.707, 0.707, 0.707, 0, 335.498)" fill="#fc8422"/>
        </g>
        <g id="Grupo_412" data-name="Grupo 412" transform="translate(-114.312 -116.353)">
          <rect id="Rectángulo_374" data-name="Rectángulo 374" width="474.47" height="1.567" transform="matrix(0.707, -0.707, 0.707, 0.707, 0, 335.498)" fill="#fc8422"/>
        </g>
        <g id="Grupo_413" data-name="Grupo 413" transform="translate(-109.814 -111.857)">
          <rect id="Rectángulo_375" data-name="Rectángulo 375" width="474.47" height="1.567" transform="matrix(0.707, -0.707, 0.707, 0.707, 0, 335.498)" fill="#fc8422"/>
        </g>
        <g id="Grupo_414" data-name="Grupo 414" transform="translate(-105.317 -107.36)">
          <rect id="Rectángulo_376" data-name="Rectángulo 376" width="474.47" height="1.567" transform="matrix(0.707, -0.707, 0.707, 0.707, 0, 335.498)" fill="#fc8422"/>
        </g>
        <g id="Grupo_415" data-name="Grupo 415" transform="translate(-100.819 -102.864)">
          <rect id="Rectángulo_377" data-name="Rectángulo 377" width="474.47" height="1.567" transform="matrix(0.707, -0.707, 0.707, 0.707, 0, 335.498)" fill="#fc8422"/>
        </g>
        <g id="Grupo_416" data-name="Grupo 416" transform="translate(-96.321 -98.367)">
          <rect id="Rectángulo_378" data-name="Rectángulo 378" width="474.47" height="1.567" transform="matrix(0.707, -0.707, 0.707, 0.707, 0, 335.498)" fill="#fc8422"/>
        </g>
        <g id="Grupo_417" data-name="Grupo 417" transform="translate(-91.826 -93.869)">
          <rect id="Rectángulo_379" data-name="Rectángulo 379" width="474.47" height="1.567" transform="matrix(0.707, -0.707, 0.707, 0.707, 0, 335.498)" fill="#fc8422"/>
        </g>
        <g id="Grupo_418" data-name="Grupo 418" transform="translate(-87.328 -89.372)">
          <rect id="Rectángulo_380" data-name="Rectángulo 380" width="474.47" height="1.567" transform="matrix(0.707, -0.707, 0.707, 0.707, 0, 335.498)" fill="#fc8422"/>
        </g>
        <g id="Grupo_419" data-name="Grupo 419" transform="translate(-82.833 -84.878)">
          <rect id="Rectángulo_381" data-name="Rectángulo 381" width="474.47" height="1.567" transform="matrix(0.707, -0.707, 0.707, 0.707, 0, 335.498)" fill="#fc8422"/>
        </g>
        <g id="Grupo_420" data-name="Grupo 420" transform="translate(-78.336 -80.381)">
          <rect id="Rectángulo_382" data-name="Rectángulo 382" width="474.47" height="1.567" transform="matrix(0.707, -0.707, 0.707, 0.707, 0, 335.498)" fill="#fc8422"/>
        </g>
        <g id="Grupo_421" data-name="Grupo 421" transform="translate(-73.838 -75.885)">
          <rect id="Rectángulo_383" data-name="Rectángulo 383" width="474.47" height="1.567" transform="matrix(0.707, -0.707, 0.707, 0.707, 0, 335.498)" fill="#fc8422"/>
        </g>
        <g id="Grupo_422" data-name="Grupo 422" transform="translate(-69.34 -71.388)">
          <rect id="Rectángulo_384" data-name="Rectángulo 384" width="474.47" height="1.567" transform="matrix(0.707, -0.707, 0.707, 0.707, 0, 335.498)" fill="#fc8422"/>
        </g>
        <g id="Grupo_423" data-name="Grupo 423" transform="translate(-64.845 -66.89)">
          <rect id="Rectángulo_385" data-name="Rectángulo 385" width="474.47" height="1.567" transform="matrix(0.707, -0.707, 0.707, 0.707, 0, 335.498)" fill="#fc8422"/>
        </g>
        <g id="Grupo_424" data-name="Grupo 424" transform="translate(-60.347 -62.393)">
          <rect id="Rectángulo_386" data-name="Rectángulo 386" width="474.47" height="1.567" transform="matrix(0.707, -0.707, 0.707, 0.707, 0, 335.498)" fill="#fc8422"/>
        </g>
        <g id="Grupo_425" data-name="Grupo 425" transform="translate(-55.852 -57.899)">
          <rect id="Rectángulo_387" data-name="Rectángulo 387" width="474.47" height="1.567" transform="matrix(0.707, -0.707, 0.707, 0.707, 0, 335.498)" fill="#fc8422"/>
        </g>
        <g id="Grupo_426" data-name="Grupo 426" transform="translate(-51.355 -53.402)">
          <rect id="Rectángulo_388" data-name="Rectángulo 388" width="474.47" height="1.567" transform="matrix(0.707, -0.707, 0.707, 0.707, 0, 335.498)" fill="#fc8422"/>
        </g>
        <g id="Grupo_427" data-name="Grupo 427" transform="translate(-46.857 -48.906)">
          <rect id="Rectángulo_389" data-name="Rectángulo 389" width="474.47" height="1.567" transform="matrix(0.707, -0.707, 0.707, 0.707, 0, 335.498)" fill="#fc8422"/>
        </g>
        <g id="Grupo_428" data-name="Grupo 428" transform="translate(-42.359 -44.409)">
          <rect id="Rectángulo_390" data-name="Rectángulo 390" width="474.47" height="1.567" transform="matrix(0.707, -0.707, 0.707, 0.707, 0, 335.498)" fill="#fc8422"/>
        </g>
        <g id="Grupo_429" data-name="Grupo 429" transform="translate(-37.864 -39.911)">
          <rect id="Rectángulo_391" data-name="Rectángulo 391" width="474.47" height="1.567" transform="matrix(0.707, -0.707, 0.707, 0.707, 0, 335.498)" fill="#fc8422"/>
        </g>
        <g id="Grupo_430" data-name="Grupo 430" transform="translate(-33.367 -35.414)">
          <rect id="Rectángulo_392" data-name="Rectángulo 392" width="474.47" height="1.567" transform="matrix(0.707, -0.707, 0.707, 0.707, 0, 335.498)" fill="#fc8422"/>
        </g>
        <g id="Grupo_431" data-name="Grupo 431" transform="translate(-28.869 -30.918)">
          <rect id="Rectángulo_393" data-name="Rectángulo 393" width="474.47" height="1.567" transform="matrix(0.707, -0.707, 0.707, 0.707, 0, 335.498)" fill="#fc8422"/>
        </g>
        <g id="Grupo_432" data-name="Grupo 432" transform="translate(-24.374 -26.423)">
          <rect id="Rectángulo_394" data-name="Rectángulo 394" width="474.47" height="1.567" transform="matrix(0.707, -0.707, 0.707, 0.707, 0, 335.498)" fill="#fc8422"/>
        </g>
        <g id="Grupo_433" data-name="Grupo 433" transform="translate(-19.876 -21.927)">
          <rect id="Rectángulo_395" data-name="Rectángulo 395" width="474.47" height="1.567" transform="matrix(0.707, -0.707, 0.707, 0.707, 0, 335.498)" fill="#fc8422"/>
        </g>
        <g id="Grupo_434" data-name="Grupo 434" transform="translate(-15.379 -17.43)">
          <rect id="Rectángulo_396" data-name="Rectángulo 396" width="474.47" height="1.567" transform="matrix(0.707, -0.707, 0.707, 0.707, 0, 335.498)" fill="#fc8422"/>
        </g>
        <g id="Grupo_435" data-name="Grupo 435" transform="translate(-10.881 -12.934)">
          <rect id="Rectángulo_397" data-name="Rectángulo 397" width="474.47" height="1.567" transform="matrix(0.707, -0.707, 0.707, 0.707, 0, 335.498)" fill="#fc8422"/>
        </g>
        <g id="Grupo_436" data-name="Grupo 436" transform="translate(-6.386 -8.435)">
          <rect id="Rectángulo_398" data-name="Rectángulo 398" width="474.47" height="1.567" transform="matrix(0.707, -0.707, 0.707, 0.707, 0, 335.498)" fill="#fc8422"/>
        </g>
        <g id="Grupo_437" data-name="Grupo 437" transform="translate(-1.888 -3.939)">
          <rect id="Rectángulo_399" data-name="Rectángulo 399" width="474.47" height="1.567" transform="matrix(0.707, -0.707, 0.707, 0.707, 0, 335.498)" fill="#fc8422"/>
        </g>
        <g id="Grupo_438" data-name="Grupo 438" transform="translate(2.607 0.556)">
          <rect id="Rectángulo_400" data-name="Rectángulo 400" width="474.47" height="1.567" transform="matrix(0.707, -0.707, 0.707, 0.707, 0, 335.498)" fill="#fc8422"/>
        </g>
        <g id="Grupo_439" data-name="Grupo 439" transform="translate(7.105 5.052)">
          <rect id="Rectángulo_401" data-name="Rectángulo 401" width="474.47" height="1.567" transform="matrix(0.707, -0.707, 0.707, 0.707, 0, 335.498)" fill="#fc8422"/>
        </g>
        <g id="Grupo_440" data-name="Grupo 440" transform="translate(11.602 9.549)">
          <rect id="Rectángulo_402" data-name="Rectángulo 402" width="474.47" height="1.567" transform="matrix(0.707, -0.707, 0.707, 0.707, 0, 335.498)" fill="#fc8422"/>
        </g>
        <g id="Grupo_441" data-name="Grupo 441" transform="translate(16.1 14.045)">
          <rect id="Rectángulo_403" data-name="Rectángulo 403" width="474.47" height="1.567" transform="matrix(0.707, -0.707, 0.707, 0.707, 0, 335.498)" fill="#fc8422"/>
        </g>
        <g id="Grupo_442" data-name="Grupo 442" transform="translate(20.595 18.544)">
          <rect id="Rectángulo_404" data-name="Rectángulo 404" width="474.47" height="1.567" transform="matrix(0.707, -0.707, 0.707, 0.707, 0, 335.498)" fill="#fc8422"/>
        </g>
        <g id="Grupo_443" data-name="Grupo 443" transform="translate(25.093 23.04)">
          <rect id="Rectángulo_405" data-name="Rectángulo 405" width="474.47" height="1.567" transform="matrix(0.707, -0.707, 0.707, 0.707, 0, 335.498)" fill="#fc8422"/>
        </g>
        <g id="Grupo_444" data-name="Grupo 444" transform="translate(29.59 27.537)">
          <rect id="Rectángulo_406" data-name="Rectángulo 406" width="474.47" height="1.567" transform="matrix(0.707, -0.707, 0.707, 0.707, 0, 335.498)" fill="#fc8422"/>
        </g>
      </g>
    </g>
    <text id="MARCAMOS_LA_DIFERENCIA" data-name="MARCAMOS LA DIFERENCIA" transform="translate(688 3647)" fill="#fc8422" font-size="40" font-family="OpenSans-Bold, Open Sans" font-weight="700"><tspan x="0" y="0">MARCAMOS LA DIFERENCIA</tspan></text>
    <text id="_Por_qué_Lexlogos_" data-name="¿Por qué Lexlogos?" transform="translate(959 3597)" fill="#fc8422" font-size="25" font-family="OpenSans-Light, Open Sans" font-weight="300"><tspan x="-107.526" y="0">¿Por qué Lexlogos?</tspan></text>
  </g>
</svg>
