<svg xmlns="http://www.w3.org/2000/svg" width="105.718" height="93.334" viewBox="0 0 105.718 93.334">
  <g id="Grupo_704" data-name="Grupo 704" transform="translate(-0.001 -0.001)">
    <g id="Grupo_698" data-name="Grupo 698">
      <path id="Trazado_623" data-name="Trazado 623" d="M78.87,2.5a25.593,25.593,0,0,1,25.18,26.01c-.52,31.99-52.23,63.16-52.23,63.16S1.15,58.84,1.67,26.85a25.6,25.6,0,1,1,51.19.83A25.593,25.593,0,0,1,78.87,2.5Z" fill="#fc8422"/>
    </g>
    <g id="Grupo_702" data-name="Grupo 702">
      <g id="XMLID_2_">
        <g id="Grupo_699" data-name="Grupo 699">
          <path id="Trazado_624" data-name="Trazado 624" d="M51.82,91.67,27.05,71.92l.46-28.28A11.149,11.149,0,0,1,38.84,32.67l5.57.09,8.23,8.5,8.5-8.23,5.57.09A11.149,11.149,0,0,1,77.68,44.45l-.09,5.57-.36,22.53Z" fill="#fff"/>
        </g>
      </g>
      <g id="Grupo_701" data-name="Grupo 701">
        <g id="XMLID_1_">
          <g id="Grupo_700" data-name="Grupo 700">
            <path id="Trazado_625" data-name="Trazado 625" d="M27.07,70.98l.44-27.34A11.149,11.149,0,0,1,38.84,32.67l5.57.09,8.23,8.5,8.5-8.23,5.57.09A11.149,11.149,0,0,1,77.68,44.45l-.44,27.34" fill="none" stroke="#4d4d4d" stroke-linecap="round" stroke-linejoin="round" stroke-miterlimit="10" stroke-width="3.33"/>
            <path id="Trazado_626" data-name="Trazado 626" d="M38.57,49.39l-.2,12.36-.3,18.31" fill="none" stroke="#4d4d4d" stroke-linecap="round" stroke-linejoin="round" stroke-miterlimit="10" stroke-width="3.33"/>
            <path id="Trazado_627" data-name="Trazado 627" d="M65.94,80.51l.3-18.31.2-12.36" fill="none" stroke="#4d4d4d" stroke-linecap="round" stroke-linejoin="round" stroke-miterlimit="10" stroke-width="3.33"/>
          </g>
        </g>
      </g>
    </g>
    <g id="Grupo_703" data-name="Grupo 703">
      <path id="Trazado_628" data-name="Trazado 628" d="M78.87,2.5a25.593,25.593,0,0,1,25.18,26.01c-.52,31.99-52.23,63.16-52.23,63.16S1.15,58.84,1.67,26.85a25.6,25.6,0,1,1,51.19.83A25.593,25.593,0,0,1,78.87,2.5Z" fill="none" stroke="#4d4d4d" stroke-linecap="round" stroke-linejoin="round" stroke-miterlimit="10" stroke-width="3.33"/>
    </g>
    <circle id="Elipse_46" data-name="Elipse 46" cx="11.15" cy="11.15" r="11.15" transform="translate(41.88 6.11)" stroke-width="3.33" stroke="#4d4d4d" stroke-linecap="round" stroke-linejoin="round" stroke-miterlimit="10" fill="#fff"/>
  </g>
</svg>
