<svg xmlns="http://www.w3.org/2000/svg" width="91.013" height="95.003" viewBox="0 0 91.013 95.003">
  <g id="ic_dif_03" transform="translate(-0.003 0.007)">
    <g id="Grupo_473" data-name="Grupo 473">
      <path id="Trazado_115" data-name="Trazado 115" d="M23.59,35.54v7.97A2,2,0,0,1,21.6,45.5H13.63a2,2,0,0,1-1.99-1.99V35.54a2,2,0,0,1,1.99-1.99H21.6A2,2,0,0,1,23.59,35.54Z" fill="#f1f2f2"/>
      <path id="Trazado_116" data-name="Trazado 116" d="M23.59,13.62v7.97a2,2,0,0,1-1.99,1.99H13.63a2,2,0,0,1-1.99-1.99V13.62a2,2,0,0,1,1.99-1.99H21.6A2,2,0,0,1,23.59,13.62Z" fill="#f1f2f2"/>
      <path id="Trazado_117" data-name="Trazado 117" d="M89.35,45.51V49.5a2,2,0,0,1-1.99,1.99H79.39V43.52h7.97A1.989,1.989,0,0,1,89.35,45.51Z" fill="#d0d7df"/>
      <path id="Trazado_118" data-name="Trazado 118" d="M79.38,43.51v7.98H39.53L31.56,47.5l7.97-3.99H79.38Z" fill="#fc8422"/>
      <path id="Trazado_119" data-name="Trazado 119" d="M19.6,61.45H69.42a15.94,15.94,0,1,1,0,31.88H17.61a15.941,15.941,0,0,0,1.97-31.76Z" fill="#a4b0c0"/>
      <path id="Trazado_120" data-name="Trazado 120" d="M19.58,61.57A15.941,15.941,0,1,1,1.67,77.39V5.65s0-3.99,3.99-3.99h55.8s3.99,0,3.99,3.99V43.51H39.53L31.56,47.5l7.97,3.99H65.44v9.96H19.6Zm4.01-18.06V35.54a2,2,0,0,0-1.99-1.99H13.63a2,2,0,0,0-1.99,1.99v7.97a2,2,0,0,0,1.99,1.99H21.6A1.989,1.989,0,0,0,23.59,43.51Zm0-21.92V13.62a2,2,0,0,0-1.99-1.99H13.63a2,2,0,0,0-1.99,1.99v7.97a2,2,0,0,0,1.99,1.99H21.6A1.989,1.989,0,0,0,23.59,21.59Z" fill="#d0d7df"/>
    </g>
    <g id="Grupo_474" data-name="Grupo 474">
      <path id="Trazado_121" data-name="Trazado 121" d="M17.61,61.45A15.94,15.94,0,1,1,1.67,77.39V5.65s0-3.99,3.99-3.99h55.8s3.99,0,3.99,3.99V35.54" fill="none" stroke="#474c54" stroke-linecap="round" stroke-linejoin="round" stroke-miterlimit="10" stroke-width="3.333"/>
      <path id="Trazado_122" data-name="Trazado 122" d="M19.6,61.45H69.42a15.94,15.94,0,1,1,0,31.88H17.61" fill="none" stroke="#474c54" stroke-linecap="round" stroke-linejoin="round" stroke-miterlimit="10" stroke-width="3.333"/>
      <path id="Trazado_123" data-name="Trazado 123" d="M65.43,51.49H39.53L31.56,47.5l7.97-3.99H87.36a2,2,0,0,1,1.99,1.99v3.99a2,2,0,0,1-1.99,1.99H65.43Z" fill="#fc8422" stroke="#474c54" stroke-linecap="round" stroke-linejoin="round" stroke-miterlimit="10" stroke-width="3.333"/>
      <line id="Línea_24" data-name="Línea 24" y1="7.98" transform="translate(79.38 43.51)" fill="none" stroke="#474c54" stroke-linecap="round" stroke-linejoin="round" stroke-miterlimit="10" stroke-width="3.333"/>
      <path id="Trazado_124" data-name="Trazado 124" d="M11.63,21.59a2,2,0,0,0,1.99,1.99h7.97a2,2,0,0,0,1.99-1.99V13.62a2,2,0,0,0-1.99-1.99H13.62a2,2,0,0,0-1.99,1.99v7.97Z" fill="none" stroke="#474c54" stroke-linecap="round" stroke-linejoin="round" stroke-miterlimit="10" stroke-width="3.333"/>
      <path id="Trazado_125" data-name="Trazado 125" d="M11.63,43.51a2,2,0,0,0,1.99,1.99h7.97a2,2,0,0,0,1.99-1.99V35.54a2,2,0,0,0-1.99-1.99H13.62a2,2,0,0,0-1.99,1.99v7.97Z" fill="none" stroke="#474c54" stroke-linecap="round" stroke-linejoin="round" stroke-miterlimit="10" stroke-width="3.333"/>
      <line id="Línea_25" data-name="Línea 25" x2="3.98" transform="translate(31.56 13.62)" fill="none" stroke="#474c54" stroke-linecap="round" stroke-linejoin="round" stroke-miterlimit="10" stroke-width="3.333"/>
      <line id="Línea_26" data-name="Línea 26" x2="3.99" transform="translate(43.51 13.62)" fill="none" stroke="#474c54" stroke-linecap="round" stroke-linejoin="round" stroke-miterlimit="10" stroke-width="3.333"/>
      <line id="Línea_27" data-name="Línea 27" x2="3.98" transform="translate(31.56 33.55)" fill="none" stroke="#474c54" stroke-linecap="round" stroke-linejoin="round" stroke-miterlimit="10" stroke-width="3.333"/>
      <line id="Línea_28" data-name="Línea 28" x2="3.99" transform="translate(43.51 33.55)" fill="none" stroke="#474c54" stroke-linecap="round" stroke-linejoin="round" stroke-miterlimit="10" stroke-width="3.333"/>
      <line id="Línea_29" data-name="Línea 29" x2="23.91" transform="translate(31.56 21.59)" fill="none" stroke="#474c54" stroke-linecap="round" stroke-linejoin="round" stroke-miterlimit="10" stroke-width="3.333"/>
    </g>
  </g>
</svg>
