<svg xmlns="http://www.w3.org/2000/svg" width="103.333" height="92.144" viewBox="0 0 103.333 92.144">
  <g id="ic_dif_04" transform="translate(-0.003 -0.003)">
    <g id="Grupo_485" data-name="Grupo 485">
      <g id="Grupo_475" data-name="Grupo 475">
        <path id="Trazado_126" data-name="Trazado 126" d="M79.46,36.56H66.77a6.342,6.342,0,0,1-6.34-6.34V17.53Z" fill="#d0d7df"/>
        <path id="Trazado_127" data-name="Trazado 127" d="M79.46,36.56V84.14a6.342,6.342,0,0,1-6.34,6.34H19.2c-6.34,0-6.34-6.34-6.34-6.34V23.87a6.342,6.342,0,0,1,6.34-6.34H60.43V30.22a6.342,6.342,0,0,0,6.34,6.34H79.46Z" fill="#a4b0c0"/>
      </g>
      <g id="Grupo_484" data-name="Grupo 484">
        <g id="Grupo_483" data-name="Grupo 483">
          <g id="Grupo_482" data-name="Grupo 482">
            <g id="Grupo_481" data-name="Grupo 481">
              <g id="Grupo_480" data-name="Grupo 480">
                <g id="Grupo_479" data-name="Grupo 479">
                  <g id="Grupo_478" data-name="Grupo 478">
                    <g id="Grupo_477" data-name="Grupo 477">
                      <g id="Grupo_476" data-name="Grupo 476">
                        <path id="Trazado_128" data-name="Trazado 128" d="M60.43,17.53V30.22a6.342,6.342,0,0,0,6.34,6.34h3.17" fill="none" stroke="#474c54" stroke-linecap="round" stroke-linejoin="round" stroke-miterlimit="10" stroke-width="3.333"/>
                        <path id="Trazado_129" data-name="Trazado 129" d="M73.12,90.48a6.342,6.342,0,0,0,6.34-6.34V36.56L60.43,17.53H19.2a6.342,6.342,0,0,0-6.34,6.34V84.13s0,6.34,6.34,6.34H73.12Z" fill="none" stroke="#474c54" stroke-linecap="round" stroke-linejoin="round" stroke-miterlimit="10" stroke-width="3.333"/>
                      </g>
                    </g>
                  </g>
                </g>
              </g>
            </g>
          </g>
        </g>
      </g>
    </g>
    <g id="Grupo_491" data-name="Grupo 491">
      <g id="Grupo_490" data-name="Grupo 490">
        <g id="Grupo_489" data-name="Grupo 489">
          <g id="Grupo_488" data-name="Grupo 488">
            <g id="XMLID_3_">
              <g id="Grupo_486" data-name="Grupo 486">
                <circle id="Elipse_16" data-name="Elipse 16" cx="20.62" cy="20.62" r="20.62" transform="translate(22.21 41.31)" fill="#fc8422"/>
              </g>
              <g id="Grupo_487" data-name="Grupo 487">
                <circle id="Elipse_17" data-name="Elipse 17" cx="20.62" cy="20.62" r="20.62" transform="translate(22.21 41.31)" stroke-width="3.333" stroke="#4d4d4d" stroke-linecap="round" stroke-linejoin="round" stroke-miterlimit="10" fill="none"/>
              </g>
            </g>
          </g>
          <path id="Trazado_130" data-name="Trazado 130" d="M49.17,57.17V55.58A3.171,3.171,0,0,0,46,52.41H39.66a3.171,3.171,0,0,0-3.17,3.17v3.17a3.171,3.171,0,0,0,3.17,3.17h3.17" fill="none" stroke="#4d4d4d" stroke-linecap="round" stroke-linejoin="round" stroke-miterlimit="10" stroke-width="3.333"/>
          <path id="Trazado_131" data-name="Trazado 131" d="M36.48,66.69v1.59a3.171,3.171,0,0,0,3.17,3.17H46a3.171,3.171,0,0,0,3.17-3.17V65.1A3.171,3.171,0,0,0,46,61.93H42.83" fill="none" stroke="#4d4d4d" stroke-linecap="round" stroke-linejoin="round" stroke-miterlimit="10" stroke-width="3.333"/>
          <line id="Línea_30" data-name="Línea 30" y1="3.18" transform="translate(42.83 49.24)" fill="none" stroke="#4d4d4d" stroke-linecap="round" stroke-linejoin="round" stroke-miterlimit="10" stroke-width="3.333"/>
          <line id="Línea_31" data-name="Línea 31" y1="3.17" transform="translate(42.83 71.45)" fill="none" stroke="#4d4d4d" stroke-linecap="round" stroke-linejoin="round" stroke-miterlimit="10" stroke-width="3.333"/>
        </g>
      </g>
    </g>
    <g id="Grupo_495" data-name="Grupo 495">
      <g id="Grupo_494" data-name="Grupo 494">
        <g id="XMLID_2_">
          <g id="Grupo_492" data-name="Grupo 492">
            <circle id="Elipse_18" data-name="Elipse 18" cx="15.86" cy="15.86" r="15.86" transform="translate(1.67 1.67)" fill="#f1f2f2"/>
          </g>
          <g id="Grupo_493" data-name="Grupo 493">
            <circle id="Elipse_19" data-name="Elipse 19" cx="15.86" cy="15.86" r="15.86" transform="translate(1.67 1.67)" stroke-width="3.333" stroke="#474c54" stroke-linecap="round" stroke-linejoin="round" stroke-miterlimit="10" fill="none"/>
          </g>
        </g>
        <path id="Trazado_132" data-name="Trazado 132" d="M11.18,20.7l3.17,3.17,11.11-11.1" fill="none" stroke="#474c54" stroke-linecap="round" stroke-linejoin="round" stroke-miterlimit="10" stroke-width="3.333"/>
      </g>
    </g>
    <g id="Grupo_498" data-name="Grupo 498">
      <g id="XMLID_1_">
        <g id="Grupo_496" data-name="Grupo 496">
          <path id="Trazado_133" data-name="Trazado 133" d="M101.67,77.79v7.93c0,2.63-4.96,4.76-11.1,4.76s-11.1-2.13-11.1-4.76V77.79c0,2.63,4.96,4.76,11.1,4.76S101.67,80.42,101.67,77.79Z" fill="#fc8422"/>
          <path id="Trazado_134" data-name="Trazado 134" d="M79.46,69.86v7.93c0,2.63-4.96,4.76-11.1,4.76s-11.1-2.13-11.1-4.76V69.86c0,2.63,4.96,4.76,11.1,4.76S79.46,72.49,79.46,69.86Z" fill="#fc8422"/>
          <ellipse id="Elipse_20" data-name="Elipse 20" cx="11.1" cy="4.76" rx="11.1" ry="4.76" transform="translate(79.47 65.1)" fill="#fc8422"/>
          <path id="Trazado_135" data-name="Trazado 135" d="M68.36,58.76c6.14,0,11.1-2.13,11.1-4.76v7.93c0,2.63-4.96,4.76-11.1,4.76s-11.1-2.13-11.1-4.76V54C57.26,56.63,62.23,58.76,68.36,58.76Z" fill="#fc8422"/>
          <ellipse id="Elipse_21" data-name="Elipse 21" cx="11.1" cy="4.76" rx="11.1" ry="4.76" transform="translate(57.26 49.24)" fill="#fc8422"/>
          <path id="Trazado_136" data-name="Trazado 136" d="M79.46,61.93v7.93c0,2.63-4.96,4.76-11.1,4.76s-11.1-2.13-11.1-4.76V61.93c0,2.63,4.96,4.76,11.1,4.76S79.46,64.56,79.46,61.93Z" fill="#fc8422"/>
          <path id="Trazado_137" data-name="Trazado 137" d="M90.57,74.62c6.14,0,11.1-2.13,11.1-4.76v7.93c0,2.63-4.96,4.76-11.1,4.76s-11.1-2.13-11.1-4.76V69.86C79.46,72.49,84.43,74.62,90.57,74.62Z" fill="#fc8422"/>
          <path id="Trazado_138" data-name="Trazado 138" d="M79.46,77.79v7.93c0,2.63-4.96,4.76-11.1,4.76s-11.1-2.13-11.1-4.76V77.79c0,2.63,4.96,4.76,11.1,4.76S79.46,80.42,79.46,77.79Z" fill="#fc8422"/>
        </g>
        <g id="Grupo_497" data-name="Grupo 497">
          <ellipse id="Elipse_22" data-name="Elipse 22" cx="11.1" cy="4.76" rx="11.1" ry="4.76" transform="translate(57.26 49.24)" fill="none" stroke="#474c54" stroke-linecap="round" stroke-linejoin="round" stroke-miterlimit="10" stroke-width="3.333"/>
          <path id="Trazado_139" data-name="Trazado 139" d="M79.46,69.86c0,2.63-4.96,4.76-11.1,4.76s-11.1-2.13-11.1-4.76" fill="none" stroke="#474c54" stroke-linecap="round" stroke-linejoin="round" stroke-miterlimit="10" stroke-width="3.333"/>
          <path id="Trazado_140" data-name="Trazado 140" d="M79.46,77.79c0,2.63-4.96,4.76-11.1,4.76s-11.1-2.13-11.1-4.76" fill="none" stroke="#474c54" stroke-linecap="round" stroke-linejoin="round" stroke-miterlimit="10" stroke-width="3.333"/>
          <path id="Trazado_141" data-name="Trazado 141" d="M79.46,69.86V54" fill="none" stroke="#474c54" stroke-linecap="round" stroke-linejoin="round" stroke-miterlimit="10" stroke-width="3.333"/>
          <path id="Trazado_142" data-name="Trazado 142" d="M57.26,54V85.72c0,2.63,4.96,4.76,11.1,4.76s11.1-2.13,11.1-4.76" fill="none" stroke="#474c54" stroke-linecap="round" stroke-linejoin="round" stroke-miterlimit="10" stroke-width="3.333"/>
          <path id="Trazado_143" data-name="Trazado 143" d="M79.46,61.93c0,2.63-4.96,4.76-11.1,4.76s-11.1-2.13-11.1-4.76" fill="none" stroke="#474c54" stroke-linecap="round" stroke-linejoin="round" stroke-miterlimit="10" stroke-width="3.333"/>
          <ellipse id="Elipse_23" data-name="Elipse 23" cx="11.1" cy="4.76" rx="11.1" ry="4.76" transform="translate(79.47 65.1)" fill="none" stroke="#474c54" stroke-linecap="round" stroke-linejoin="round" stroke-miterlimit="10" stroke-width="3.333"/>
          <path id="Trazado_144" data-name="Trazado 144" d="M79.46,69.86V85.72c0,2.63,4.96,4.76,11.1,4.76s11.1-2.13,11.1-4.76V69.86" fill="none" stroke="#474c54" stroke-linecap="round" stroke-linejoin="round" stroke-miterlimit="10" stroke-width="3.333"/>
          <path id="Trazado_145" data-name="Trazado 145" d="M101.67,77.79c0,2.63-4.96,4.76-11.1,4.76s-11.1-2.13-11.1-4.76" fill="none" stroke="#474c54" stroke-linecap="round" stroke-linejoin="round" stroke-miterlimit="10" stroke-width="3.333"/>
        </g>
      </g>
    </g>
  </g>
</svg>
