<svg xmlns="http://www.w3.org/2000/svg" width="104.014" height="103.333" viewBox="0 0 104.014 103.333">
  <g id="ic_dif_05" transform="translate(0.687 -0.003)">
    <g id="Grupo_502" data-name="Grupo 502">
      <g id="Grupo_500" data-name="Grupo 500">
        <path id="Trazado_146" data-name="Trazado 146" d="M42.54,18.4V44.69c0,4.78-4.81,4.78-4.81,4.78H30.52V35.12H20.9V49.46H13.69c-4.81,0-4.81-4.78-4.81-4.78V18.4L25.71,1.67Z" fill="#f1f2f2"/>
      </g>
      <g id="Grupo_501" data-name="Grupo 501">
        <path id="Trazado_147" data-name="Trazado 147" d="M1.67,25.56,25.71,1.67,49.76,25.56" fill="none" stroke="#474c54" stroke-linecap="round" stroke-linejoin="round" stroke-miterlimit="10" stroke-width="3.333"/>
        <path id="Trazado_148" data-name="Trazado 148" d="M8.88,18.4V44.69s0,4.78,4.81,4.78H20.9V35.12h9.62V49.46h7.21s4.81,0,4.81-4.78V18.39" fill="none" stroke="#474c54" stroke-linecap="round" stroke-linejoin="round" stroke-miterlimit="10" stroke-width="3.333"/>
        <line id="Línea_32" data-name="Línea 32" x2="4.81" transform="translate(23.31 23.18)" fill="none" stroke="#474c54" stroke-linecap="round" stroke-linejoin="round" stroke-miterlimit="10" stroke-width="3.333"/>
      </g>
    </g>
    <g id="XMLID_2_">
      <g id="Grupo_503" data-name="Grupo 503">
        <path id="Trazado_149" data-name="Trazado 149" d="M49.79,84.91V86.2s1.3,6.45,6.49,6.45v9.02H80.92V91.35c0-3.87,2.59-3.87,2.59-3.87h7.78c3.89,0,3.89-3.87,3.89-3.87V78.8a6.21,6.21,0,0,1,3.89-1.64,2.53,2.53,0,0,0,2.59-2.58L95.17,62.9V60.4A18.111,18.111,0,0,0,77.01,42.35H69.23c-10.03,0-19.46,8.08-19.46,18.05V84.91Z" fill="#f1f1f1"/>
      </g>
      <g id="Grupo_504" data-name="Grupo 504">
        <path id="Trazado_150" data-name="Trazado 150" d="M49.79,84.91V86.2s1.3,6.45,6.49,6.45v9.02H80.92V91.35c0-3.87,2.59-3.87,2.59-3.87h7.78c3.89,0,3.89-3.87,3.89-3.87V78.8a6.21,6.21,0,0,1,3.89-1.64,2.53,2.53,0,0,0,2.59-2.58L95.17,62.9V60.4A18.111,18.111,0,0,0,77.01,42.35H69.23c-10.03,0-19.46,8.08-19.46,18.05V84.91Z" fill="none" stroke="#474c54" stroke-linecap="round" stroke-linejoin="round" stroke-miterlimit="10" stroke-width="3.333"/>
      </g>
    </g>
    <g id="XMLID_1_">
      <g id="Grupo_505" data-name="Grupo 505">
        <ellipse id="Elipse_24" data-name="Elipse 24" cx="4.96" cy="4.93" rx="4.96" ry="4.93" transform="translate(49.49 60.28)" fill="#f1f2f2"/>
        <path id="Trazado_151" data-name="Trazado 151" d="M73.06,63.97v2.47a2.484,2.484,0,0,1-2.48,2.47H66.29a13.01,13.01,0,0,1-.84,2l3.04,3.02a2.457,2.457,0,0,1,0,3.49l-1.75,1.74a2.5,2.5,0,0,1-3.51,0l-3.04-3.02a13.12,13.12,0,0,1-2.01.84v4.27a2.484,2.484,0,0,1-2.48,2.47H53.22a2.484,2.484,0,0,1-2.48-2.47V76.98a13.553,13.553,0,0,1-2.01-.84l-3.04,3.02a2.5,2.5,0,0,1-3.51,0l-1.75-1.74a2.457,2.457,0,0,1,0-3.49l3.04-3.02a13.009,13.009,0,0,1-.84-2H38.34a2.484,2.484,0,0,1-2.48-2.47V63.97a2.484,2.484,0,0,1,2.48-2.47h4.29a13.009,13.009,0,0,1,.84-2l-3.04-3.02a2.457,2.457,0,0,1,0-3.49l1.75-1.74a2.5,2.5,0,0,1,3.51,0l3.04,3.02a13.121,13.121,0,0,1,2.01-.84V49.16a2.484,2.484,0,0,1,2.48-2.47H55.7a2.484,2.484,0,0,1,2.48,2.47v4.27a13.552,13.552,0,0,1,2.01.84l3.04-3.02a2.5,2.5,0,0,1,3.51,0L68.48,53a2.457,2.457,0,0,1,0,3.49l-3.04,3.02a13.009,13.009,0,0,1,.84,2h4.29A2.484,2.484,0,0,1,73.06,63.97ZM59.41,65.21a4.96,4.96,0,1,0-4.96,4.93A4.946,4.946,0,0,0,59.41,65.21Z" fill="#fc8422"/>
      </g>
      <g id="Grupo_506" data-name="Grupo 506">
        <path id="Trazado_152" data-name="Trazado 152" d="M70.58,61.51H66.29a13.01,13.01,0,0,0-.84-2l3.04-3.02a2.457,2.457,0,0,0,0-3.49l-1.75-1.74a2.5,2.5,0,0,0-3.51,0l-3.04,3.02a13.121,13.121,0,0,0-2.01-.84V49.17A2.484,2.484,0,0,0,55.7,46.7H53.22a2.484,2.484,0,0,0-2.48,2.47v4.27a13.552,13.552,0,0,0-2.01.84l-3.04-3.02a2.5,2.5,0,0,0-3.51,0L40.42,53a2.457,2.457,0,0,0,0,3.49l3.04,3.02a13.009,13.009,0,0,0-.84,2H38.33a2.484,2.484,0,0,0-2.48,2.47v2.47a2.484,2.484,0,0,0,2.48,2.47h4.29a13.009,13.009,0,0,0,.84,2l-3.04,3.02a2.457,2.457,0,0,0,0,3.49l1.75,1.74a2.5,2.5,0,0,0,3.51,0l3.04-3.02a13.12,13.12,0,0,0,2.01.84v4.27a2.484,2.484,0,0,0,2.48,2.47h2.48a2.484,2.484,0,0,0,2.48-2.47V76.99a13.553,13.553,0,0,0,2.01-.84l3.04,3.02a2.5,2.5,0,0,0,3.51,0l1.75-1.74a2.457,2.457,0,0,0,0-3.49l-3.04-3.02a13.008,13.008,0,0,0,.84-2h4.29a2.484,2.484,0,0,0,2.48-2.47V63.98A2.469,2.469,0,0,0,70.58,61.51Z" fill="none" stroke="#474c54" stroke-linecap="round" stroke-linejoin="round" stroke-miterlimit="10" stroke-width="3.333"/>
        <ellipse id="Elipse_25" data-name="Elipse 25" cx="4.96" cy="4.93" rx="4.96" ry="4.93" transform="translate(49.49 60.28)" fill="none" stroke="#474c54" stroke-linecap="round" stroke-linejoin="round" stroke-miterlimit="10" stroke-width="3.333"/>
      </g>
    </g>
    <g id="Grupo_507" data-name="Grupo 507">
      <path id="Trazado_153" data-name="Trazado 153" d="M71.63,24.64l7.93,7.88,7.92-7.88" fill="none" stroke="#474c54" stroke-linecap="round" stroke-linejoin="round" stroke-miterlimit="10" stroke-width="3.333"/>
      <path id="Trazado_154" data-name="Trazado 154" d="M79.56,32.52V14.79s0-5.91-5.95-5.91H57.75" fill="none" stroke="#474c54" stroke-linecap="round" stroke-linejoin="round" stroke-miterlimit="10" stroke-width="3.333"/>
    </g>
    <g id="Grupo_508" data-name="Grupo 508">
      <path id="Trazado_155" data-name="Trazado 155" d="M24.54,80.55l-7.93-7.88L8.69,80.55" fill="none" stroke="#474c54" stroke-linecap="round" stroke-linejoin="round" stroke-miterlimit="10" stroke-width="3.333"/>
      <path id="Trazado_156" data-name="Trazado 156" d="M16.61,72.67V90.4s0,5.91,5.95,5.91H38.42" fill="none" stroke="#474c54" stroke-linecap="round" stroke-linejoin="round" stroke-miterlimit="10" stroke-width="3.333"/>
    </g>
  </g>
</svg>
