<svg xmlns="http://www.w3.org/2000/svg" width="103.323" height="100.733" viewBox="0 0 103.323 100.733">
  <g id="ic_dif_06" transform="translate(-0.003 -0.003)">
    <g id="Grupo_512" data-name="Grupo 512" transform="translate(0 10)">
      <g id="XMLID_1_">
        <g id="Grupo_510" data-name="Grupo 510">
          <circle id="Elipse_26" data-name="Elipse 26" cx="5.88" cy="5.88" r="5.88" transform="translate(73.72 61.16)" fill="#f1f2f2"/>
          <path id="Trazado_157" data-name="Trazado 157" d="M101.67,65.57v2.94a2.945,2.945,0,0,1-2.94,2.94H93.64a14.613,14.613,0,0,1-1,2.38l3.6,3.6a2.939,2.939,0,0,1,0,4.16l-2.07,2.07a2.939,2.939,0,0,1-4.16,0l-3.6-3.6a14.614,14.614,0,0,1-2.38,1v5.09a2.945,2.945,0,0,1-2.94,2.94H78.15a2.945,2.945,0,0,1-2.94-2.94V81.06a14.613,14.613,0,0,1-2.38-1l-3.6,3.6a2.939,2.939,0,0,1-4.16,0L63,81.59a2.939,2.939,0,0,1,0-4.16l3.6-3.6a14.614,14.614,0,0,1-1-2.38H60.51a2.945,2.945,0,0,1-2.94-2.94V65.57a2.945,2.945,0,0,1,2.94-2.94H65.6a14.614,14.614,0,0,1,1-2.38L63,56.65a2.939,2.939,0,0,1,0-4.16l2.07-2.07a2.939,2.939,0,0,1,4.16,0l3.6,3.6a14.613,14.613,0,0,1,2.38-1V47.93a2.945,2.945,0,0,1,2.94-2.94h2.94a2.945,2.945,0,0,1,2.94,2.94V53a14.613,14.613,0,0,1,2.38,1l3.6-3.6a2.939,2.939,0,0,1,4.16,0l2.07,2.07a2.939,2.939,0,0,1,0,4.16l-3.6,3.6a14.614,14.614,0,0,1,1,2.38h5.09A2.975,2.975,0,0,1,101.67,65.57ZM85.49,67.04a5.88,5.88,0,1,0-5.88,5.88A5.877,5.877,0,0,0,85.49,67.04Z" fill="#fc8422"/>
        </g>
        <g id="Grupo_511" data-name="Grupo 511">
          <path id="Trazado_158" data-name="Trazado 158" d="M98.72,62.62H93.63a14.614,14.614,0,0,0-1-2.38l3.6-3.6a2.939,2.939,0,0,0,0-4.16l-2.07-2.07a2.939,2.939,0,0,0-4.16,0L86.4,54a14.613,14.613,0,0,0-2.38-1V47.91a2.945,2.945,0,0,0-2.94-2.94H78.14a2.945,2.945,0,0,0-2.94,2.94V53a14.613,14.613,0,0,0-2.38,1l-3.6-3.6a2.939,2.939,0,0,0-4.16,0l-2.07,2.07a2.939,2.939,0,0,0,0,4.16l3.6,3.6a14.614,14.614,0,0,0-1,2.38H60.5a2.945,2.945,0,0,0-2.94,2.94v2.94a2.945,2.945,0,0,0,2.94,2.94h5.09a14.613,14.613,0,0,0,1,2.38l-3.6,3.6a2.939,2.939,0,0,0,0,4.16l2.07,2.07a2.939,2.939,0,0,0,4.16,0l3.6-3.6a14.614,14.614,0,0,0,2.38,1v5.09a2.945,2.945,0,0,0,2.94,2.94h2.94a2.945,2.945,0,0,0,2.94-2.94V81.04a14.613,14.613,0,0,0,2.38-1l3.6,3.6a2.939,2.939,0,0,0,4.16,0l2.07-2.07a2.939,2.939,0,0,0,0-4.16l-3.6-3.6a14.614,14.614,0,0,0,1-2.38h5.09a2.945,2.945,0,0,0,2.94-2.94V65.55A2.943,2.943,0,0,0,98.72,62.62Z" fill="none" stroke="#474c54" stroke-linecap="round" stroke-linejoin="round" stroke-miterlimit="10" stroke-width="3.333"/>
          <circle id="Elipse_27" data-name="Elipse 27" cx="5.88" cy="5.88" r="5.88" transform="translate(73.72 61.16)" stroke-width="3.333" stroke="#474c54" stroke-linecap="round" stroke-linejoin="round" stroke-miterlimit="10" fill="none"/>
        </g>
      </g>
    </g>
    <g id="Grupo_514" data-name="Grupo 514">
      <g id="Grupo_513" data-name="Grupo 513">
        <path id="Trazado_159" data-name="Trazado 159" d="M42.61,15.84v7.87a1.538,1.538,0,0,0-1.57-1.57H12.7a1.538,1.538,0,0,0-1.57,1.57V39.46a3.085,3.085,0,0,1-3.15,3.15H6.39a4.716,4.716,0,0,1-4.72-4.72V6.39A4.716,4.716,0,0,1,6.39,1.67H17.41a4.716,4.716,0,0,1,4.72,4.72v4.72H37.88A4.72,4.72,0,0,1,42.61,15.84Z" fill="#f1f1f1"/>
        <path id="Trazado_160" data-name="Trazado 160" d="M42.61,23.71V37.88a4.716,4.716,0,0,1-4.72,4.72H7.97a3.085,3.085,0,0,0,3.15-3.15V23.7a1.538,1.538,0,0,1,1.57-1.57H41.03A1.556,1.556,0,0,1,42.61,23.71Z" fill="#f1f1f1"/>
      </g>
      <path id="Trazado_161" data-name="Trazado 161" d="M42.61,15.84a4.716,4.716,0,0,0-4.72-4.72H22.14V6.39a4.716,4.716,0,0,0-4.72-4.72H6.39A4.716,4.716,0,0,0,1.67,6.39V37.88A4.716,4.716,0,0,0,6.39,42.6H37.88a4.716,4.716,0,0,0,4.72-4.72V23.71a1.538,1.538,0,0,0-1.57-1.57H12.69a1.538,1.538,0,0,0-1.57,1.57V39.46a3.085,3.085,0,0,1-3.15,3.15" fill="none" stroke="#474c54" stroke-linecap="round" stroke-linejoin="round" stroke-miterlimit="10" stroke-width="3.333"/>
    </g>
    <path id="Trazado_162" data-name="Trazado 162" d="M73.92,28.43l6.3,6.3,6.3-6.3" fill="none" stroke="#474c54" stroke-linecap="round" stroke-linejoin="round" stroke-miterlimit="10" stroke-width="3.333"/>
    <path id="Trazado_163" data-name="Trazado 163" d="M80.22,34.73V20.56s0-4.72-4.72-4.72H55.63" fill="none" stroke="#474c54" stroke-linecap="round" stroke-linejoin="round" stroke-miterlimit="10" stroke-width="3.333"/>
    <path id="Trazado_164" data-name="Trazado 164" d="M26.68,61.5l-6.3-6.3-6.3,6.3" transform="translate(0 10)" fill="none" stroke="#474c54" stroke-linecap="round" stroke-linejoin="round" stroke-miterlimit="10" stroke-width="3.333"/>
    <path id="Trazado_165" data-name="Trazado 165" d="M20.38,55.2V69.37s0,4.72,4.72,4.72H48.13" transform="translate(0 10)" fill="none" stroke="#474c54" stroke-linecap="round" stroke-linejoin="round" stroke-miterlimit="10" stroke-width="3.333"/>
  </g>
</svg>
