<svg xmlns="http://www.w3.org/2000/svg" width="32.308" height="32.308" viewBox="0 0 32.308 32.308">
  <g id="ic_carpetita" transform="translate(-0.006 -0.006)">
    <g id="Grupo_551" data-name="Grupo 551">
      <path id="Trazado_173" data-name="Trazado 173" d="M31.15,11.54v5.77A1.126,1.126,0,0,0,30,16.16H9.23a1.126,1.126,0,0,0-1.15,1.15V28.85a2.262,2.262,0,0,1-2.31,2.31H4.62A3.455,3.455,0,0,1,1.16,27.7V4.62A3.455,3.455,0,0,1,4.62,1.16H12.7a3.455,3.455,0,0,1,3.46,3.46V8.08H27.7A3.446,3.446,0,0,1,31.15,11.54Z" fill="#5174b8"/>
      <path id="Trazado_174" data-name="Trazado 174" d="M31.15,17.31V27.69a3.455,3.455,0,0,1-3.46,3.46H5.77a2.262,2.262,0,0,0,2.31-2.31V17.3a1.126,1.126,0,0,1,1.15-1.15H30A1.129,1.129,0,0,1,31.15,17.31Z" fill="#5174b8"/>
    </g>
    <g id="Grupo_553" data-name="Grupo 553">
      <g id="Grupo_552" data-name="Grupo 552">
        <path id="Trazado_175" data-name="Trazado 175" d="M31.15,11.54a3.461,3.461,0,0,0-3.46-3.46H16.15V4.62a3.461,3.461,0,0,0-3.46-3.46H4.62A3.461,3.461,0,0,0,1.16,4.62V27.7a3.461,3.461,0,0,0,3.46,3.46H27.7a3.461,3.461,0,0,0,3.46-3.46V17.31a1.126,1.126,0,0,0-1.15-1.15H9.24a1.126,1.126,0,0,0-1.15,1.15V28.85a2.262,2.262,0,0,1-2.31,2.31" fill="none" stroke="#4d4e4e" stroke-linecap="round" stroke-linejoin="round" stroke-miterlimit="10" stroke-width="2.308"/>
      </g>
    </g>
  </g>
</svg>
