<svg xmlns="http://www.w3.org/2000/svg" width="263.45" height="264.899" viewBox="0 0 263.45 264.899">
  <g id="Grupo_672" data-name="Grupo 672" transform="translate(0 1.45)">
    <g id="Grupo_668" data-name="Grupo 668">
      <g id="XMLID_1_">
        <g id="Grupo_666" data-name="Grupo 666">
          <path id="Trazado_591" data-name="Trazado 591" d="M158.72,58.93h-38.8A16.61,16.61,0,0,1,103.29,42.3V3.5Z" fill="#e5205f"/>
          <path id="Trazado_592" data-name="Trazado 592" d="M158.72,58.93v94.24a16.61,16.61,0,0,1-16.63,16.63H20.13A16.61,16.61,0,0,1,3.5,153.17V20.13A16.61,16.61,0,0,1,20.13,3.5h83.15V42.3a16.61,16.61,0,0,0,16.63,16.63h38.81Z" fill="#e5205f"/>
        </g>
        <g id="Grupo_667" data-name="Grupo 667">
          <path id="Trazado_593" data-name="Trazado 593" d="M103.28,3.5V42.3a16.61,16.61,0,0,0,16.63,16.63h5.54" fill="none" stroke="#4d4e4e" stroke-linecap="round" stroke-linejoin="round" stroke-miterlimit="10" stroke-width="7"/>
          <path id="Trazado_594" data-name="Trazado 594" d="M103.28,3.5H20.13A16.61,16.61,0,0,0,3.5,20.13V153.17A16.61,16.61,0,0,0,20.13,169.8H142.09a16.61,16.61,0,0,0,16.63-16.63V58.93Z" fill="none" stroke="#4d4e4e" stroke-linecap="round" stroke-linejoin="round" stroke-miterlimit="10" stroke-width="7"/>
        </g>
      </g>
    </g>
    <g id="Grupo_669" data-name="Grupo 669">
      <path id="Trazado_595" data-name="Trazado 595" d="M258.5,147.63,203.07,92.2V131a16.636,16.636,0,0,0,16.63,16.63h5.54" fill="none" stroke="#4d4e4e" stroke-linecap="round" stroke-linejoin="round" stroke-miterlimit="10" stroke-width="7"/>
      <path id="Trazado_596" data-name="Trazado 596" d="M103.28,191.98v49.89a16.636,16.636,0,0,0,16.63,16.63H241.87a16.636,16.636,0,0,0,16.63-16.63V147.63L203.07,92.2H180.9" fill="none" stroke="#4d4e4e" stroke-linecap="round" stroke-linejoin="round" stroke-miterlimit="10" stroke-width="7"/>
    </g>
    <g id="Grupo_670" data-name="Grupo 670">
      <path id="Trazado_597" data-name="Trazado 597" d="M191.98,3.5,175.35,20.13l16.63,16.63" fill="none" stroke="#4d4e4e" stroke-linecap="round" stroke-linejoin="round" stroke-miterlimit="10" stroke-width="7"/>
      <path id="Trazado_598" data-name="Trazado 598" d="M175.35,20.13H219.7s16.63,0,16.63,16.63V81.11" fill="none" stroke="#4d4e4e" stroke-linecap="round" stroke-linejoin="round" stroke-miterlimit="10" stroke-width="7"/>
    </g>
    <g id="Grupo_671" data-name="Grupo 671">
      <path id="Trazado_599" data-name="Trazado 599" d="M58.93,258.5l16.64-16.63L58.93,225.24" fill="none" stroke="#4d4e4e" stroke-linecap="round" stroke-linejoin="round" stroke-miterlimit="10" stroke-width="7"/>
      <path id="Trazado_600" data-name="Trazado 600" d="M75.57,241.87H31.22s-16.63,0-16.63-16.63V191.98" fill="none" stroke="#4d4e4e" stroke-linecap="round" stroke-linejoin="round" stroke-miterlimit="10" stroke-width="7"/>
    </g>
  </g>
</svg>
