<svg xmlns="http://www.w3.org/2000/svg" width="324.21" height="299" viewBox="0 0 324.21 299">
  <path id="Intersección_1" data-name="Intersección 1" d="M399.94,471.5l.77-.77v.77Zm-33.42,0,34.19-34.185v8.234L374.755,471.5Zm-33.419,0,67.608-67.6v8.234L341.336,471.5Zm-33.42,0L400.71,370.486v8.233L307.915,471.5Zm-33.42,0L400.71,337.071V345.3L274.5,471.5Zm-33.4,0L400.71,303.673v8.232L241.093,471.5Zm-33.419,0L400.71,270.258v8.233L207.674,471.5Zm-33.42,0L400.71,236.843v8.233L174.254,471.5Zm-33.419,0L400.71,203.43v8.232L140.835,471.5Zm-33.419,0,299.041-299h2.487v5.747L107.415,471.5ZM76.5,460.765,364.8,172.5h8.234L76.5,469Zm0-33.4L331.4,172.5h8.234L76.5,435.6Zm0-33.415L297.982,172.5h8.234L76.5,402.184Zm0-33.414L264.563,172.5H272.8L76.5,368.769Zm0-33.415L231.142,172.5h8.235L76.5,335.354Zm0-33.415L197.723,172.5h8.235L76.5,301.94Zm0-33.414L164.3,172.5h8.234L76.5,268.525Zm0-33.414L130.884,172.5h8.234L76.5,235.109Zm0-33.4L97.481,172.5h8.234L76.5,201.711Z" transform="translate(-76.5 -172.5)" fill="#fff"/>
</svg>
