<svg xmlns="http://www.w3.org/2000/svg" width="36.918" height="32.308" viewBox="0 0 36.918 32.308">
  <g id="ic_globotxt" transform="translate(-0.006 0.004)">
    <g id="XMLID_1_">
      <g id="Grupo_51" data-name="Grupo 51">
        <path id="Trazado_78" data-name="Trazado 78" d="M35.77,4.62V23.08a3.455,3.455,0,0,1-3.46,3.46H23.08l-4.62,4.62-4.62-4.62H4.62a3.455,3.455,0,0,1-3.46-3.46V4.62A3.455,3.455,0,0,1,4.62,1.16h27.7A3.446,3.446,0,0,1,35.77,4.62Z" fill="#fc8422"/>
      </g>
      <g id="Grupo_52" data-name="Grupo 52">
        <path id="Trazado_79" data-name="Trazado 79" d="M32.31,1.15a3.455,3.455,0,0,1,3.46,3.46V23.07a3.455,3.455,0,0,1-3.46,3.46H23.08l-4.62,4.62-4.62-4.62H4.62a3.455,3.455,0,0,1-3.46-3.46V4.62A3.455,3.455,0,0,1,4.62,1.16H32.31Z" fill="none" stroke="#4d4e4e" stroke-linecap="round" stroke-linejoin="round" stroke-miterlimit="10" stroke-width="2.308"/>
      </g>
    </g>
    <line id="Línea_13" data-name="Línea 13" x2="13.84" transform="translate(8.08 8.08)" fill="none" stroke="#4d4e4e" stroke-linecap="round" stroke-linejoin="round" stroke-miterlimit="10" stroke-width="2.308"/>
    <line id="Línea_14" data-name="Línea 14" x2="13.84" transform="translate(8.08 13.85)" fill="none" stroke="#4d4e4e" stroke-linecap="round" stroke-linejoin="round" stroke-miterlimit="10" stroke-width="2.308"/>
    <line id="Línea_15" data-name="Línea 15" x2="20.77" transform="translate(8.08 19.62)" fill="none" stroke="#4d4e4e" stroke-linecap="round" stroke-linejoin="round" stroke-miterlimit="10" stroke-width="2.308"/>
  </g>
</svg>
