<svg id="ic_globotxt" xmlns="http://www.w3.org/2000/svg" width="112.23" height="98.12" viewBox="0 0 112.23 98.12">
  <path id="Trazado_184" data-name="Trazado 184" d="M100.82,2H11.41A9.406,9.406,0,0,0,2,11.41V72.59A9.406,9.406,0,0,0,11.41,82H44.35L56.11,96.12,67.88,82h32.94a9.406,9.406,0,0,0,9.41-9.41V11.41A9.4,9.4,0,0,0,100.82,2ZM27.88,46.71a7.06,7.06,0,1,1,7.06-7.06A7.046,7.046,0,0,1,27.88,46.71Zm28.24,0a7.06,7.06,0,1,1,7.06-7.06A7.046,7.046,0,0,1,56.12,46.71Zm28.23,0a7.06,7.06,0,1,1,7.06-7.06A7.046,7.046,0,0,1,84.35,46.71Z" fill="#fc8422"/>
  <g id="Grupo_556" data-name="Grupo 556">
    <path id="Trazado_185" data-name="Trazado 185" d="M100.82,2H11.41A9.406,9.406,0,0,0,2,11.41V72.59A9.406,9.406,0,0,0,11.41,82H44.35L56.11,96.12,67.88,82h32.94a9.406,9.406,0,0,0,9.41-9.41V11.41A9.4,9.4,0,0,0,100.82,2Z" fill="none" stroke="#4d4d4d" stroke-linecap="round" stroke-linejoin="round" stroke-miterlimit="10" stroke-width="4"/>
  </g>
  <g id="Grupo_557" data-name="Grupo 557">
    <circle id="Elipse_28" data-name="Elipse 28" cx="7.06" cy="7.06" r="7.06" transform="translate(49.06 32.59)" stroke-width="4" stroke="#4d4d4d" stroke-linecap="round" stroke-linejoin="round" stroke-miterlimit="10" fill="none"/>
    <circle id="Elipse_29" data-name="Elipse 29" cx="7.06" cy="7.06" r="7.06" transform="translate(77.29 32.59)" stroke-width="4" stroke="#4d4d4d" stroke-linecap="round" stroke-linejoin="round" stroke-miterlimit="10" fill="none"/>
    <circle id="Elipse_30" data-name="Elipse 30" cx="7.06" cy="7.06" r="7.06" transform="translate(20.82 32.59)" stroke-width="4" stroke="#4d4d4d" stroke-linecap="round" stroke-linejoin="round" stroke-miterlimit="10" fill="none"/>
  </g>
</svg>
