<svg id="ic_monitor" xmlns="http://www.w3.org/2000/svg" width="133.41" height="124" viewBox="0 0 133.41 124">
  <g id="Grupo_569" data-name="Grupo 569">
    <g id="Grupo_568" data-name="Grupo 568">
      <path id="Trazado_192" data-name="Trazado 192" d="M82,112.59V122H30.24v-9.41H82Z" fill="#d0d7df"/>
      <path id="Trazado_193" data-name="Trazado 193" d="M70.24,98.47l4.7,14.12H37.29L42,98.47Z" fill="#a4b0c0"/>
      <path id="Trazado_194" data-name="Trazado 194" d="M110.24,20.82V79.64H2V20.82a7.046,7.046,0,0,1,7.06-7.06h94.12A7.059,7.059,0,0,1,110.24,20.82Z" fill="#4778dc"/>
      <path id="Trazado_195" data-name="Trazado 195" d="M110.24,79.65V91.41a7.046,7.046,0,0,1-7.06,7.06H9.06A7.046,7.046,0,0,1,2,91.41V79.65Z" fill="#d0d7df"/>
    </g>
  </g>
  <g id="Grupo_577" data-name="Grupo 577">
    <g id="Grupo_574" data-name="Grupo 574">
      <g id="Grupo_573" data-name="Grupo 573">
        <g id="Grupo_572" data-name="Grupo 572">
          <g id="Grupo_571" data-name="Grupo 571">
            <g id="Grupo_570" data-name="Grupo 570">
              <line id="Línea_44" data-name="Línea 44" x2="44.71" transform="translate(13.76 79.65)" fill="none" stroke="#4d4d4d" stroke-linecap="round" stroke-linejoin="round" stroke-miterlimit="10" stroke-width="4"/>
              <path id="Trazado_196" data-name="Trazado 196" d="M30.24,122v-9.41H37.3L42,98.47H9.06A7.059,7.059,0,0,1,2,91.41V20.82a7.059,7.059,0,0,1,7.06-7.06H51.41" fill="none" stroke="#4d4d4d" stroke-linecap="round" stroke-linejoin="round" stroke-miterlimit="10" stroke-width="4"/>
              <path id="Trazado_197" data-name="Trazado 197" d="M82,122v-9.41H74.94L70.23,98.47h32.94a7.059,7.059,0,0,0,7.06-7.06V72.59" fill="none" stroke="#4d4d4d" stroke-linecap="round" stroke-linejoin="round" stroke-miterlimit="10" stroke-width="4"/>
              <line id="Línea_45" data-name="Línea 45" x2="61.18" transform="translate(25.53 122)" fill="none" stroke="#4d4d4d" stroke-linecap="round" stroke-linejoin="round" stroke-miterlimit="10" stroke-width="4"/>
              <line id="Línea_46" data-name="Línea 46" x2="18.82" transform="translate(46.71 112.59)" fill="none" stroke="#4d4d4d" stroke-linecap="round" stroke-linejoin="round" stroke-miterlimit="10" stroke-width="4"/>
              <line id="Línea_47" data-name="Línea 47" x1="18.83" transform="translate(51.41 98.47)" fill="none" stroke="#4d4d4d" stroke-linecap="round" stroke-linejoin="round" stroke-miterlimit="10" stroke-width="4"/>
            </g>
          </g>
        </g>
      </g>
    </g>
    <g id="XMLID_1_">
      <g id="Grupo_575" data-name="Grupo 575">
        <path id="Trazado_198" data-name="Trazado 198" d="M131.41,11.41V53.76A9.406,9.406,0,0,1,122,63.17H72.59L60.83,72.58V11.41A9.406,9.406,0,0,1,70.24,2H122A9.406,9.406,0,0,1,131.41,11.41Z" fill="#fc8422"/>
      </g>
      <g id="Grupo_576" data-name="Grupo 576">
        <path id="Trazado_199" data-name="Trazado 199" d="M72.59,63.18H122a9.406,9.406,0,0,0,9.41-9.41V11.41A9.406,9.406,0,0,0,122,2H70.24a9.406,9.406,0,0,0-9.41,9.41V72.59Z" fill="none" stroke="#4d4d4d" stroke-linecap="round" stroke-linejoin="round" stroke-miterlimit="10" stroke-width="4"/>
      </g>
    </g>
    <line id="Línea_48" data-name="Línea 48" x2="28.23" transform="translate(83.05 20.48)" fill="none" stroke="#4d4d4d" stroke-linecap="round" stroke-linejoin="round" stroke-miterlimit="10" stroke-width="4"/>
    <line id="Línea_49" data-name="Línea 49" x2="22.48" transform="translate(83.05 32.24)" fill="none" stroke="#4d4d4d" stroke-linecap="round" stroke-linejoin="round" stroke-miterlimit="10" stroke-width="4"/>
    <line id="Línea_50" data-name="Línea 50" x2="28.23" transform="translate(83.05 44.01)" fill="none" stroke="#4d4d4d" stroke-linecap="round" stroke-linejoin="round" stroke-miterlimit="10" stroke-width="4"/>
  </g>
</svg>
