<svg id="ic_pen" xmlns="http://www.w3.org/2000/svg" width="112.23" height="112.24" viewBox="0 0 112.23 112.24">
  <circle id="Elipse_31" data-name="Elipse 31" cx="9.41" cy="9.41" r="9.41" transform="translate(91.41 91.41)" fill="#a4b0c0"/>
  <g id="Grupo_586" data-name="Grupo 586">
    <g id="Grupo_585" data-name="Grupo 585">
      <g id="Grupo_584" data-name="Grupo 584">
        <g id="Grupo_581" data-name="Grupo 581">
          <g id="XMLID_2_">
            <g id="Grupo_579" data-name="Grupo 579">
              <rect id="Rectángulo_420" data-name="Rectángulo 420" width="18.82" height="25.88" transform="translate(16.12 2)" fill="#e91e5d"/>
              <path id="Trazado_200" data-name="Trazado 200" d="M39.65,30.24V37.3H11.41V30.24a2.36,2.36,0,0,1,2.35-2.35H37.28A2.352,2.352,0,0,1,39.65,30.24Z" fill="#a4b0c0"/>
              <path id="Trazado_201" data-name="Trazado 201" d="M49.06,63.18,25.53,110.24,2,63.18s11.76,0,11.76-11.76V46.71h4.71V37.3H32.59v9.41H37.3v4.71C37.29,63.18,49.06,63.18,49.06,63.18Z" fill="#d0d7df"/>
            </g>
            <g id="Grupo_580" data-name="Grupo 580">
              <path id="Trazado_202" data-name="Trazado 202" d="M18.47,37.29V46.7H13.76v4.71C13.76,63.18,2,63.18,2,63.18l23.53,47.06L49.06,63.18s-11.76,0-11.76-11.76V46.71H32.59V37.3" fill="none" stroke="#4d4d4d" stroke-linecap="round" stroke-linejoin="round" stroke-miterlimit="10" stroke-width="4"/>
              <path id="Trazado_203" data-name="Trazado 203" d="M34.94,27.88h2.35a2.36,2.36,0,0,1,2.35,2.35v7.06H11.41V30.23a2.36,2.36,0,0,1,2.35-2.35h2.35" fill="none" stroke="#4d4d4d" stroke-linecap="round" stroke-linejoin="round" stroke-miterlimit="10" stroke-width="4"/>
              <path id="Trazado_204" data-name="Trazado 204" d="M34.94,2V27.88H16.12V2" fill="none" stroke="#4d4d4d" stroke-linecap="round" stroke-linejoin="round" stroke-miterlimit="10" stroke-width="4"/>
            </g>
          </g>
        </g>
        <line id="Línea_51" data-name="Línea 51" y1="35.29" transform="translate(25.53 72.59)" fill="none" stroke="#4d4d4d" stroke-linecap="round" stroke-linejoin="round" stroke-miterlimit="10" stroke-width="4"/>
        <g id="XMLID_1_">
          <g id="Grupo_582" data-name="Grupo 582">
            <circle id="Elipse_32" data-name="Elipse 32" cx="4.71" cy="4.71" r="4.71" transform="translate(20.82 63.17)" fill="#a4b0c0"/>
          </g>
          <g id="Grupo_583" data-name="Grupo 583">
            <circle id="Elipse_33" data-name="Elipse 33" cx="4.71" cy="4.71" r="4.71" transform="translate(20.82 63.17)" stroke-width="4" stroke="#4d4d4d" stroke-linecap="round" stroke-linejoin="round" stroke-miterlimit="10" fill="none"/>
          </g>
        </g>
      </g>
      <path id="Trazado_205" data-name="Trazado 205" d="M91.41,100.82a9.41,9.41,0,1,1,9.41,9.41H39.65" fill="none" stroke="#4d4d4d" stroke-linecap="round" stroke-linejoin="round" stroke-miterlimit="10" stroke-width="4"/>
    </g>
    <line id="Línea_52" data-name="Línea 52" x2="16.47" transform="translate(46.71 98.47)" fill="none" stroke="#4d4d4d" stroke-linecap="round" stroke-linejoin="round" stroke-miterlimit="10" stroke-width="4"/>
    <line id="Línea_53" data-name="Línea 53" x2="21.18" transform="translate(53.76 86.71)" fill="none" stroke="#4d4d4d" stroke-linecap="round" stroke-linejoin="round" stroke-miterlimit="10" stroke-width="4"/>
    <line id="Línea_54" data-name="Línea 54" x2="4.7" transform="translate(72.59 98.47)" fill="none" stroke="#4d4d4d" stroke-linecap="round" stroke-linejoin="round" stroke-miterlimit="10" stroke-width="4"/>
  </g>
</svg>
