<svg xmlns="http://www.w3.org/2000/svg" width="298.628" height="98.85" viewBox="0 0 298.628 98.85">
  <g id="Grupo_611" data-name="Grupo 611" transform="translate(-785 -6562)">
    <g id="logo_claim" data-name="logo + claim" transform="translate(785 6562)">
      <g id="Grupo_5" data-name="Grupo 5">
        <g id="Grupo_3" data-name="Grupo 3" transform="translate(88.004 3.631)">
          <path id="Trazado_15" data-name="Trazado 15" d="M253.724,10.12V57.6H245.3V10.12Z" transform="translate(-245.3 -10.12)" fill="#fff"/>
          <path id="Trazado_16" data-name="Trazado 16" d="M295.909,86.443a6.564,6.564,0,0,1-4.348-3.667l20.213-.2q.77-6.183-1.736-10.418a13.291,13.291,0,0,0-7.911-5.9,15.743,15.743,0,0,0-7.86-.438,14.476,14.476,0,0,0-6.777,3.3,13.2,13.2,0,0,0-4.014,6.2,15.22,15.22,0,0,0-.5,7.559,12.032,12.032,0,0,0,3.448,6.289,17.3,17.3,0,0,0,7.215,4.079,15.728,15.728,0,0,0,4.474.649V86.784A8.245,8.245,0,0,1,295.909,86.443Zm-4.362-9.051a7.6,7.6,0,0,1,3.132-4.452,5.7,5.7,0,0,1,4.879-.513,5.139,5.139,0,0,1,4.022,5.141l-12.194.341Z" transform="translate(-269.286 -45.641)" fill="#fff"/>
          <path id="Trazado_17" data-name="Trazado 17" d="M384.671,95.467l-6.077-7.882-5.536,7.882h-8.366l9.747-13.238L364.39,69.17h10.35l5.776,7.584,4.513-7.584H393.4l-9.026,12.578,10.472,13.723H384.671Z" transform="translate(-321.665 -47.985)" fill="#fff"/>
          <path id="Trazado_18" data-name="Trazado 18" d="M467.254,10.12V57.6H458.83V10.12Z" transform="translate(-382.224 -10.12)" fill="#fff"/>
          <path id="Trazado_19" data-name="Trazado 19" d="M498.471,72.493a13.371,13.371,0,0,1,5.356-5.026,16.507,16.507,0,0,1,7.853-1.837,15.816,15.816,0,0,1,7.735,1.837,12.9,12.9,0,0,1,5.145,5.026,14.389,14.389,0,0,1,1.8,7.222A14.762,14.762,0,0,1,524.56,87a12.838,12.838,0,0,1-5.145,5.087,16.06,16.06,0,0,1-7.853,1.837,17.039,17.039,0,0,1-7.792-1.715,12.632,12.632,0,0,1-5.3-4.9,14.583,14.583,0,0,1-1.894-7.584A13.844,13.844,0,0,1,498.471,72.493Zm8.395,12.488a5.8,5.8,0,0,0,4.574,2.077,5.877,5.877,0,0,0,4.664-2.045,8.6,8.6,0,0,0,0-10.469A5.877,5.877,0,0,0,511.44,72.5a5.8,5.8,0,0,0-4.574,2.077,8.4,8.4,0,0,0,0,10.4Z" transform="translate(-406.431 -45.715)" fill="#fff"/>
          <path id="Trazado_20" data-name="Trazado 20" d="M681.641,72.493A13.372,13.372,0,0,1,687,67.467a16.507,16.507,0,0,1,7.853-1.837,15.816,15.816,0,0,1,7.735,1.837,12.9,12.9,0,0,1,5.145,5.026,14.388,14.388,0,0,1,1.8,7.222A14.763,14.763,0,0,1,707.73,87a12.837,12.837,0,0,1-5.145,5.087,16.06,16.06,0,0,1-7.853,1.837,17.039,17.039,0,0,1-7.792-1.715,12.632,12.632,0,0,1-5.3-4.9,14.583,14.583,0,0,1-1.894-7.584A13.844,13.844,0,0,1,681.641,72.493Zm8.395,12.488a5.8,5.8,0,0,0,4.574,2.077,5.877,5.877,0,0,0,4.664-2.045,8.6,8.6,0,0,0,0-10.469A5.877,5.877,0,0,0,694.61,72.5a5.8,5.8,0,0,0-4.574,2.077,8.4,8.4,0,0,0,0,10.4Z" transform="translate(-523.887 -45.715)" fill="#fff"/>
          <path id="Trazado_21" data-name="Trazado 21" d="M775.523,92.7a12.609,12.609,0,0,1-4.693-3.189l3.491-4.635q3.487,3.25,6.558,3.25a5.7,5.7,0,0,0,2.619-.513,1.637,1.637,0,0,0,.994-1.535,2,2,0,0,0-1.144-1.837,12.929,12.929,0,0,0-2.558-1.055c-.944-.28-1.575-.463-1.894-.542a10.2,10.2,0,0,1-5.116-3.218,7.705,7.705,0,0,1-1.686-4.9,8.43,8.43,0,0,1,4.574-7.433,11.976,11.976,0,0,1,5.837-1.3,19.973,19.973,0,0,1,5.536.664,14.393,14.393,0,0,1,4.391,2.167l-3.189,4.933a11.556,11.556,0,0,0-2.676-1.593,6.909,6.909,0,0,0-2.68-.631,4.155,4.155,0,0,0-2.346.6,1.726,1.726,0,0,0-.9,1.442,1.929,1.929,0,0,0,1.055,1.894,16.56,16.56,0,0,0,3.462,1.3c.24.079.492.161.753.24s.531.161.811.24q6.2,2.045,6.2,7.462a8.839,8.839,0,0,1-1.263,4.635,9.094,9.094,0,0,1-3.821,3.4,13.7,13.7,0,0,1-6.228,1.3A16.017,16.017,0,0,1,775.523,92.7Z" transform="translate(-582.291 -45.818)" fill="#fff"/>
          <path id="Trazado_22" data-name="Trazado 22" d="M617.938,79.715a14.425,14.425,0,0,0-1.8-7.222,12.945,12.945,0,0,0-5.145-5.026,15.806,15.806,0,0,0-7.735-1.837,16.507,16.507,0,0,0-7.853,1.837,13.347,13.347,0,0,0-5.356,5.026,13.877,13.877,0,0,0-1.894,7.222,14.583,14.583,0,0,0,1.894,7.584,12.632,12.632,0,0,0,5.3,4.9,18.466,18.466,0,0,0,14.171.57v.3a5.187,5.187,0,0,1-2.167,4.424,8.429,8.429,0,0,1-4.506,1.564v7.355a18.169,18.169,0,0,0,7.182-1.7,14.4,14.4,0,0,0,5.776-4.754,11.507,11.507,0,0,0,2.138-6.77V80.016L617.927,80C617.934,79.905,617.938,79.812,617.938,79.715Zm-10.26,5.3a5.877,5.877,0,0,1-4.664,2.045,5.8,5.8,0,0,1-4.574-2.077,8.41,8.41,0,0,1,0-10.411,5.8,5.8,0,0,1,4.574-2.077,5.877,5.877,0,0,1,4.664,2.045,8.613,8.613,0,0,1,0,10.476Z" transform="translate(-465.149 -45.715)" fill="#fff"/>
        </g>
        <g id="Grupo_4" data-name="Grupo 4">
          <path id="Trazado_23" data-name="Trazado 23" d="M68.569,83.625H53.254V68.31H44.83V92.053H68.569Z" transform="translate(-28.747 -43.803)" fill="#fff"/>
          <path id="Trazado_24" data-name="Trazado 24" d="M83.625,68.569h8.427V44.83H68.31v8.424H83.625Z" transform="translate(-43.803 -28.747)" fill="#fff"/>
          <path id="Trazado_25" data-name="Trazado 25" d="M8.424,0H0V64.329H64.329V0ZM55.905,55.905H8.424V8.424H55.905Z" fill="#fff"/>
        </g>
      </g>
      <g id="Grupo_6" data-name="Grupo 6" transform="translate(87.999 70.849)">
        <text id="Translation_lovers" data-name="Translation lovers" transform="translate(0 22)" fill="#fff" font-size="21" font-family="OpenSans-Bold, Open Sans" font-weight="700"><tspan x="0" y="0">Translation lovers</tspan></text>
      </g>
    </g>
  </g>
</svg>
