<svg xmlns="http://www.w3.org/2000/svg" width="37.88" height="31.579" viewBox="0 0 37.88 31.579">
  <g id="ic_mail" transform="translate(-0.001 0)">
    <g id="XMLID_1_">
      <path id="Trazado_176" data-name="Trazado 176" d="M36.41,1.48A2.35,2.35,0,0,0,34.74.79H3.16a2.357,2.357,0,0,0-1.67.69,2.389,2.389,0,0,0-.7,1.68V25.27a2.356,2.356,0,0,0,2.36,2.36H15.78l3.16,3.16,3.16-3.16H34.73a2.356,2.356,0,0,0,2.36-2.36V3.16A2.269,2.269,0,0,0,36.41,1.48Z" fill="#4778dc"/>
      <g id="Grupo_554" data-name="Grupo 554">
        <path id="Trazado_177" data-name="Trazado 177" d="M1.58,1.58,16.59,11.82l2.36,1.6,2.35-1.6L36.32,1.58" fill="none" stroke="#4d4d4d" stroke-linecap="round" stroke-linejoin="round" stroke-miterlimit="10" stroke-width="1.579"/>
        <line id="Línea_38" data-name="Línea 38" x1="9.47" y2="9.48" transform="translate(7.11 11.84)" fill="none" stroke="#4d4d4d" stroke-linecap="round" stroke-linejoin="round" stroke-miterlimit="10" stroke-width="1.579"/>
        <line id="Línea_39" data-name="Línea 39" x2="9.47" y2="9.48" transform="translate(21.32 11.84)" fill="none" stroke="#4d4d4d" stroke-linecap="round" stroke-linejoin="round" stroke-miterlimit="10" stroke-width="1.579"/>
        <path id="Trazado_178" data-name="Trazado 178" d="M36.41,1.48A2.35,2.35,0,0,0,34.74.79H3.16a2.357,2.357,0,0,0-1.67.69,2.389,2.389,0,0,0-.7,1.68V25.27a2.356,2.356,0,0,0,2.36,2.36H15.78l3.16,3.16,3.16-3.16H34.73a2.356,2.356,0,0,0,2.36-2.36V3.16A2.269,2.269,0,0,0,36.41,1.48Z" fill="none" stroke="#4d4d4d" stroke-linecap="round" stroke-linejoin="round" stroke-miterlimit="10" stroke-width="1.579"/>
      </g>
    </g>
  </g>
</svg>
