<svg xmlns="http://www.w3.org/2000/svg" xmlns:xlink="http://www.w3.org/1999/xlink" width="304.681" height="55.485" viewBox="0 0 304.681 55.485">
  <defs>
    <clipPath id="clip-path">
      <rect id="Rectángulo_407" data-name="Rectángulo 407" width="55.485" height="304.681" fill="#4778dc"/>
    </clipPath>
  </defs>
  <g id="rayas_01" transform="translate(948.591 -736.713) rotate(90)">
    <g id="Grupo_445" data-name="Grupo 445" transform="translate(736.713 643.91)" clip-path="url(#clip-path)">
      <g id="Grupo_393" data-name="Grupo 393" transform="translate(-368.563 -303.624)">
        <rect id="Rectángulo_355" data-name="Rectángulo 355" width="713.925" height="2.358" transform="matrix(0.707, -0.707, 0.707, 0.707, 0, 504.816)" fill="#4778dc"/>
      </g>
      <g id="Grupo_394" data-name="Grupo 394" transform="translate(-361.795 -296.859)">
        <rect id="Rectángulo_356" data-name="Rectángulo 356" width="713.925" height="2.358" transform="matrix(0.707, -0.707, 0.707, 0.707, 0, 504.816)" fill="#4778dc"/>
      </g>
      <g id="Grupo_395" data-name="Grupo 395" transform="translate(-355.028 -290.093)">
        <rect id="Rectángulo_357" data-name="Rectángulo 357" width="713.925" height="2.358" transform="matrix(0.707, -0.707, 0.707, 0.707, 0, 504.816)" fill="#4778dc"/>
      </g>
      <g id="Grupo_396" data-name="Grupo 396" transform="translate(-348.26 -283.327)">
        <rect id="Rectángulo_358" data-name="Rectángulo 358" width="713.925" height="2.358" transform="matrix(0.707, -0.707, 0.707, 0.707, 0, 504.816)" fill="#4778dc"/>
      </g>
      <g id="Grupo_397" data-name="Grupo 397" transform="translate(-341.497 -276.558)">
        <rect id="Rectángulo_359" data-name="Rectángulo 359" width="713.925" height="2.358" transform="matrix(0.707, -0.707, 0.707, 0.707, 0, 504.816)" fill="#4778dc"/>
      </g>
      <g id="Grupo_398" data-name="Grupo 398" transform="translate(-334.729 -269.792)">
        <rect id="Rectángulo_360" data-name="Rectángulo 360" width="713.925" height="2.358" transform="matrix(0.707, -0.707, 0.707, 0.707, 0, 504.816)" fill="#4778dc"/>
      </g>
      <g id="Grupo_399" data-name="Grupo 399" transform="translate(-327.965 -263.03)">
        <rect id="Rectángulo_361" data-name="Rectángulo 361" width="713.925" height="2.358" transform="matrix(0.707, -0.707, 0.707, 0.707, 0, 504.816)" fill="#4778dc"/>
      </g>
      <g id="Grupo_400" data-name="Grupo 400" transform="translate(-321.198 -256.264)">
        <rect id="Rectángulo_362" data-name="Rectángulo 362" width="713.925" height="2.358" transform="matrix(0.707, -0.707, 0.707, 0.707, 0, 504.816)" fill="#4778dc"/>
      </g>
      <g id="Grupo_401" data-name="Grupo 401" transform="translate(-314.43 -249.498)">
        <rect id="Rectángulo_363" data-name="Rectángulo 363" width="713.925" height="2.358" transform="matrix(0.707, -0.707, 0.707, 0.707, 0, 504.816)" fill="#4778dc"/>
      </g>
      <g id="Grupo_402" data-name="Grupo 402" transform="translate(-307.663 -242.732)">
        <rect id="Rectángulo_364" data-name="Rectángulo 364" width="713.925" height="2.358" transform="matrix(0.707, -0.707, 0.707, 0.707, 0, 504.816)" fill="#4778dc"/>
      </g>
      <g id="Grupo_403" data-name="Grupo 403" transform="translate(-300.895 -235.967)">
        <rect id="Rectángulo_365" data-name="Rectángulo 365" width="713.925" height="2.358" transform="matrix(0.707, -0.707, 0.707, 0.707, 0, 504.816)" fill="#4778dc"/>
      </g>
      <g id="Grupo_404" data-name="Grupo 404" transform="translate(-294.131 -229.197)">
        <rect id="Rectángulo_366" data-name="Rectángulo 366" width="713.925" height="2.358" transform="matrix(0.707, -0.707, 0.707, 0.707, 0, 504.816)" fill="#4778dc"/>
      </g>
      <g id="Grupo_405" data-name="Grupo 405" transform="translate(-287.364 -222.432)">
        <rect id="Rectángulo_367" data-name="Rectángulo 367" width="713.925" height="2.358" transform="matrix(0.707, -0.707, 0.707, 0.707, 0, 504.816)" fill="#4778dc"/>
      </g>
      <g id="Grupo_406" data-name="Grupo 406" transform="translate(-280.6 -215.669)">
        <rect id="Rectángulo_368" data-name="Rectángulo 368" width="713.925" height="2.358" transform="matrix(0.707, -0.707, 0.707, 0.707, 0, 504.816)" fill="#4778dc"/>
      </g>
      <g id="Grupo_407" data-name="Grupo 407" transform="translate(-273.833 -208.903)">
        <rect id="Rectángulo_369" data-name="Rectángulo 369" width="713.925" height="2.358" transform="matrix(0.707, -0.707, 0.707, 0.707, 0, 504.816)" fill="#4778dc"/>
      </g>
      <g id="Grupo_408" data-name="Grupo 408" transform="translate(-267.065 -202.138)">
        <rect id="Rectángulo_370" data-name="Rectángulo 370" width="713.925" height="2.358" transform="matrix(0.707, -0.707, 0.707, 0.707, 0, 504.816)" fill="#4778dc"/>
      </g>
      <g id="Grupo_409" data-name="Grupo 409" transform="translate(-260.298 -195.372)">
        <rect id="Rectángulo_371" data-name="Rectángulo 371" width="713.925" height="2.358" transform="matrix(0.707, -0.707, 0.707, 0.707, 0, 504.816)" fill="#4778dc"/>
      </g>
      <g id="Grupo_410" data-name="Grupo 410" transform="translate(-253.534 -188.603)">
        <rect id="Rectángulo_372" data-name="Rectángulo 372" width="713.925" height="2.358" transform="matrix(0.707, -0.707, 0.707, 0.707, 0, 504.816)" fill="#4778dc"/>
      </g>
      <g id="Grupo_411" data-name="Grupo 411" transform="translate(-246.766 -181.837)">
        <rect id="Rectángulo_373" data-name="Rectángulo 373" width="713.925" height="2.358" transform="matrix(0.707, -0.707, 0.707, 0.707, 0, 504.816)" fill="#4778dc"/>
      </g>
      <g id="Grupo_412" data-name="Grupo 412" transform="translate(-240.002 -175.074)">
        <rect id="Rectángulo_374" data-name="Rectángulo 374" width="713.925" height="2.358" transform="matrix(0.707, -0.707, 0.707, 0.707, 0, 504.816)" fill="#4778dc"/>
      </g>
      <g id="Grupo_413" data-name="Grupo 413" transform="translate(-233.235 -168.309)">
        <rect id="Rectángulo_375" data-name="Rectángulo 375" width="713.925" height="2.358" transform="matrix(0.707, -0.707, 0.707, 0.707, 0, 504.816)" fill="#4778dc"/>
      </g>
      <g id="Grupo_414" data-name="Grupo 414" transform="translate(-226.468 -161.543)">
        <rect id="Rectángulo_376" data-name="Rectángulo 376" width="713.925" height="2.358" transform="matrix(0.707, -0.707, 0.707, 0.707, 0, 504.816)" fill="#4778dc"/>
      </g>
      <g id="Grupo_415" data-name="Grupo 415" transform="translate(-219.7 -154.777)">
        <rect id="Rectángulo_377" data-name="Rectángulo 377" width="713.925" height="2.358" transform="matrix(0.707, -0.707, 0.707, 0.707, 0, 504.816)" fill="#4778dc"/>
      </g>
      <g id="Grupo_416" data-name="Grupo 416" transform="translate(-212.933 -148.011)">
        <rect id="Rectángulo_378" data-name="Rectángulo 378" width="713.925" height="2.358" transform="matrix(0.707, -0.707, 0.707, 0.707, 0, 504.816)" fill="#4778dc"/>
      </g>
      <g id="Grupo_417" data-name="Grupo 417" transform="translate(-206.169 -141.242)">
        <rect id="Rectángulo_379" data-name="Rectángulo 379" width="713.925" height="2.358" transform="matrix(0.707, -0.707, 0.707, 0.707, 0, 504.816)" fill="#4778dc"/>
      </g>
      <g id="Grupo_418" data-name="Grupo 418" transform="translate(-199.401 -134.476)">
        <rect id="Rectángulo_380" data-name="Rectángulo 380" width="713.925" height="2.358" transform="matrix(0.707, -0.707, 0.707, 0.707, 0, 504.816)" fill="#4778dc"/>
      </g>
      <g id="Grupo_419" data-name="Grupo 419" transform="translate(-192.637 -127.714)">
        <rect id="Rectángulo_381" data-name="Rectángulo 381" width="713.925" height="2.358" transform="matrix(0.707, -0.707, 0.707, 0.707, 0, 504.816)" fill="#4778dc"/>
      </g>
      <g id="Grupo_420" data-name="Grupo 420" transform="translate(-185.87 -120.948)">
        <rect id="Rectángulo_382" data-name="Rectángulo 382" width="713.925" height="2.358" transform="matrix(0.707, -0.707, 0.707, 0.707, 0, 504.816)" fill="#4778dc"/>
      </g>
      <g id="Grupo_421" data-name="Grupo 421" transform="translate(-179.102 -114.182)">
        <rect id="Rectángulo_383" data-name="Rectángulo 383" width="713.925" height="2.358" transform="matrix(0.707, -0.707, 0.707, 0.707, 0, 504.816)" fill="#4778dc"/>
      </g>
      <g id="Grupo_422" data-name="Grupo 422" transform="translate(-172.335 -107.417)">
        <rect id="Rectángulo_384" data-name="Rectángulo 384" width="713.925" height="2.358" transform="matrix(0.707, -0.707, 0.707, 0.707, 0, 504.816)" fill="#4778dc"/>
      </g>
      <g id="Grupo_423" data-name="Grupo 423" transform="translate(-165.571 -100.647)">
        <rect id="Rectángulo_385" data-name="Rectángulo 385" width="713.925" height="2.358" transform="matrix(0.707, -0.707, 0.707, 0.707, 0, 504.816)" fill="#4778dc"/>
      </g>
      <g id="Grupo_424" data-name="Grupo 424" transform="translate(-158.804 -93.882)">
        <rect id="Rectángulo_386" data-name="Rectángulo 386" width="713.925" height="2.358" transform="matrix(0.707, -0.707, 0.707, 0.707, 0, 504.816)" fill="#4778dc"/>
      </g>
      <g id="Grupo_425" data-name="Grupo 425" transform="translate(-152.04 -87.119)">
        <rect id="Rectángulo_387" data-name="Rectángulo 387" width="713.925" height="2.358" transform="matrix(0.707, -0.707, 0.707, 0.707, 0, 504.816)" fill="#4778dc"/>
      </g>
      <g id="Grupo_426" data-name="Grupo 426" transform="translate(-145.272 -80.353)">
        <rect id="Rectángulo_388" data-name="Rectángulo 388" width="713.925" height="2.358" transform="matrix(0.707, -0.707, 0.707, 0.707, 0, 504.816)" fill="#4778dc"/>
      </g>
      <g id="Grupo_427" data-name="Grupo 427" transform="translate(-138.505 -73.587)">
        <rect id="Rectángulo_389" data-name="Rectángulo 389" width="713.925" height="2.358" transform="matrix(0.707, -0.707, 0.707, 0.707, 0, 504.816)" fill="#4778dc"/>
      </g>
      <g id="Grupo_428" data-name="Grupo 428" transform="translate(-131.737 -66.822)">
        <rect id="Rectángulo_390" data-name="Rectángulo 390" width="713.925" height="2.358" transform="matrix(0.707, -0.707, 0.707, 0.707, 0, 504.816)" fill="#4778dc"/>
      </g>
      <g id="Grupo_429" data-name="Grupo 429" transform="translate(-124.973 -60.053)">
        <rect id="Rectángulo_391" data-name="Rectángulo 391" width="713.925" height="2.358" transform="matrix(0.707, -0.707, 0.707, 0.707, 0, 504.816)" fill="#4778dc"/>
      </g>
      <g id="Grupo_430" data-name="Grupo 430" transform="translate(-118.206 -53.287)">
        <rect id="Rectángulo_392" data-name="Rectángulo 392" width="713.925" height="2.358" transform="matrix(0.707, -0.707, 0.707, 0.707, 0, 504.816)" fill="#4778dc"/>
      </g>
      <g id="Grupo_431" data-name="Grupo 431" transform="translate(-111.439 -46.521)">
        <rect id="Rectángulo_393" data-name="Rectángulo 393" width="713.925" height="2.358" transform="matrix(0.707, -0.707, 0.707, 0.707, 0, 504.816)" fill="#4778dc"/>
      </g>
      <g id="Grupo_432" data-name="Grupo 432" transform="translate(-104.675 -39.759)">
        <rect id="Rectángulo_394" data-name="Rectángulo 394" width="713.925" height="2.358" transform="matrix(0.707, -0.707, 0.707, 0.707, 0, 504.816)" fill="#4778dc"/>
      </g>
      <g id="Grupo_433" data-name="Grupo 433" transform="translate(-97.907 -32.993)">
        <rect id="Rectángulo_395" data-name="Rectángulo 395" width="713.925" height="2.358" transform="matrix(0.707, -0.707, 0.707, 0.707, 0, 504.816)" fill="#4778dc"/>
      </g>
      <g id="Grupo_434" data-name="Grupo 434" transform="translate(-91.14 -26.227)">
        <rect id="Rectángulo_396" data-name="Rectángulo 396" width="713.925" height="2.358" transform="matrix(0.707, -0.707, 0.707, 0.707, 0, 504.816)" fill="#4778dc"/>
      </g>
      <g id="Grupo_435" data-name="Grupo 435" transform="translate(-84.372 -19.461)">
        <rect id="Rectángulo_397" data-name="Rectángulo 397" width="713.925" height="2.358" transform="matrix(0.707, -0.707, 0.707, 0.707, 0, 504.816)" fill="#4778dc"/>
      </g>
      <g id="Grupo_436" data-name="Grupo 436" transform="translate(-77.608 -12.692)">
        <rect id="Rectángulo_398" data-name="Rectángulo 398" width="713.925" height="2.358" transform="matrix(0.707, -0.707, 0.707, 0.707, 0, 504.816)" fill="#4778dc"/>
      </g>
      <g id="Grupo_437" data-name="Grupo 437" transform="translate(-70.841 -5.926)">
        <rect id="Rectángulo_399" data-name="Rectángulo 399" width="713.925" height="2.358" transform="matrix(0.707, -0.707, 0.707, 0.707, 0, 504.816)" fill="#4778dc"/>
      </g>
      <g id="Grupo_438" data-name="Grupo 438" transform="translate(-64.077 0.836)">
        <rect id="Rectángulo_400" data-name="Rectángulo 400" width="713.925" height="2.358" transform="matrix(0.707, -0.707, 0.707, 0.707, 0, 504.816)" fill="#4778dc"/>
      </g>
      <g id="Grupo_439" data-name="Grupo 439" transform="translate(-57.31 7.602)">
        <rect id="Rectángulo_401" data-name="Rectángulo 401" width="713.925" height="2.358" transform="matrix(0.707, -0.707, 0.707, 0.707, 0, 504.816)" fill="#4778dc"/>
      </g>
      <g id="Grupo_440" data-name="Grupo 440" transform="translate(-50.542 14.368)">
        <rect id="Rectángulo_402" data-name="Rectángulo 402" width="713.925" height="2.358" transform="matrix(0.707, -0.707, 0.707, 0.707, 0, 504.816)" fill="#4778dc"/>
      </g>
      <g id="Grupo_441" data-name="Grupo 441" transform="translate(-43.775 21.134)">
        <rect id="Rectángulo_403" data-name="Rectángulo 403" width="713.925" height="2.358" transform="matrix(0.707, -0.707, 0.707, 0.707, 0, 504.816)" fill="#4778dc"/>
      </g>
      <g id="Grupo_442" data-name="Grupo 442" transform="translate(-37.011 27.903)">
        <rect id="Rectángulo_404" data-name="Rectángulo 404" width="713.925" height="2.358" transform="matrix(0.707, -0.707, 0.707, 0.707, 0, 504.816)" fill="#4778dc"/>
      </g>
      <g id="Grupo_443" data-name="Grupo 443" transform="translate(-30.243 34.668)">
        <rect id="Rectángulo_405" data-name="Rectángulo 405" width="713.925" height="2.358" transform="matrix(0.707, -0.707, 0.707, 0.707, 0, 504.816)" fill="#4778dc"/>
      </g>
      <g id="Grupo_444" data-name="Grupo 444" transform="translate(-23.476 41.434)">
        <rect id="Rectángulo_406" data-name="Rectángulo 406" width="713.925" height="2.358" transform="matrix(0.707, -0.707, 0.707, 0.707, 0, 504.816)" fill="#4778dc"/>
      </g>
    </g>
  </g>
</svg>
