<svg xmlns="http://www.w3.org/2000/svg" xmlns:xlink="http://www.w3.org/1999/xlink" width="187.489" height="127.26" viewBox="0 0 187.489 127.26">
  <defs>
    <clipPath id="clip-path">
      <rect id="Rectángulo_407" data-name="Rectángulo 407" width="127.26" height="187.489" transform="translate(0 15)" fill="#fc8422"/>
    </clipPath>
  </defs>
  <g id="rayas_01" transform="translate(846.399 -668.713) rotate(90)">
    <g id="Grupo_445" data-name="Grupo 445" transform="translate(668.713 643.91)" clip-path="url(#clip-path)">
      <g id="Grupo_393" data-name="Grupo 393" transform="translate(-199.752 -201.787)">
        <rect id="Rectángulo_355" data-name="Rectángulo 355" width="474.47" height="1.567" transform="matrix(0.707, -0.707, 0.707, 0.707, 0, 335.498)" fill="#fc8422"/>
      </g>
      <g id="Grupo_394" data-name="Grupo 394" transform="translate(-195.254 -197.29)">
        <rect id="Rectángulo_356" data-name="Rectángulo 356" width="474.47" height="1.567" transform="matrix(0.707, -0.707, 0.707, 0.707, 0, 335.498)" fill="#fc8422"/>
      </g>
      <g id="Grupo_395" data-name="Grupo 395" transform="translate(-190.757 -192.794)">
        <rect id="Rectángulo_357" data-name="Rectángulo 357" width="474.47" height="1.567" transform="matrix(0.707, -0.707, 0.707, 0.707, 0, 335.498)" fill="#fc8422"/>
      </g>
      <g id="Grupo_396" data-name="Grupo 396" transform="translate(-186.259 -188.297)">
        <rect id="Rectángulo_358" data-name="Rectángulo 358" width="474.47" height="1.567" transform="matrix(0.707, -0.707, 0.707, 0.707, 0, 335.498)" fill="#fc8422"/>
      </g>
      <g id="Grupo_397" data-name="Grupo 397" transform="translate(-181.764 -183.799)">
        <rect id="Rectángulo_359" data-name="Rectángulo 359" width="474.47" height="1.567" transform="matrix(0.707, -0.707, 0.707, 0.707, 0, 335.498)" fill="#fc8422"/>
      </g>
      <g id="Grupo_398" data-name="Grupo 398" transform="translate(-177.266 -179.302)">
        <rect id="Rectángulo_360" data-name="Rectángulo 360" width="474.47" height="1.567" transform="matrix(0.707, -0.707, 0.707, 0.707, 0, 335.498)" fill="#fc8422"/>
      </g>
      <g id="Grupo_399" data-name="Grupo 399" transform="translate(-172.771 -174.808)">
        <rect id="Rectángulo_361" data-name="Rectángulo 361" width="474.47" height="1.567" transform="matrix(0.707, -0.707, 0.707, 0.707, 0, 335.498)" fill="#fc8422"/>
      </g>
      <g id="Grupo_400" data-name="Grupo 400" transform="translate(-168.274 -170.311)">
        <rect id="Rectángulo_362" data-name="Rectángulo 362" width="474.47" height="1.567" transform="matrix(0.707, -0.707, 0.707, 0.707, 0, 335.498)" fill="#fc8422"/>
      </g>
      <g id="Grupo_401" data-name="Grupo 401" transform="translate(-163.776 -165.815)">
        <rect id="Rectángulo_363" data-name="Rectángulo 363" width="474.47" height="1.567" transform="matrix(0.707, -0.707, 0.707, 0.707, 0, 335.498)" fill="#fc8422"/>
      </g>
      <g id="Grupo_402" data-name="Grupo 402" transform="translate(-159.278 -161.318)">
        <rect id="Rectángulo_364" data-name="Rectángulo 364" width="474.47" height="1.567" transform="matrix(0.707, -0.707, 0.707, 0.707, 0, 335.498)" fill="#fc8422"/>
      </g>
      <g id="Grupo_403" data-name="Grupo 403" transform="translate(-154.781 -156.822)">
        <rect id="Rectángulo_365" data-name="Rectángulo 365" width="474.47" height="1.567" transform="matrix(0.707, -0.707, 0.707, 0.707, 0, 335.498)" fill="#fc8422"/>
      </g>
      <g id="Grupo_404" data-name="Grupo 404" transform="translate(-150.285 -152.323)">
        <rect id="Rectángulo_366" data-name="Rectángulo 366" width="474.47" height="1.567" transform="matrix(0.707, -0.707, 0.707, 0.707, 0, 335.498)" fill="#fc8422"/>
      </g>
      <g id="Grupo_405" data-name="Grupo 405" transform="translate(-145.788 -147.827)">
        <rect id="Rectángulo_367" data-name="Rectángulo 367" width="474.47" height="1.567" transform="matrix(0.707, -0.707, 0.707, 0.707, 0, 335.498)" fill="#fc8422"/>
      </g>
      <g id="Grupo_406" data-name="Grupo 406" transform="translate(-141.293 -143.332)">
        <rect id="Rectángulo_368" data-name="Rectángulo 368" width="474.47" height="1.567" transform="matrix(0.707, -0.707, 0.707, 0.707, 0, 335.498)" fill="#fc8422"/>
      </g>
      <g id="Grupo_407" data-name="Grupo 407" transform="translate(-136.795 -138.836)">
        <rect id="Rectángulo_369" data-name="Rectángulo 369" width="474.47" height="1.567" transform="matrix(0.707, -0.707, 0.707, 0.707, 0, 335.498)" fill="#fc8422"/>
      </g>
      <g id="Grupo_408" data-name="Grupo 408" transform="translate(-132.297 -134.339)">
        <rect id="Rectángulo_370" data-name="Rectángulo 370" width="474.47" height="1.567" transform="matrix(0.707, -0.707, 0.707, 0.707, 0, 335.498)" fill="#fc8422"/>
      </g>
      <g id="Grupo_409" data-name="Grupo 409" transform="translate(-127.8 -129.843)">
        <rect id="Rectángulo_371" data-name="Rectángulo 371" width="474.47" height="1.567" transform="matrix(0.707, -0.707, 0.707, 0.707, 0, 335.498)" fill="#fc8422"/>
      </g>
      <g id="Grupo_410" data-name="Grupo 410" transform="translate(-123.305 -125.344)">
        <rect id="Rectángulo_372" data-name="Rectángulo 372" width="474.47" height="1.567" transform="matrix(0.707, -0.707, 0.707, 0.707, 0, 335.498)" fill="#fc8422"/>
      </g>
      <g id="Grupo_411" data-name="Grupo 411" transform="translate(-118.807 -120.848)">
        <rect id="Rectángulo_373" data-name="Rectángulo 373" width="474.47" height="1.567" transform="matrix(0.707, -0.707, 0.707, 0.707, 0, 335.498)" fill="#fc8422"/>
      </g>
      <g id="Grupo_412" data-name="Grupo 412" transform="translate(-114.312 -116.353)">
        <rect id="Rectángulo_374" data-name="Rectángulo 374" width="474.47" height="1.567" transform="matrix(0.707, -0.707, 0.707, 0.707, 0, 335.498)" fill="#fc8422"/>
      </g>
      <g id="Grupo_413" data-name="Grupo 413" transform="translate(-109.814 -111.857)">
        <rect id="Rectángulo_375" data-name="Rectángulo 375" width="474.47" height="1.567" transform="matrix(0.707, -0.707, 0.707, 0.707, 0, 335.498)" fill="#fc8422"/>
      </g>
      <g id="Grupo_414" data-name="Grupo 414" transform="translate(-105.317 -107.36)">
        <rect id="Rectángulo_376" data-name="Rectángulo 376" width="474.47" height="1.567" transform="matrix(0.707, -0.707, 0.707, 0.707, 0, 335.498)" fill="#fc8422"/>
      </g>
      <g id="Grupo_415" data-name="Grupo 415" transform="translate(-100.819 -102.864)">
        <rect id="Rectángulo_377" data-name="Rectángulo 377" width="474.47" height="1.567" transform="matrix(0.707, -0.707, 0.707, 0.707, 0, 335.498)" fill="#fc8422"/>
      </g>
      <g id="Grupo_416" data-name="Grupo 416" transform="translate(-96.321 -98.367)">
        <rect id="Rectángulo_378" data-name="Rectángulo 378" width="474.47" height="1.567" transform="matrix(0.707, -0.707, 0.707, 0.707, 0, 335.498)" fill="#fc8422"/>
      </g>
      <g id="Grupo_417" data-name="Grupo 417" transform="translate(-91.826 -93.869)">
        <rect id="Rectángulo_379" data-name="Rectángulo 379" width="474.47" height="1.567" transform="matrix(0.707, -0.707, 0.707, 0.707, 0, 335.498)" fill="#fc8422"/>
      </g>
      <g id="Grupo_418" data-name="Grupo 418" transform="translate(-87.328 -89.372)">
        <rect id="Rectángulo_380" data-name="Rectángulo 380" width="474.47" height="1.567" transform="matrix(0.707, -0.707, 0.707, 0.707, 0, 335.498)" fill="#fc8422"/>
      </g>
      <g id="Grupo_419" data-name="Grupo 419" transform="translate(-82.833 -84.878)">
        <rect id="Rectángulo_381" data-name="Rectángulo 381" width="474.47" height="1.567" transform="matrix(0.707, -0.707, 0.707, 0.707, 0, 335.498)" fill="#fc8422"/>
      </g>
      <g id="Grupo_420" data-name="Grupo 420" transform="translate(-78.336 -80.381)">
        <rect id="Rectángulo_382" data-name="Rectángulo 382" width="474.47" height="1.567" transform="matrix(0.707, -0.707, 0.707, 0.707, 0, 335.498)" fill="#fc8422"/>
      </g>
      <g id="Grupo_421" data-name="Grupo 421" transform="translate(-73.838 -75.885)">
        <rect id="Rectángulo_383" data-name="Rectángulo 383" width="474.47" height="1.567" transform="matrix(0.707, -0.707, 0.707, 0.707, 0, 335.498)" fill="#fc8422"/>
      </g>
      <g id="Grupo_422" data-name="Grupo 422" transform="translate(-69.34 -71.388)">
        <rect id="Rectángulo_384" data-name="Rectángulo 384" width="474.47" height="1.567" transform="matrix(0.707, -0.707, 0.707, 0.707, 0, 335.498)" fill="#fc8422"/>
      </g>
      <g id="Grupo_423" data-name="Grupo 423" transform="translate(-64.845 -66.89)">
        <rect id="Rectángulo_385" data-name="Rectángulo 385" width="474.47" height="1.567" transform="matrix(0.707, -0.707, 0.707, 0.707, 0, 335.498)" fill="#fc8422"/>
      </g>
      <g id="Grupo_424" data-name="Grupo 424" transform="translate(-60.347 -62.393)">
        <rect id="Rectángulo_386" data-name="Rectángulo 386" width="474.47" height="1.567" transform="matrix(0.707, -0.707, 0.707, 0.707, 0, 335.498)" fill="#fc8422"/>
      </g>
      <g id="Grupo_425" data-name="Grupo 425" transform="translate(-55.852 -57.899)">
        <rect id="Rectángulo_387" data-name="Rectángulo 387" width="474.47" height="1.567" transform="matrix(0.707, -0.707, 0.707, 0.707, 0, 335.498)" fill="#fc8422"/>
      </g>
      <g id="Grupo_426" data-name="Grupo 426" transform="translate(-51.355 -53.402)">
        <rect id="Rectángulo_388" data-name="Rectángulo 388" width="474.47" height="1.567" transform="matrix(0.707, -0.707, 0.707, 0.707, 0, 335.498)" fill="#fc8422"/>
      </g>
      <g id="Grupo_427" data-name="Grupo 427" transform="translate(-46.857 -48.906)">
        <rect id="Rectángulo_389" data-name="Rectángulo 389" width="474.47" height="1.567" transform="matrix(0.707, -0.707, 0.707, 0.707, 0, 335.498)" fill="#fc8422"/>
      </g>
      <g id="Grupo_428" data-name="Grupo 428" transform="translate(-42.359 -44.409)">
        <rect id="Rectángulo_390" data-name="Rectángulo 390" width="474.47" height="1.567" transform="matrix(0.707, -0.707, 0.707, 0.707, 0, 335.498)" fill="#fc8422"/>
      </g>
      <g id="Grupo_429" data-name="Grupo 429" transform="translate(-37.864 -39.911)">
        <rect id="Rectángulo_391" data-name="Rectángulo 391" width="474.47" height="1.567" transform="matrix(0.707, -0.707, 0.707, 0.707, 0, 335.498)" fill="#fc8422"/>
      </g>
      <g id="Grupo_430" data-name="Grupo 430" transform="translate(-33.367 -35.414)">
        <rect id="Rectángulo_392" data-name="Rectángulo 392" width="474.47" height="1.567" transform="matrix(0.707, -0.707, 0.707, 0.707, 0, 335.498)" fill="#fc8422"/>
      </g>
      <g id="Grupo_431" data-name="Grupo 431" transform="translate(-28.869 -30.918)">
        <rect id="Rectángulo_393" data-name="Rectángulo 393" width="474.47" height="1.567" transform="matrix(0.707, -0.707, 0.707, 0.707, 0, 335.498)" fill="#fc8422"/>
      </g>
      <g id="Grupo_432" data-name="Grupo 432" transform="translate(-24.374 -26.423)">
        <rect id="Rectángulo_394" data-name="Rectángulo 394" width="474.47" height="1.567" transform="matrix(0.707, -0.707, 0.707, 0.707, 0, 335.498)" fill="#fc8422"/>
      </g>
      <g id="Grupo_433" data-name="Grupo 433" transform="translate(-19.876 -21.927)">
        <rect id="Rectángulo_395" data-name="Rectángulo 395" width="474.47" height="1.567" transform="matrix(0.707, -0.707, 0.707, 0.707, 0, 335.498)" fill="#fc8422"/>
      </g>
      <g id="Grupo_434" data-name="Grupo 434" transform="translate(-15.379 -17.43)">
        <rect id="Rectángulo_396" data-name="Rectángulo 396" width="474.47" height="1.567" transform="matrix(0.707, -0.707, 0.707, 0.707, 0, 335.498)" fill="#fc8422"/>
      </g>
      <g id="Grupo_435" data-name="Grupo 435" transform="translate(-10.881 -12.934)">
        <rect id="Rectángulo_397" data-name="Rectángulo 397" width="474.47" height="1.567" transform="matrix(0.707, -0.707, 0.707, 0.707, 0, 335.498)" fill="#fc8422"/>
      </g>
      <g id="Grupo_436" data-name="Grupo 436" transform="translate(-6.386 -8.435)">
        <rect id="Rectángulo_398" data-name="Rectángulo 398" width="474.47" height="1.567" transform="matrix(0.707, -0.707, 0.707, 0.707, 0, 335.498)" fill="#fc8422"/>
      </g>
      <g id="Grupo_437" data-name="Grupo 437" transform="translate(-1.888 -3.939)">
        <rect id="Rectángulo_399" data-name="Rectángulo 399" width="474.47" height="1.567" transform="matrix(0.707, -0.707, 0.707, 0.707, 0, 335.498)" fill="#fc8422"/>
      </g>
      <g id="Grupo_438" data-name="Grupo 438" transform="translate(2.607 0.556)">
        <rect id="Rectángulo_400" data-name="Rectángulo 400" width="474.47" height="1.567" transform="matrix(0.707, -0.707, 0.707, 0.707, 0, 335.498)" fill="#fc8422"/>
      </g>
      <g id="Grupo_439" data-name="Grupo 439" transform="translate(7.105 5.052)">
        <rect id="Rectángulo_401" data-name="Rectángulo 401" width="474.47" height="1.567" transform="matrix(0.707, -0.707, 0.707, 0.707, 0, 335.498)" fill="#fc8422"/>
      </g>
      <g id="Grupo_440" data-name="Grupo 440" transform="translate(11.602 9.549)">
        <rect id="Rectángulo_402" data-name="Rectángulo 402" width="474.47" height="1.567" transform="matrix(0.707, -0.707, 0.707, 0.707, 0, 335.498)" fill="#fc8422"/>
      </g>
      <g id="Grupo_441" data-name="Grupo 441" transform="translate(16.1 14.045)">
        <rect id="Rectángulo_403" data-name="Rectángulo 403" width="474.47" height="1.567" transform="matrix(0.707, -0.707, 0.707, 0.707, 0, 335.498)" fill="#fc8422"/>
      </g>
      <g id="Grupo_442" data-name="Grupo 442" transform="translate(20.595 18.544)">
        <rect id="Rectángulo_404" data-name="Rectángulo 404" width="474.47" height="1.567" transform="matrix(0.707, -0.707, 0.707, 0.707, 0, 335.498)" fill="#fc8422"/>
      </g>
      <g id="Grupo_443" data-name="Grupo 443" transform="translate(25.093 23.04)">
        <rect id="Rectángulo_405" data-name="Rectángulo 405" width="474.47" height="1.567" transform="matrix(0.707, -0.707, 0.707, 0.707, 0, 335.498)" fill="#fc8422"/>
      </g>
      <g id="Grupo_444" data-name="Grupo 444" transform="translate(29.59 27.537)">
        <rect id="Rectángulo_406" data-name="Rectángulo 406" width="474.47" height="1.567" transform="matrix(0.707, -0.707, 0.707, 0.707, 0, 335.498)" fill="#fc8422"/>
      </g>
    </g>
  </g>
</svg>
