<svg xmlns="http://www.w3.org/2000/svg" xmlns:xlink="http://www.w3.org/1999/xlink" width="415.907" height="181.328" viewBox="0 0 415.907 181.328">
  <defs>
    <clipPath id="clip-path">
      <rect id="Rectángulo_125" data-name="Rectángulo 125" width="181.328" height="415.907"/>
    </clipPath>
  </defs>
  <g id="rayas" transform="translate(-643.91 954.338) rotate(-90)">
    <g id="Grupo_161" data-name="Grupo 161" transform="translate(773.01 643.91)" clip-path="url(#clip-path)">
      <g id="Grupo_109" data-name="Grupo 109" transform="translate(-497.581 -414.464)">
        <rect id="Rectángulo_73" data-name="Rectángulo 73" width="974.548" height="3.218" transform="matrix(0.707, -0.707, 0.707, 0.707, 0, 689.103)" fill="#fff"/>
      </g>
      <g id="Grupo_110" data-name="Grupo 110" transform="translate(-488.343 -405.229)">
        <rect id="Rectángulo_74" data-name="Rectángulo 74" width="974.548" height="3.218" transform="matrix(0.707, -0.707, 0.707, 0.707, 0, 689.103)" fill="#fff"/>
      </g>
      <g id="Grupo_111" data-name="Grupo 111" transform="translate(-479.105 -395.993)">
        <rect id="Rectángulo_75" data-name="Rectángulo 75" width="974.548" height="3.218" transform="matrix(0.707, -0.707, 0.707, 0.707, 0, 689.103)" fill="#fff"/>
      </g>
      <g id="Grupo_112" data-name="Grupo 112" transform="translate(-469.867 -386.757)">
        <rect id="Rectángulo_76" data-name="Rectángulo 76" width="974.548" height="3.218" transform="matrix(0.707, -0.707, 0.707, 0.707, 0, 689.103)" fill="#fff"/>
      </g>
      <g id="Grupo_113" data-name="Grupo 113" transform="translate(-460.634 -377.517)">
        <rect id="Rectángulo_77" data-name="Rectángulo 77" width="974.548" height="3.218" transform="matrix(0.707, -0.707, 0.707, 0.707, 0, 689.103)" fill="#fff"/>
      </g>
      <g id="Grupo_114" data-name="Grupo 114" transform="translate(-451.396 -368.281)">
        <rect id="Rectángulo_78" data-name="Rectángulo 78" width="974.548" height="3.218" transform="matrix(0.707, -0.707, 0.707, 0.707, 0, 689.103)" fill="#fff"/>
      </g>
      <g id="Grupo_115" data-name="Grupo 115" transform="translate(-442.163 -359.05)">
        <rect id="Rectángulo_79" data-name="Rectángulo 79" width="974.548" height="3.218" transform="matrix(0.707, -0.707, 0.707, 0.707, 0, 689.103)" fill="#fff"/>
      </g>
      <g id="Grupo_116" data-name="Grupo 116" transform="translate(-432.925 -349.815)">
        <rect id="Rectángulo_80" data-name="Rectángulo 80" width="974.548" height="3.218" transform="matrix(0.707, -0.707, 0.707, 0.707, 0, 689.103)" fill="#fff"/>
      </g>
      <g id="Grupo_117" data-name="Grupo 117" transform="translate(-423.687 -340.579)">
        <rect id="Rectángulo_81" data-name="Rectángulo 81" width="974.548" height="3.218" transform="matrix(0.707, -0.707, 0.707, 0.707, 0, 689.103)" fill="#fff"/>
      </g>
      <g id="Grupo_118" data-name="Grupo 118" transform="translate(-414.449 -331.343)">
        <rect id="Rectángulo_82" data-name="Rectángulo 82" width="974.548" height="3.218" transform="matrix(0.707, -0.707, 0.707, 0.707, 0, 689.103)" fill="#fff"/>
      </g>
      <g id="Grupo_119" data-name="Grupo 119" transform="translate(-405.211 -322.108)">
        <rect id="Rectángulo_83" data-name="Rectángulo 83" width="974.548" height="3.218" transform="matrix(0.707, -0.707, 0.707, 0.707, 0, 689.103)" fill="#fff"/>
      </g>
      <g id="Grupo_120" data-name="Grupo 120" transform="translate(-395.978 -312.867)">
        <rect id="Rectángulo_84" data-name="Rectángulo 84" width="974.548" height="3.218" transform="matrix(0.707, -0.707, 0.707, 0.707, 0, 689.103)" fill="#fff"/>
      </g>
      <g id="Grupo_121" data-name="Grupo 121" transform="translate(-386.74 -303.632)">
        <rect id="Rectángulo_85" data-name="Rectángulo 85" width="974.548" height="3.218" transform="matrix(0.707, -0.707, 0.707, 0.707, 0, 689.103)" fill="#fff"/>
      </g>
      <g id="Grupo_122" data-name="Grupo 122" transform="translate(-377.507 -294.401)">
        <rect id="Rectángulo_86" data-name="Rectángulo 86" width="974.548" height="3.218" transform="matrix(0.707, -0.707, 0.707, 0.707, 0, 689.103)" fill="#fff"/>
      </g>
      <g id="Grupo_123" data-name="Grupo 123" transform="translate(-368.269 -285.165)">
        <rect id="Rectángulo_87" data-name="Rectángulo 87" width="974.548" height="3.218" transform="matrix(0.707, -0.707, 0.707, 0.707, 0, 689.103)" fill="#fff"/>
      </g>
      <g id="Grupo_124" data-name="Grupo 124" transform="translate(-359.031 -275.929)">
        <rect id="Rectángulo_88" data-name="Rectángulo 88" width="974.548" height="3.218" transform="matrix(0.707, -0.707, 0.707, 0.707, 0, 689.103)" fill="#fff"/>
      </g>
      <g id="Grupo_125" data-name="Grupo 125" transform="translate(-349.793 -266.694)">
        <rect id="Rectángulo_89" data-name="Rectángulo 89" width="974.548" height="3.218" transform="matrix(0.707, -0.707, 0.707, 0.707, 0, 689.103)" fill="#fff"/>
      </g>
      <g id="Grupo_126" data-name="Grupo 126" transform="translate(-340.56 -257.453)">
        <rect id="Rectángulo_90" data-name="Rectángulo 90" width="974.548" height="3.218" transform="matrix(0.707, -0.707, 0.707, 0.707, 0, 689.103)" fill="#fff"/>
      </g>
      <g id="Grupo_127" data-name="Grupo 127" transform="translate(-331.322 -248.218)">
        <rect id="Rectángulo_91" data-name="Rectángulo 91" width="974.548" height="3.218" transform="matrix(0.707, -0.707, 0.707, 0.707, 0, 689.103)" fill="#fff"/>
      </g>
      <g id="Grupo_128" data-name="Grupo 128" transform="translate(-322.089 -238.986)">
        <rect id="Rectángulo_92" data-name="Rectángulo 92" width="974.548" height="3.218" transform="matrix(0.707, -0.707, 0.707, 0.707, 0, 689.103)" fill="#fff"/>
      </g>
      <g id="Grupo_129" data-name="Grupo 129" transform="translate(-312.851 -229.751)">
        <rect id="Rectángulo_93" data-name="Rectángulo 93" width="974.548" height="3.218" transform="matrix(0.707, -0.707, 0.707, 0.707, 0, 689.103)" fill="#fff"/>
      </g>
      <g id="Grupo_130" data-name="Grupo 130" transform="translate(-303.613 -220.515)">
        <rect id="Rectángulo_94" data-name="Rectángulo 94" width="974.548" height="3.218" transform="matrix(0.707, -0.707, 0.707, 0.707, 0, 689.103)" fill="#fff"/>
      </g>
      <g id="Grupo_131" data-name="Grupo 131" transform="translate(-294.375 -211.279)">
        <rect id="Rectángulo_95" data-name="Rectángulo 95" width="974.548" height="3.218" transform="matrix(0.707, -0.707, 0.707, 0.707, 0, 689.103)" fill="#fff"/>
      </g>
      <g id="Grupo_132" data-name="Grupo 132" transform="translate(-285.137 -202.044)">
        <rect id="Rectángulo_96" data-name="Rectángulo 96" width="974.548" height="3.218" transform="matrix(0.707, -0.707, 0.707, 0.707, 0, 689.103)" fill="#fff"/>
      </g>
      <g id="Grupo_133" data-name="Grupo 133" transform="translate(-275.904 -192.803)">
        <rect id="Rectángulo_97" data-name="Rectángulo 97" width="974.548" height="3.218" transform="matrix(0.707, -0.707, 0.707, 0.707, 0, 689.103)" fill="#fff"/>
      </g>
      <g id="Grupo_134" data-name="Grupo 134" transform="translate(-266.666 -183.568)">
        <rect id="Rectángulo_98" data-name="Rectángulo 98" width="974.548" height="3.218" transform="matrix(0.707, -0.707, 0.707, 0.707, 0, 689.103)" fill="#fff"/>
      </g>
      <g id="Grupo_135" data-name="Grupo 135" transform="translate(-257.433 -174.337)">
        <rect id="Rectángulo_99" data-name="Rectángulo 99" width="974.548" height="3.218" transform="matrix(0.707, -0.707, 0.707, 0.707, 0, 689.103)" fill="#fff"/>
      </g>
      <g id="Grupo_136" data-name="Grupo 136" transform="translate(-248.195 -165.101)">
        <rect id="Rectángulo_100" data-name="Rectángulo 100" width="974.548" height="3.218" transform="matrix(0.707, -0.707, 0.707, 0.707, 0, 689.103)" fill="#fff"/>
      </g>
      <g id="Grupo_137" data-name="Grupo 137" transform="translate(-238.957 -155.865)">
        <rect id="Rectángulo_101" data-name="Rectángulo 101" width="974.548" height="3.218" transform="matrix(0.707, -0.707, 0.707, 0.707, 0, 689.103)" fill="#fff"/>
      </g>
      <g id="Grupo_138" data-name="Grupo 138" transform="translate(-229.719 -146.63)">
        <rect id="Rectángulo_102" data-name="Rectángulo 102" width="974.548" height="3.218" transform="matrix(0.707, -0.707, 0.707, 0.707, 0, 689.103)" fill="#fff"/>
      </g>
      <g id="Grupo_139" data-name="Grupo 139" transform="translate(-220.486 -137.389)">
        <rect id="Rectángulo_103" data-name="Rectángulo 103" width="974.548" height="3.218" transform="matrix(0.707, -0.707, 0.707, 0.707, 0, 689.103)" fill="#fff"/>
      </g>
      <g id="Grupo_140" data-name="Grupo 140" transform="translate(-211.248 -128.154)">
        <rect id="Rectángulo_104" data-name="Rectángulo 104" width="974.548" height="3.218" transform="matrix(0.707, -0.707, 0.707, 0.707, 0, 689.103)" fill="#fff"/>
      </g>
      <g id="Grupo_141" data-name="Grupo 141" transform="translate(-202.015 -118.922)">
        <rect id="Rectángulo_105" data-name="Rectángulo 105" width="974.548" height="3.218" transform="matrix(0.707, -0.707, 0.707, 0.707, 0, 689.103)" fill="#fff"/>
      </g>
      <g id="Grupo_142" data-name="Grupo 142" transform="translate(-192.777 -109.687)">
        <rect id="Rectángulo_106" data-name="Rectángulo 106" width="974.548" height="3.218" transform="matrix(0.707, -0.707, 0.707, 0.707, 0, 689.103)" fill="#fff"/>
      </g>
      <g id="Grupo_143" data-name="Grupo 143" transform="translate(-183.539 -100.451)">
        <rect id="Rectángulo_107" data-name="Rectángulo 107" width="974.548" height="3.218" transform="matrix(0.707, -0.707, 0.707, 0.707, 0, 689.103)" fill="#fff"/>
      </g>
      <g id="Grupo_144" data-name="Grupo 144" transform="translate(-174.301 -91.215)">
        <rect id="Rectángulo_108" data-name="Rectángulo 108" width="974.548" height="3.218" transform="matrix(0.707, -0.707, 0.707, 0.707, 0, 689.103)" fill="#fff"/>
      </g>
      <g id="Grupo_145" data-name="Grupo 145" transform="translate(-165.068 -81.975)">
        <rect id="Rectángulo_109" data-name="Rectángulo 109" width="974.548" height="3.218" transform="matrix(0.707, -0.707, 0.707, 0.707, 0, 689.103)" fill="#fff"/>
      </g>
      <g id="Grupo_146" data-name="Grupo 146" transform="translate(-155.83 -72.739)">
        <rect id="Rectángulo_110" data-name="Rectángulo 110" width="974.548" height="3.218" transform="matrix(0.707, -0.707, 0.707, 0.707, 0, 689.103)" fill="#fff"/>
      </g>
      <g id="Grupo_147" data-name="Grupo 147" transform="translate(-146.592 -63.504)">
        <rect id="Rectángulo_111" data-name="Rectángulo 111" width="974.548" height="3.218" transform="matrix(0.707, -0.707, 0.707, 0.707, 0, 689.103)" fill="#fff"/>
      </g>
      <g id="Grupo_148" data-name="Grupo 148" transform="translate(-137.359 -54.273)">
        <rect id="Rectángulo_112" data-name="Rectángulo 112" width="974.548" height="3.218" transform="matrix(0.707, -0.707, 0.707, 0.707, 0, 689.103)" fill="#fff"/>
      </g>
      <g id="Grupo_149" data-name="Grupo 149" transform="translate(-128.121 -45.037)">
        <rect id="Rectángulo_113" data-name="Rectángulo 113" width="974.548" height="3.218" transform="matrix(0.707, -0.707, 0.707, 0.707, 0, 689.103)" fill="#fff"/>
      </g>
      <g id="Grupo_150" data-name="Grupo 150" transform="translate(-118.883 -35.801)">
        <rect id="Rectángulo_114" data-name="Rectángulo 114" width="974.548" height="3.218" transform="matrix(0.707, -0.707, 0.707, 0.707, 0, 689.103)" fill="#fff"/>
      </g>
      <g id="Grupo_151" data-name="Grupo 151" transform="translate(-109.645 -26.566)">
        <rect id="Rectángulo_115" data-name="Rectángulo 115" width="974.548" height="3.218" transform="matrix(0.707, -0.707, 0.707, 0.707, 0, 689.103)" fill="#fff"/>
      </g>
      <g id="Grupo_152" data-name="Grupo 152" transform="translate(-100.412 -17.325)">
        <rect id="Rectángulo_116" data-name="Rectángulo 116" width="974.548" height="3.218" transform="matrix(0.707, -0.707, 0.707, 0.707, 0, 689.103)" fill="#fff"/>
      </g>
      <g id="Grupo_153" data-name="Grupo 153" transform="translate(-91.174 -8.09)">
        <rect id="Rectángulo_117" data-name="Rectángulo 117" width="974.548" height="3.218" transform="matrix(0.707, -0.707, 0.707, 0.707, 0, 689.103)" fill="#fff"/>
      </g>
      <g id="Grupo_154" data-name="Grupo 154" transform="translate(-81.94 1.142)">
        <rect id="Rectángulo_118" data-name="Rectángulo 118" width="974.548" height="3.218" transform="matrix(0.707, -0.707, 0.707, 0.707, 0, 689.103)" fill="#fff"/>
      </g>
      <g id="Grupo_155" data-name="Grupo 155" transform="translate(-72.703 10.377)">
        <rect id="Rectángulo_119" data-name="Rectángulo 119" width="974.548" height="3.218" transform="matrix(0.707, -0.707, 0.707, 0.707, 0, 689.103)" fill="#fff"/>
      </g>
      <g id="Grupo_156" data-name="Grupo 156" transform="translate(-63.465 19.613)">
        <rect id="Rectángulo_120" data-name="Rectángulo 120" width="974.548" height="3.218" transform="matrix(0.707, -0.707, 0.707, 0.707, 0, 689.103)" fill="#fff"/>
      </g>
      <g id="Grupo_157" data-name="Grupo 157" transform="translate(-54.227 28.849)">
        <rect id="Rectángulo_121" data-name="Rectángulo 121" width="974.548" height="3.218" transform="matrix(0.707, -0.707, 0.707, 0.707, 0, 689.103)" fill="#fff"/>
      </g>
      <g id="Grupo_158" data-name="Grupo 158" transform="translate(-44.993 38.089)">
        <rect id="Rectángulo_122" data-name="Rectángulo 122" width="974.548" height="3.218" transform="matrix(0.707, -0.707, 0.707, 0.707, 0, 689.103)" fill="#fff"/>
      </g>
      <g id="Grupo_159" data-name="Grupo 159" transform="translate(-35.756 47.325)">
        <rect id="Rectángulo_123" data-name="Rectángulo 123" width="974.548" height="3.218" transform="matrix(0.707, -0.707, 0.707, 0.707, 0, 689.103)" fill="#fff"/>
      </g>
      <g id="Grupo_160" data-name="Grupo 160" transform="translate(-26.518 56.56)">
        <rect id="Rectángulo_124" data-name="Rectángulo 124" width="974.548" height="3.218" transform="matrix(0.707, -0.707, 0.707, 0.707, 0, 689.103)" fill="#fff"/>
      </g>
    </g>
  </g>
</svg>
