<svg xmlns="http://www.w3.org/2000/svg" xmlns:xlink="http://www.w3.org/1999/xlink" width="82.67" height="453.963" viewBox="0 0 82.67 453.963">
  <defs>
    <clipPath id="clip-path">
      <rect id="Rectángulo_407" data-name="Rectángulo 407" width="82.67" height="453.963" fill="#e91e5d"/>
    </clipPath>
  </defs>
  <g id="rayas_01" transform="translate(-736.713 -643.91)">
    <g id="Grupo_445" data-name="Grupo 445" transform="translate(736.713 643.91)" clip-path="url(#clip-path)">
      <g id="Grupo_393" data-name="Grupo 393" transform="translate(-549.144 -452.389)">
        <rect id="Rectángulo_355" data-name="Rectángulo 355" width="1063.72" height="3.513" transform="matrix(0.707, -0.707, 0.707, 0.707, 0, 752.157)" fill="#e91e5d"/>
      </g>
      <g id="Grupo_394" data-name="Grupo 394" transform="translate(-539.061 -442.308)">
        <rect id="Rectángulo_356" data-name="Rectángulo 356" width="1063.72" height="3.513" transform="matrix(0.707, -0.707, 0.707, 0.707, 0, 752.157)" fill="#e91e5d"/>
      </g>
      <g id="Grupo_395" data-name="Grupo 395" transform="translate(-528.978 -432.227)">
        <rect id="Rectángulo_357" data-name="Rectángulo 357" width="1063.72" height="3.513" transform="matrix(0.707, -0.707, 0.707, 0.707, 0, 752.157)" fill="#e91e5d"/>
      </g>
      <g id="Grupo_396" data-name="Grupo 396" transform="translate(-518.895 -422.146)">
        <rect id="Rectángulo_358" data-name="Rectángulo 358" width="1063.72" height="3.513" transform="matrix(0.707, -0.707, 0.707, 0.707, 0, 752.157)" fill="#e91e5d"/>
      </g>
      <g id="Grupo_397" data-name="Grupo 397" transform="translate(-508.817 -412.061)">
        <rect id="Rectángulo_359" data-name="Rectángulo 359" width="1063.72" height="3.513" transform="matrix(0.707, -0.707, 0.707, 0.707, 0, 752.157)" fill="#e91e5d"/>
      </g>
      <g id="Grupo_398" data-name="Grupo 398" transform="translate(-498.733 -401.98)">
        <rect id="Rectángulo_360" data-name="Rectángulo 360" width="1063.72" height="3.513" transform="matrix(0.707, -0.707, 0.707, 0.707, 0, 752.157)" fill="#e91e5d"/>
      </g>
      <g id="Grupo_399" data-name="Grupo 399" transform="translate(-488.655 -391.904)">
        <rect id="Rectángulo_361" data-name="Rectángulo 361" width="1063.72" height="3.513" transform="matrix(0.707, -0.707, 0.707, 0.707, 0, 752.157)" fill="#e91e5d"/>
      </g>
      <g id="Grupo_400" data-name="Grupo 400" transform="translate(-478.572 -381.823)">
        <rect id="Rectángulo_362" data-name="Rectángulo 362" width="1063.72" height="3.513" transform="matrix(0.707, -0.707, 0.707, 0.707, 0, 752.157)" fill="#e91e5d"/>
      </g>
      <g id="Grupo_401" data-name="Grupo 401" transform="translate(-468.489 -371.742)">
        <rect id="Rectángulo_363" data-name="Rectángulo 363" width="1063.72" height="3.513" transform="matrix(0.707, -0.707, 0.707, 0.707, 0, 752.157)" fill="#e91e5d"/>
      </g>
      <g id="Grupo_402" data-name="Grupo 402" transform="translate(-458.406 -361.662)">
        <rect id="Rectángulo_364" data-name="Rectángulo 364" width="1063.72" height="3.513" transform="matrix(0.707, -0.707, 0.707, 0.707, 0, 752.157)" fill="#e91e5d"/>
      </g>
      <g id="Grupo_403" data-name="Grupo 403" transform="translate(-448.323 -351.581)">
        <rect id="Rectángulo_365" data-name="Rectángulo 365" width="1063.72" height="3.513" transform="matrix(0.707, -0.707, 0.707, 0.707, 0, 752.157)" fill="#e91e5d"/>
      </g>
      <g id="Grupo_404" data-name="Grupo 404" transform="translate(-438.244 -341.495)">
        <rect id="Rectángulo_366" data-name="Rectángulo 366" width="1063.72" height="3.513" transform="matrix(0.707, -0.707, 0.707, 0.707, 0, 752.157)" fill="#e91e5d"/>
      </g>
      <g id="Grupo_405" data-name="Grupo 405" transform="translate(-428.161 -331.414)">
        <rect id="Rectángulo_367" data-name="Rectángulo 367" width="1063.72" height="3.513" transform="matrix(0.707, -0.707, 0.707, 0.707, 0, 752.157)" fill="#e91e5d"/>
      </g>
      <g id="Grupo_406" data-name="Grupo 406" transform="translate(-418.083 -321.339)">
        <rect id="Rectángulo_368" data-name="Rectángulo 368" width="1063.72" height="3.513" transform="matrix(0.707, -0.707, 0.707, 0.707, 0, 752.157)" fill="#e91e5d"/>
      </g>
      <g id="Grupo_407" data-name="Grupo 407" transform="translate(-408 -311.258)">
        <rect id="Rectángulo_369" data-name="Rectángulo 369" width="1063.72" height="3.513" transform="matrix(0.707, -0.707, 0.707, 0.707, 0, 752.157)" fill="#e91e5d"/>
      </g>
      <g id="Grupo_408" data-name="Grupo 408" transform="translate(-397.917 -301.177)">
        <rect id="Rectángulo_370" data-name="Rectángulo 370" width="1063.72" height="3.513" transform="matrix(0.707, -0.707, 0.707, 0.707, 0, 752.157)" fill="#e91e5d"/>
      </g>
      <g id="Grupo_409" data-name="Grupo 409" transform="translate(-387.834 -291.096)">
        <rect id="Rectángulo_371" data-name="Rectángulo 371" width="1063.72" height="3.513" transform="matrix(0.707, -0.707, 0.707, 0.707, 0, 752.157)" fill="#e91e5d"/>
      </g>
      <g id="Grupo_410" data-name="Grupo 410" transform="translate(-377.755 -281.011)">
        <rect id="Rectángulo_372" data-name="Rectángulo 372" width="1063.72" height="3.513" transform="matrix(0.707, -0.707, 0.707, 0.707, 0, 752.157)" fill="#e91e5d"/>
      </g>
      <g id="Grupo_411" data-name="Grupo 411" transform="translate(-367.672 -270.93)">
        <rect id="Rectángulo_373" data-name="Rectángulo 373" width="1063.72" height="3.513" transform="matrix(0.707, -0.707, 0.707, 0.707, 0, 752.157)" fill="#e91e5d"/>
      </g>
      <g id="Grupo_412" data-name="Grupo 412" transform="translate(-357.594 -260.854)">
        <rect id="Rectángulo_374" data-name="Rectángulo 374" width="1063.72" height="3.513" transform="matrix(0.707, -0.707, 0.707, 0.707, 0, 752.157)" fill="#e91e5d"/>
      </g>
      <g id="Grupo_413" data-name="Grupo 413" transform="translate(-347.511 -250.773)">
        <rect id="Rectángulo_375" data-name="Rectángulo 375" width="1063.72" height="3.513" transform="matrix(0.707, -0.707, 0.707, 0.707, 0, 752.157)" fill="#e91e5d"/>
      </g>
      <g id="Grupo_414" data-name="Grupo 414" transform="translate(-337.428 -240.693)">
        <rect id="Rectángulo_376" data-name="Rectángulo 376" width="1063.72" height="3.513" transform="matrix(0.707, -0.707, 0.707, 0.707, 0, 752.157)" fill="#e91e5d"/>
      </g>
      <g id="Grupo_415" data-name="Grupo 415" transform="translate(-327.345 -230.612)">
        <rect id="Rectángulo_377" data-name="Rectángulo 377" width="1063.72" height="3.513" transform="matrix(0.707, -0.707, 0.707, 0.707, 0, 752.157)" fill="#e91e5d"/>
      </g>
      <g id="Grupo_416" data-name="Grupo 416" transform="translate(-317.262 -220.531)">
        <rect id="Rectángulo_378" data-name="Rectángulo 378" width="1063.72" height="3.513" transform="matrix(0.707, -0.707, 0.707, 0.707, 0, 752.157)" fill="#e91e5d"/>
      </g>
      <g id="Grupo_417" data-name="Grupo 417" transform="translate(-307.183 -210.445)">
        <rect id="Rectángulo_379" data-name="Rectángulo 379" width="1063.72" height="3.513" transform="matrix(0.707, -0.707, 0.707, 0.707, 0, 752.157)" fill="#e91e5d"/>
      </g>
      <g id="Grupo_418" data-name="Grupo 418" transform="translate(-297.1 -200.364)">
        <rect id="Rectángulo_380" data-name="Rectángulo 380" width="1063.72" height="3.513" transform="matrix(0.707, -0.707, 0.707, 0.707, 0, 752.157)" fill="#e91e5d"/>
      </g>
      <g id="Grupo_419" data-name="Grupo 419" transform="translate(-287.022 -190.289)">
        <rect id="Rectángulo_381" data-name="Rectángulo 381" width="1063.72" height="3.513" transform="matrix(0.707, -0.707, 0.707, 0.707, 0, 752.157)" fill="#e91e5d"/>
      </g>
      <g id="Grupo_420" data-name="Grupo 420" transform="translate(-276.939 -180.208)">
        <rect id="Rectángulo_382" data-name="Rectángulo 382" width="1063.72" height="3.513" transform="matrix(0.707, -0.707, 0.707, 0.707, 0, 752.157)" fill="#e91e5d"/>
      </g>
      <g id="Grupo_421" data-name="Grupo 421" transform="translate(-266.856 -170.127)">
        <rect id="Rectángulo_383" data-name="Rectángulo 383" width="1063.72" height="3.513" transform="matrix(0.707, -0.707, 0.707, 0.707, 0, 752.157)" fill="#e91e5d"/>
      </g>
      <g id="Grupo_422" data-name="Grupo 422" transform="translate(-256.773 -160.046)">
        <rect id="Rectángulo_384" data-name="Rectángulo 384" width="1063.72" height="3.513" transform="matrix(0.707, -0.707, 0.707, 0.707, 0, 752.157)" fill="#e91e5d"/>
      </g>
      <g id="Grupo_423" data-name="Grupo 423" transform="translate(-246.694 -149.961)">
        <rect id="Rectángulo_385" data-name="Rectángulo 385" width="1063.72" height="3.513" transform="matrix(0.707, -0.707, 0.707, 0.707, 0, 752.157)" fill="#e91e5d"/>
      </g>
      <g id="Grupo_424" data-name="Grupo 424" transform="translate(-236.611 -139.88)">
        <rect id="Rectángulo_386" data-name="Rectángulo 386" width="1063.72" height="3.513" transform="matrix(0.707, -0.707, 0.707, 0.707, 0, 752.157)" fill="#e91e5d"/>
      </g>
      <g id="Grupo_425" data-name="Grupo 425" transform="translate(-226.533 -129.804)">
        <rect id="Rectángulo_387" data-name="Rectángulo 387" width="1063.72" height="3.513" transform="matrix(0.707, -0.707, 0.707, 0.707, 0, 752.157)" fill="#e91e5d"/>
      </g>
      <g id="Grupo_426" data-name="Grupo 426" transform="translate(-216.45 -119.723)">
        <rect id="Rectángulo_388" data-name="Rectángulo 388" width="1063.72" height="3.513" transform="matrix(0.707, -0.707, 0.707, 0.707, 0, 752.157)" fill="#e91e5d"/>
      </g>
      <g id="Grupo_427" data-name="Grupo 427" transform="translate(-206.367 -109.642)">
        <rect id="Rectángulo_389" data-name="Rectángulo 389" width="1063.72" height="3.513" transform="matrix(0.707, -0.707, 0.707, 0.707, 0, 752.157)" fill="#e91e5d"/>
      </g>
      <g id="Grupo_428" data-name="Grupo 428" transform="translate(-196.284 -99.562)">
        <rect id="Rectángulo_390" data-name="Rectángulo 390" width="1063.72" height="3.513" transform="matrix(0.707, -0.707, 0.707, 0.707, 0, 752.157)" fill="#e91e5d"/>
      </g>
      <g id="Grupo_429" data-name="Grupo 429" transform="translate(-186.206 -89.476)">
        <rect id="Rectángulo_391" data-name="Rectángulo 391" width="1063.72" height="3.513" transform="matrix(0.707, -0.707, 0.707, 0.707, 0, 752.157)" fill="#e91e5d"/>
      </g>
      <g id="Grupo_430" data-name="Grupo 430" transform="translate(-176.122 -79.395)">
        <rect id="Rectángulo_392" data-name="Rectángulo 392" width="1063.72" height="3.513" transform="matrix(0.707, -0.707, 0.707, 0.707, 0, 752.157)" fill="#e91e5d"/>
      </g>
      <g id="Grupo_431" data-name="Grupo 431" transform="translate(-166.039 -69.315)">
        <rect id="Rectángulo_393" data-name="Rectángulo 393" width="1063.72" height="3.513" transform="matrix(0.707, -0.707, 0.707, 0.707, 0, 752.157)" fill="#e91e5d"/>
      </g>
      <g id="Grupo_432" data-name="Grupo 432" transform="translate(-155.961 -59.239)">
        <rect id="Rectángulo_394" data-name="Rectángulo 394" width="1063.72" height="3.513" transform="matrix(0.707, -0.707, 0.707, 0.707, 0, 752.157)" fill="#e91e5d"/>
      </g>
      <g id="Grupo_433" data-name="Grupo 433" transform="translate(-145.878 -49.158)">
        <rect id="Rectángulo_395" data-name="Rectángulo 395" width="1063.72" height="3.513" transform="matrix(0.707, -0.707, 0.707, 0.707, 0, 752.157)" fill="#e91e5d"/>
      </g>
      <g id="Grupo_434" data-name="Grupo 434" transform="translate(-135.795 -39.077)">
        <rect id="Rectángulo_396" data-name="Rectángulo 396" width="1063.72" height="3.513" transform="matrix(0.707, -0.707, 0.707, 0.707, 0, 752.157)" fill="#e91e5d"/>
      </g>
      <g id="Grupo_435" data-name="Grupo 435" transform="translate(-125.712 -28.996)">
        <rect id="Rectángulo_397" data-name="Rectángulo 397" width="1063.72" height="3.513" transform="matrix(0.707, -0.707, 0.707, 0.707, 0, 752.157)" fill="#e91e5d"/>
      </g>
      <g id="Grupo_436" data-name="Grupo 436" transform="translate(-115.633 -18.911)">
        <rect id="Rectángulo_398" data-name="Rectángulo 398" width="1063.72" height="3.513" transform="matrix(0.707, -0.707, 0.707, 0.707, 0, 752.157)" fill="#e91e5d"/>
      </g>
      <g id="Grupo_437" data-name="Grupo 437" transform="translate(-105.55 -8.83)">
        <rect id="Rectángulo_399" data-name="Rectángulo 399" width="1063.72" height="3.513" transform="matrix(0.707, -0.707, 0.707, 0.707, 0, 752.157)" fill="#e91e5d"/>
      </g>
      <g id="Grupo_438" data-name="Grupo 438" transform="translate(-95.472 1.246)">
        <rect id="Rectángulo_400" data-name="Rectángulo 400" width="1063.72" height="3.513" transform="matrix(0.707, -0.707, 0.707, 0.707, 0, 752.157)" fill="#e91e5d"/>
      </g>
      <g id="Grupo_439" data-name="Grupo 439" transform="translate(-85.389 11.327)">
        <rect id="Rectángulo_401" data-name="Rectángulo 401" width="1063.72" height="3.513" transform="matrix(0.707, -0.707, 0.707, 0.707, 0, 752.157)" fill="#e91e5d"/>
      </g>
      <g id="Grupo_440" data-name="Grupo 440" transform="translate(-75.306 21.407)">
        <rect id="Rectángulo_402" data-name="Rectángulo 402" width="1063.72" height="3.513" transform="matrix(0.707, -0.707, 0.707, 0.707, 0, 752.157)" fill="#e91e5d"/>
      </g>
      <g id="Grupo_441" data-name="Grupo 441" transform="translate(-65.223 31.488)">
        <rect id="Rectángulo_403" data-name="Rectángulo 403" width="1063.72" height="3.513" transform="matrix(0.707, -0.707, 0.707, 0.707, 0, 752.157)" fill="#e91e5d"/>
      </g>
      <g id="Grupo_442" data-name="Grupo 442" transform="translate(-55.144 41.574)">
        <rect id="Rectángulo_404" data-name="Rectángulo 404" width="1063.72" height="3.513" transform="matrix(0.707, -0.707, 0.707, 0.707, 0, 752.157)" fill="#e91e5d"/>
      </g>
      <g id="Grupo_443" data-name="Grupo 443" transform="translate(-45.061 51.655)">
        <rect id="Rectángulo_405" data-name="Rectángulo 405" width="1063.72" height="3.513" transform="matrix(0.707, -0.707, 0.707, 0.707, 0, 752.157)" fill="#e91e5d"/>
      </g>
      <g id="Grupo_444" data-name="Grupo 444" transform="translate(-34.978 61.735)">
        <rect id="Rectángulo_406" data-name="Rectángulo 406" width="1063.72" height="3.513" transform="matrix(0.707, -0.707, 0.707, 0.707, 0, 752.157)" fill="#e91e5d"/>
      </g>
    </g>
  </g>
</svg>
