<svg id="Grupo_697" data-name="Grupo 697" xmlns="http://www.w3.org/2000/svg" width="262" height="262" viewBox="0 0 262 262">
  <g id="Grupo_692" data-name="Grupo 692">
    <path id="Trazado_612" data-name="Trazado 612" d="M191.98,236.33V258.5H70.02V236.33H191.98Z" fill="#fff"/>
    <path id="Trazado_613" data-name="Trazado 613" d="M164.26,203.07l11.09,33.26H86.65l11.09-33.26h66.52Z" fill="#a4b0c0"/>
    <path id="Trazado_614" data-name="Trazado 614" d="M258.5,158.72v27.72a16.61,16.61,0,0,1-16.63,16.63H20.13A16.61,16.61,0,0,1,3.5,186.44V158.72Z" fill="#fff"/>
  </g>
  <g id="Grupo_696" data-name="Grupo 696">
    <g id="XMLID_1_">
      <g id="Grupo_695" data-name="Grupo 695">
        <g id="XMLID_2_">
          <g id="Grupo_693" data-name="Grupo 693">
            <path id="Trazado_615" data-name="Trazado 615" d="M241.87,158.72H164.26l-22.17-22.18-16.63-16.63,38.8-38.8L214.15,131Z" fill="#e5205f"/>
            <path id="Trazado_616" data-name="Trazado 616" d="M164.26,158.72H9.04L36.76,131,86.65,81.11l38.81,38.8,16.63,16.63Z" fill="#e5205f"/>
            <path id="Trazado_617" data-name="Trazado 617" d="M125.46,64.48a16.63,16.63,0,1,0-16.63-16.63A16.61,16.61,0,0,0,125.46,64.48ZM258.5,20.13V158.72H241.87L214.15,131,164.26,81.11l-38.8,38.8-38.8-38.8L36.76,131,9.04,158.72H3.5V20.13A16.61,16.61,0,0,1,20.13,3.5H241.87A16.61,16.61,0,0,1,258.5,20.13Z" fill="#5174b8"/>
            <circle id="Elipse_44" data-name="Elipse 44" cx="16.63" cy="16.63" r="16.63" transform="translate(108.83 31.22)" fill="#e5205f"/>
          </g>
          <g id="Grupo_694" data-name="Grupo 694">
            <path id="Trazado_618" data-name="Trazado 618" d="M31.22,158.72H230.78" fill="none" stroke="#4d4e4e" stroke-linecap="round" stroke-linejoin="round" stroke-miterlimit="10" stroke-width="7"/>
            <path id="Trazado_619" data-name="Trazado 619" d="M191.98,258.5V236.33H175.35l-11.09-33.26h77.61a16.61,16.61,0,0,0,16.63-16.63V20.13A16.61,16.61,0,0,0,241.87,3.5H20.13A16.61,16.61,0,0,0,3.5,20.13V186.44a16.61,16.61,0,0,0,16.63,16.63H97.74L86.65,236.33H70.02V258.5" fill="none" stroke="#4d4e4e" stroke-linecap="round" stroke-linejoin="round" stroke-miterlimit="10" stroke-width="7"/>
            <path id="Trazado_620" data-name="Trazado 620" d="M58.93,258.5H203.07" fill="none" stroke="#4d4e4e" stroke-linecap="round" stroke-linejoin="round" stroke-miterlimit="10" stroke-width="7"/>
            <line id="Línea_83" data-name="Línea 83" x2="44.34" transform="translate(108.83 236.33)" fill="none" stroke="#4d4e4e" stroke-linecap="round" stroke-linejoin="round" stroke-miterlimit="10" stroke-width="7"/>
            <line id="Línea_84" data-name="Línea 84" x1="44.35" transform="translate(119.91 203.07)" fill="none" stroke="#4d4e4e" stroke-linecap="round" stroke-linejoin="round" stroke-miterlimit="10" stroke-width="7"/>
            <path id="Trazado_621" data-name="Trazado 621" d="M36.76,131,86.65,81.11l38.81,38.8,16.63,16.63" fill="none" stroke="#4d4e4e" stroke-linecap="round" stroke-linejoin="round" stroke-miterlimit="10" stroke-width="7"/>
            <path id="Trazado_622" data-name="Trazado 622" d="M125.46,119.91l38.8-38.8L214.15,131" fill="none" stroke="#4d4e4e" stroke-linecap="round" stroke-linejoin="round" stroke-miterlimit="10" stroke-width="7"/>
            <circle id="Elipse_45" data-name="Elipse 45" cx="16.63" cy="16.63" r="16.63" transform="translate(108.83 31.22)" stroke-width="7" stroke="#4d4e4e" stroke-linecap="round" stroke-linejoin="round" stroke-miterlimit="10" fill="none"/>
          </g>
        </g>
      </g>
    </g>
  </g>
</svg>
